<svg xmlns="http://www.w3.org/2000/svg" xmlns:xlink="http://www.w3.org/1999/xlink" xmlns:inkscape="http://www.inkscape.org/namespaces/inkscape" version="1.1" width="216" height="288" viewBox="0 0 216 288">
<defs>
<clipPath id="clip_0">
<path transform="matrix(1,0,0,-1,0,288)" d="M27 31.68H194.4V253.44H27Z"/>
</clipPath>
<clipPath id="clip_1">
<path transform="matrix(.01,0,0,-.01,5.265625,236.5969)" d="M-1021-463H1794V1233H-1021Z"/>
</clipPath>
<clipPath id="clip_2">
<path transform="matrix(.01,0,0,-.01,5.265625,209.71692)" d="M-1021-463H1794V1233H-1021Z"/>
</clipPath>
<clipPath id="clip_3">
<path transform="matrix(.01,0,0,-.01,5.265625,182.83695)" d="M-1021-463H1794V1233H-1021Z"/>
</clipPath>
<clipPath id="clip_4">
<path transform="matrix(.01,0,0,-.01,5.265625,155.95696)" d="M-1021-463H1794V1233H-1021Z"/>
</clipPath>
<clipPath id="clip_5">
<path transform="matrix(.01,0,0,-.01,5.265625,129.07698)" d="M-1021-463H1794V1233H-1021Z"/>
</clipPath>
<clipPath id="clip_6">
<path transform="matrix(.01,0,0,-.01,5.265625,102.19701)" d="M-1021-463H1794V1233H-1021Z"/>
</clipPath>
<clipPath id="clip_7">
<path transform="matrix(.01,0,0,-.01,5.265625,75.31703)" d="M-1021-463H1794V1233H-1021Z"/>
</clipPath>
<clipPath id="clip_8">
<path transform="matrix(1,0,0,-1,0,288)" d="M27 31.68H194.4V253.44H27Z"/>
</clipPath>
<clipPath id="clip_9">
<path transform="matrix(1,0,0,-1,0,288)" d="M27 31.68H194.4V253.44H27Z"/>
</clipPath>
<clipPath id="clip_10">
<path transform="matrix(1,0,0,-1,0,288)" d="M27 31.68H194.4V253.44H27Z"/>
</clipPath>
<clipPath id="clip_11">
<path transform="matrix(1,0,0,-1,0,288)" d="M27 31.68H194.4V253.44H27Z"/>
</clipPath>
<clipPath id="clip_12">
<path transform="matrix(1,0,0,-1,0,288)" d="M27 31.68H194.4V253.44H27Z"/>
</clipPath>
<clipPath id="clip_13">
<path transform="matrix(1,0,0,-1,0,288)" d="M27 31.68H194.4V253.44H27Z"/>
</clipPath>
<clipPath id="clip_14">
<path transform="matrix(1,0,0,-1,0,288)" d="M27 31.68H194.4V253.44H27Z"/>
</clipPath>
</defs>
<path transform="matrix(1,0,0,-1,0,288)" d="M0 0H216V288H0Z" fill="#ffffff"/>
<path transform="matrix(1,0,0,-1,0,288)" d="M27 31.68H194.4V253.44H27Z" fill="#ffffff"/>
<g clip-path="url(#clip_0)">
<path transform="matrix(1,0,0,-1,0,288)" d="M101.8108 41.76H95.26613L94.683017 43.796365 94.10334 45.832727 93.54466 47.86909 93.02013 49.905458 92.5372 51.94182 92.09763 53.978185 91.698299 56.014547 91.33266 58.050909 90.99239 60.087274 90.66874 62.123636 90.35335 64.16 90.038768 66.196369 89.71877 68.23273 89.38871 70.26909 89.046009 72.30546 88.690639 74.34182 88.32543 76.37818 87.95564 78.41454 87.58777 80.45091 87.22764 82.487277 86.87815 84.523639 86.53731 86.56 86.197048 88.59637 85.84347 90.63273 85.45861 92.66909 85.023418 94.70545 84.52148 96.74182 83.94264 98.77818 83.28555 100.814548 82.55847 102.85091 81.77794 104.887279 80.965618 106.92364 80.14411 108.96 79.33287 110.99636 78.545337 113.03273 77.78795 115.06909 77.06109 117.10545 76.36126 119.141819 75.68374 121.178188 75.02468 123.21455 74.382389 125.25091 73.75766 127.28727 73.15363 129.32364 72.57551 131.36 72.03029 133.39636 71.52638 135.43273 71.072849 137.46909 70.677829 139.50545 70.34654 141.54183 70.07916 143.57819 69.86911 145.61455 69.7025 147.65091 69.55848 149.68727 69.41016 151.72364 69.225269 153.76 68.96613 155.79637 68.58902 157.83274 68.043758 159.8691 67.275058 161.90546 66.22689 163.94182 64.85018 165.97818 63.113035 168.01454 61.011034 170.0509 58.574728 172.08728 55.871507 174.12364 53.000497 176.16 50.081056 178.19637 47.237215 180.23273 44.581529 182.26909 42.201696 184.30545 40.1524 186.34181 38.453329 188.37819 37.09278 190.41455 36.035528 192.45092 35.232824 194.48728 34.63281 196.52364 34.189435 198.56 33.86858 200.59636 33.650499 202.63272 33.528337 204.6691 33.503499 206.70546 33.57938 208.74182 33.755628 210.77819 34.024938 212.81455 34.373888 214.8509 34.787984 216.88727 35.259923 218.92363 35.79905 220.96 36.43945 222.99637 37.24425 225.03273 38.30419 227.06909 39.72955 229.10546 41.635736 231.14182 44.12405 233.17818 47.26063 235.21454 51.05749 237.25092 55.460023 239.28728 60.344629 241.32364 65.528369 243.36H131.54856L136.7323 241.32364 141.6169 239.28728 146.01943 237.25092 149.81629 235.21454 152.95287 233.17818 155.4412 231.14182 157.34737 229.10546 158.77274 227.06909 159.83267 225.03273 160.63747 222.99637 161.27788 220.96 161.817 218.92363 162.28894 216.88727 162.70304 214.8509 163.05199 212.81455 163.3213 210.77819 163.49755 208.74182 163.57343 206.70546 163.54859 204.6691 163.42642 202.63272 163.20835 200.59636 162.88748 198.56 162.4441 196.52364 161.8441 194.48728 161.0414 192.45092 159.98415 190.41455 158.6236 188.37819 156.92453 186.34181 154.87523 184.30545 152.49539 182.26909 149.8397 180.23273 146.99587 178.19637 144.07643 176.16 141.20542 174.12364 138.5022 172.08728 136.06589 170.0509 133.96389 168.01454 132.22675 165.97818 130.85004 163.94182 129.80187 161.90546 129.03318 159.8691 128.4879 157.83274 128.1108 155.79637 127.851657 153.76 127.66676 151.72364 127.51844 149.68727 127.37443 147.65091 127.20782 145.61455 126.997768 143.57819 126.73038 141.54183 126.3991 139.50545 126.00408 137.46909 125.55054 135.43273 125.04664 133.39636 124.50141 131.36 123.92329 129.32364 123.31927 127.28727 122.694538 125.25091 122.05224 123.21455 121.39318 121.178188 120.71566 119.141819 120.01584 117.10545 119.28898 115.06909 118.53159 113.03273 117.74406 110.99636 116.932819 108.96 116.111309 106.92364 115.29899 104.887279 114.518459 102.85091 113.791378 100.814548 113.134288 98.77818 112.55544 96.74182 112.053508 94.70545 111.61831 92.66909 111.23346 90.63273 110.87988 88.59637 110.53961 86.56 110.19877 84.523639 109.84929 82.487277 109.48916 80.45091 109.12128 78.41454 108.75149 76.37818 108.386287 74.34182 108.03092 72.30546 107.68821 70.26909 107.358158 68.23273 107.03816 66.196369 106.72358 64.16 106.40818 62.123636 106.084529 60.087274 105.74427 58.050909 105.37863 56.014547 104.97929 53.978185 104.53973 51.94182 104.0568 49.905458 103.53226 47.86909 102.97359 45.832727 102.393909 43.796365 101.8108 41.76Z" fill="#8fbfef"/>
<path transform="matrix(1,0,0,-1,0,288)" stroke-width="1.25" stroke-linecap="butt" stroke-linejoin="round" fill="none" stroke="#737373" d="M101.8108 41.76H95.26613L94.683017 43.796365 94.10334 45.832727 93.54466 47.86909 93.02013 49.905458 92.5372 51.94182 92.09763 53.978185 91.698299 56.014547 91.33266 58.050909 90.99239 60.087274 90.66874 62.123636 90.35335 64.16 90.038768 66.196369 89.71877 68.23273 89.38871 70.26909 89.046009 72.30546 88.690639 74.34182 88.32543 76.37818 87.95564 78.41454 87.58777 80.45091 87.22764 82.487277 86.87815 84.523639 86.53731 86.56 86.197048 88.59637 85.84347 90.63273 85.45861 92.66909 85.023418 94.70545 84.52148 96.74182 83.94264 98.77818 83.28555 100.814548 82.55847 102.85091 81.77794 104.887279 80.965618 106.92364 80.14411 108.96 79.33287 110.99636 78.545337 113.03273 77.78795 115.06909 77.06109 117.10545 76.36126 119.141819 75.68374 121.178188 75.02468 123.21455 74.382389 125.25091 73.75766 127.28727 73.15363 129.32364 72.57551 131.36 72.03029 133.39636 71.52638 135.43273 71.072849 137.46909 70.677829 139.50545 70.34654 141.54183 70.07916 143.57819 69.86911 145.61455 69.7025 147.65091 69.55848 149.68727 69.41016 151.72364 69.225269 153.76 68.96613 155.79637 68.58902 157.83274 68.043758 159.8691 67.275058 161.90546 66.22689 163.94182 64.85018 165.97818 63.113035 168.01454 61.011034 170.0509 58.574728 172.08728 55.871507 174.12364 53.000497 176.16 50.081056 178.19637 47.237215 180.23273 44.581529 182.26909 42.201696 184.30545 40.1524 186.34181 38.453329 188.37819 37.09278 190.41455 36.035528 192.45092 35.232824 194.48728 34.63281 196.52364 34.189435 198.56 33.86858 200.59636 33.650499 202.63272 33.528337 204.6691 33.503499 206.70546 33.57938 208.74182 33.755628 210.77819 34.024938 212.81455 34.373888 214.8509 34.787984 216.88727 35.259923 218.92363 35.79905 220.96 36.43945 222.99637 37.24425 225.03273 38.30419 227.06909 39.72955 229.10546 41.635736 231.14182 44.12405 233.17818 47.26063 235.21454 51.05749 237.25092 55.460023 239.28728 60.344629 241.32364 65.528369 243.36H131.54856L136.7323 241.32364 141.6169 239.28728 146.01943 237.25092 149.81629 235.21454 152.95287 233.17818 155.4412 231.14182 157.34737 229.10546 158.77274 227.06909 159.83267 225.03273 160.63747 222.99637 161.27788 220.96 161.817 218.92363 162.28894 216.88727 162.70304 214.8509 163.05199 212.81455 163.3213 210.77819 163.49755 208.74182 163.57343 206.70546 163.54859 204.6691 163.42642 202.63272 163.20835 200.59636 162.88748 198.56 162.4441 196.52364 161.8441 194.48728 161.0414 192.45092 159.98415 190.41455 158.6236 188.37819 156.92453 186.34181 154.87523 184.30545 152.49539 182.26909 149.8397 180.23273 146.99587 178.19637 144.07643 176.16 141.20542 174.12364 138.5022 172.08728 136.06589 170.0509 133.96389 168.01454 132.22675 165.97818 130.85004 163.94182 129.80187 161.90546 129.03318 159.8691 128.4879 157.83274 128.1108 155.79637 127.851657 153.76 127.66676 151.72364 127.51844 149.68727 127.37443 147.65091 127.20782 145.61455 126.997768 143.57819 126.73038 141.54183 126.3991 139.50545 126.00408 137.46909 125.55054 135.43273 125.04664 133.39636 124.50141 131.36 123.92329 129.32364 123.31927 127.28727 122.694538 125.25091 122.05224 123.21455 121.39318 121.178188 120.71566 119.141819 120.01584 117.10545 119.28898 115.06909 118.53159 113.03273 117.74406 110.99636 116.932819 108.96 116.111309 106.92364 115.29899 104.887279 114.518459 102.85091 113.791378 100.814548 113.134288 98.77818 112.55544 96.74182 112.053508 94.70545 111.61831 92.66909 111.23346 90.63273 110.87988 88.59637 110.53961 86.56 110.19877 84.523639 109.84929 82.487277 109.48916 80.45091 109.12128 78.41454 108.75149 76.37818 108.386287 74.34182 108.03092 72.30546 107.68821 70.26909 107.358158 68.23273 107.03816 66.196369 106.72358 64.16 106.40818 62.123636 106.084529 60.087274 105.74427 58.050909 105.37863 56.014547 104.97929 53.978185 104.53973 51.94182 104.0568 49.905458 103.53226 47.86909 102.97359 45.832727 102.393909 43.796365 101.8108 41.76Z"/>
</g>
<path transform="matrix(1,0,0,-1,0,288)" d="M27 55.19999H23.5"/>
<path transform="matrix(1,0,0,-1,0,288)" stroke-width=".8" stroke-linecap="butt" stroke-linejoin="round" fill="none" stroke="#000000" d="M27 55.19999H23.5"/>
<path transform="matrix(.010000001,0,0,-.010000001,13.644531,236.5969)" d="M82 729H551V687L286 0H183L432 646H82V729Z"/>
<g clip-path="url(#clip_1)">
<path transform="matrix(.01,0,0,-.01,5.265625,236.5969)" d="M106 355H732V272H106V355Z"/>
</g>
<path transform="matrix(1,0,0,-1,0,288)" d="M27 82.07996H23.5"/>
<path transform="matrix(1,0,0,-1,0,288)" stroke-width=".8" stroke-linecap="butt" stroke-linejoin="round" fill="none" stroke="#000000" d="M27 82.07996H23.5"/>
<path transform="matrix(.010000001,0,0,-.010000001,13.644531,209.71692)" d="M330 404C286 404 251 388 225 358 199 328 186 286 186 234 186 181 199 139 225 109 251 79 286 64 330 64 374 64 409 79 435 109 461 139 474 181 474 234 474 286 461 328 435 358 409 388 374 404 330 404ZM526 713V623C501 635 476 644 451 650 425 656 400 659 376 659 310 659 260 637 226 593 192 549 172 482 168 394 187 422 211 444 240 459 269 474 301 482 336 482 409 482 467 459 509 415 551 371 573 310 573 234 573 159 550 99 506 54 462 9 403-13 330-13 246-13 181 19 137 83 92 147 70 241 70 364 70 479 97 571 152 639 206 707 280 742 372 742 396 742 421 739 447 735 472 730 498 723 526 713Z"/>
<g clip-path="url(#clip_2)">
<path transform="matrix(.01,0,0,-.01,5.265625,209.71692)" d="M106 355H732V272H106V355Z"/>
</g>
<path transform="matrix(1,0,0,-1,0,288)" d="M27 108.95994H23.5"/>
<path transform="matrix(1,0,0,-1,0,288)" stroke-width=".8" stroke-linecap="butt" stroke-linejoin="round" fill="none" stroke="#000000" d="M27 108.95994H23.5"/>
<path transform="matrix(.010000001,0,0,-.010000001,13.644531,182.83695)" d="M108 729H495V646H198V467C212 472 227 476 241 478 255 480 270 482 284 482 365 482 429 459 477 415 525 370 549 310 549 234 549 155 524 94 475 51 426 8 357-13 269-13 238-13 207-10 175-6 143-1 111 6 77 17V116C106 100 136 88 168 80 199 72 232 69 267 69 323 69 368 83 401 113 433 143 450 183 450 234 450 284 433 324 401 354 368 384 323 399 267 399 241 399 214 396 188 390 162 384 135 375 108 363V729Z"/>
<g clip-path="url(#clip_3)">
<path transform="matrix(.01,0,0,-.01,5.265625,182.83695)" d="M106 355H732V272H106V355Z"/>
</g>
<path transform="matrix(1,0,0,-1,0,288)" d="M27 135.83992H23.5"/>
<path transform="matrix(1,0,0,-1,0,288)" stroke-width=".8" stroke-linecap="butt" stroke-linejoin="round" fill="none" stroke="#000000" d="M27 135.83992H23.5"/>
<path transform="matrix(.010000001,0,0,-.010000001,13.644531,155.95696)" d="M378 643 129 254H378V643ZM352 729H476V254H580V172H476V0H378V172H49V267L352 729Z"/>
<g clip-path="url(#clip_4)">
<path transform="matrix(.01,0,0,-.01,5.265625,155.95696)" d="M106 355H732V272H106V355Z"/>
</g>
<path transform="matrix(1,0,0,-1,0,288)" d="M27 162.7199H23.5"/>
<path transform="matrix(1,0,0,-1,0,288)" stroke-width=".8" stroke-linecap="butt" stroke-linejoin="round" fill="none" stroke="#000000" d="M27 162.7199H23.5"/>
<path transform="matrix(.010000001,0,0,-.010000001,13.644531,129.07698)" d="M406 393C453 383 490 362 516 330 542 298 556 258 556 212 556 140 531 84 482 45 432 6 362-13 271-13 240-13 208-10 176-4 144 1 110 10 76 22V117C103 101 133 89 166 81 198 73 232 69 268 69 330 69 377 81 409 105 441 129 458 165 458 212 458 254 443 288 413 312 383 336 341 349 287 349H202V430H291C339 430 376 439 402 459 428 478 441 506 441 543 441 580 427 609 401 629 374 649 336 659 287 659 260 659 231 656 200 650 169 644 135 635 98 623V711C135 721 170 729 203 734 235 739 266 742 296 742 370 742 429 725 473 691 517 657 539 611 539 553 539 513 527 479 504 451 481 423 448 403 406 393Z"/>
<g clip-path="url(#clip_5)">
<path transform="matrix(.01,0,0,-.01,5.265625,129.07698)" d="M106 355H732V272H106V355Z"/>
</g>
<path transform="matrix(1,0,0,-1,0,288)" d="M27 189.59987H23.5"/>
<path transform="matrix(1,0,0,-1,0,288)" stroke-width=".8" stroke-linecap="butt" stroke-linejoin="round" fill="none" stroke="#000000" d="M27 189.59987H23.5"/>
<path transform="matrix(.010000001,0,0,-.010000001,13.644531,102.19701)" d="M192 83H536V0H73V83C110 121 161 173 226 239 290 304 331 346 348 365 380 400 402 430 414 455 426 479 433 504 433 528 433 566 419 598 392 622 365 646 330 659 286 659 255 659 222 653 188 643 154 632 117 616 78 594V694C118 710 155 722 189 730 223 738 255 742 284 742 359 742 419 723 464 685 509 647 532 597 532 534 532 504 526 475 515 449 504 422 484 390 454 354 446 344 420 317 376 272 332 227 271 164 192 83Z"/>
<g clip-path="url(#clip_6)">
<path transform="matrix(.01,0,0,-.01,5.265625,102.19701)" d="M106 355H732V272H106V355Z"/>
</g>
<path transform="matrix(1,0,0,-1,0,288)" d="M27 216.47985H23.5"/>
<path transform="matrix(1,0,0,-1,0,288)" stroke-width=".8" stroke-linecap="butt" stroke-linejoin="round" fill="none" stroke="#000000" d="M27 216.47985H23.5"/>
<path transform="matrix(.010000001,0,0,-.010000001,13.644531,75.31703)" d="M124 83H285V639L110 604V694L284 729H383V83H544V0H124V83Z"/>
<g clip-path="url(#clip_7)">
<path transform="matrix(.01,0,0,-.01,5.265625,75.31703)" d="M106 355H732V272H106V355Z"/>
</g>
<path transform="matrix(1,0,0,-1,0,288)" d="M27 243.35982H23.5"/>
<path transform="matrix(1,0,0,-1,0,288)" stroke-width=".8" stroke-linecap="butt" stroke-linejoin="round" fill="none" stroke="#000000" d="M27 243.35982H23.5"/>
<path transform="matrix(.010000001,0,0,-.010000001,13.640625,48.437059)" d="M318 664C267 664 229 639 203 589 177 539 165 464 165 364 165 264 177 189 203 139 229 89 267 64 318 64 369 64 407 89 433 139 458 189 471 264 471 364 471 464 458 539 433 589 407 639 369 664 318 664ZM318 742C399 742 461 709 505 645 548 580 570 486 570 364 570 241 548 147 505 83 461 19 399-13 317-13 235-13 173 19 130 83 87 147 66 241 66 364 66 486 87 580 130 645 173 709 236 742 318 742Z"/>
<g clip-path="url(#clip_8)">
<path transform="matrix(1,0,0,-1,0,288)" stroke-width="1.875" stroke-linecap="square" stroke-linejoin="round" fill="none" stroke="#737373" d="M98.53846 49.527788V243.36"/>
</g>
<g clip-path="url(#clip_9)">
<path transform="matrix(1,0,0,-1,0,288)" stroke-width="5.625" stroke-linecap="square" stroke-linejoin="round" fill="none" stroke="#737373" d="M98.53846 149.2799V216.47985"/>
</g>
<g clip-path="url(#clip_10)">
<path transform="matrix(1,0,0,-1,0,288)" stroke-width="1.5" stroke-linecap="square" stroke-linejoin="round" fill="none" stroke="#737373" d="M98.53846 190.94387"/>
<path transform="matrix(1,0,0,-1,0,288)" d="M100.88221 190.94387H96.19471" fill="#ffffff"/>
<path transform="matrix(1,0,0,-1,0,288)" stroke-width="1.125" stroke-linecap="butt" stroke-linejoin="round" fill="none" stroke="#ffffff" d="M100.88221 190.94387H96.19471"/>
</g>
<g clip-path="url(#clip_11)">
<path transform="matrix(1,0,0,-1,0,288)" stroke-width="4" stroke-linecap="round" stroke-linejoin="round" fill="none" stroke="#191919" d="M82.27972 208.41588H114.7972"/>
</g>
<g clip-path="url(#clip_12)">
<path transform="matrix(1,0,0,-1,0,288)" stroke-width="4" stroke-linecap="round" stroke-linejoin="round" fill="none" stroke="#ff6600" d="M82.27972 181.53588H114.7972"/>
</g>
<g clip-path="url(#clip_13)">
<path transform="matrix(1,0,0,-1,0,288)" stroke-width="4" stroke-linecap="round" stroke-linejoin="round" fill="none" stroke="#994dff" d="M82.27972 148.76038H114.7972"/>
</g>
<g clip-path="url(#clip_14)">
<path transform="matrix(1,0,0,-1,0,288)" stroke-width="5.2" stroke-linecap="round" stroke-linejoin="round" fill="none" stroke="#000000" d="M82.27972 190.94387H114.7972"/>
<path transform="matrix(1,0,0,-1,0,288)" stroke-width="4" stroke-linecap="round" stroke-linejoin="round" fill="none" stroke="#ffffff" d="M82.27972 190.94387H114.7972"/>
</g>
<path transform="matrix(1,0,0,-1,0,288)" stroke-width=".8" stroke-linecap="square" stroke-miterlimit="10" stroke-linejoin="miter" fill="none" stroke="#000000" d="M27 31.68V253.44"/>
<path transform="matrix(1,0,0,-1,0,288)" stroke-width=".8" stroke-linecap="square" stroke-miterlimit="10" stroke-linejoin="miter" fill="none" stroke="#000000" d="M194.4 31.68V253.44"/>
<path transform="matrix(1,0,0,-1,0,288)" stroke-width=".8" stroke-linecap="square" stroke-miterlimit="10" stroke-linejoin="miter" fill="none" stroke="#000000" d="M27 31.68H194.4"/>
<path transform="matrix(1,0,0,-1,0,288)" stroke-width=".8" stroke-linecap="square" stroke-miterlimit="10" stroke-linejoin="miter" fill="none" stroke="#000000" d="M27 253.44H194.4"/>
<path transform="matrix(1,0,0,-1,0,288)" stroke-width="5.2" stroke-linecap="square" stroke-linejoin="round" fill="none" stroke="#000000" d="M122.845 105.61325H129.345 135.845"/>
<path transform="matrix(1,0,0,-1,0,288)" stroke-width="4" stroke-linecap="square" stroke-linejoin="round" fill="none" stroke="#ffffff" d="M122.845 105.61325H129.345 135.845"/>
<path transform="matrix(.013,0,0,-.013,139.745,186.93675)" d="M394 662C322 662 265 635 223 582 181 528 160 456 160 364 160 272 181 199 223 146 265 92 322 66 394 66 465 66 522 92 564 146 606 199 627 272 627 364 627 456 606 528 564 582 522 635 465 662 394 662ZM394 742C496 742 577 707 639 639 700 571 731 479 731 364 731 248 700 157 639 89 577 21 496-13 394-13 291-13 209 21 148 89 86 157 56 248 56 364 56 479 86 571 148 639 209 707 291 742 394 742Z"/>
<path transform="matrix(.013,0,0,-.013,149.976,186.93675)" d="M30 547H125L296 88 467 547H562L357 0H235L30 547Z"/>
<path transform="matrix(.013,0,0,-.013,157.672,186.93675)" d="M562 296V252H149C153 190 171 142 205 110 238 78 284 62 344 62 378 62 412 66 444 74 476 82 509 95 541 113V28C509 14 476 3 442-3 408-9 373-13 339-13 251-13 182 12 131 62 80 112 55 181 55 268 55 357 79 428 127 481 175 533 241 560 323 560 397 560 455 536 498 489 540 441 562 377 562 296ZM472 322C471 371 457 410 431 440 404 469 368 484 324 484 274 484 234 469 204 441 174 413 156 373 152 322H472Z"/>
<path transform="matrix(.013,0,0,-.013,165.66699,186.93675)" d="M411 463C401 469 390 473 378 476 366 478 353 480 339 480 288 480 249 463 222 430 194 397 181 350 181 288V0H91V547H181V462C199 495 224 520 254 536 284 552 321 560 365 560 371 560 378 559 386 559 393 558 401 557 411 555V463Z"/>
<path transform="matrix(.013,0,0,-.013,171.01,186.93675)" d="M343 275C270 275 220 266 192 250 164 233 150 205 150 165 150 133 160 107 181 89 202 70 231 61 267 61 317 61 357 78 387 114 417 149 432 196 432 255V275H343ZM522 312V0H432V83C411 49 385 25 355 10 325-5 287-13 243-13 187-13 142 2 109 33 76 64 60 106 60 159 60 220 80 266 122 298 163 329 224 345 306 345H432V354C432 395 418 427 391 450 364 472 326 484 277 484 245 484 215 480 185 472 155 464 127 453 100 439V522C132 534 164 544 195 550 226 556 256 560 286 560 365 560 424 539 463 498 502 457 522 395 522 312Z"/>
<path transform="matrix(.013,0,0,-.013,178.979,186.93675)" d="M94 760H184V0H94V760Z"/>
<path transform="matrix(.013,0,0,-.013,182.59299,186.93675)" d="M94 760H184V0H94V760Z"/>
<path transform="matrix(1,0,0,-1,0,288)" stroke-width="4" stroke-linecap="square" stroke-linejoin="round" fill="none" stroke="#191919" d="M122.845 86.535129H129.345 135.845"/>
<path transform="matrix(.013,0,0,-.013,139.745,206.01488)" d="M378 643 129 254H378V643ZM352 729H476V254H580V172H476V0H378V172H49V267L352 729Z"/>
<path transform="matrix(.013,0,0,-.013,148.013,206.01488)" d=""/>
<path transform="matrix(.013,0,0,-.013,152.147,206.01488)" d="M148 273C148 207 161 155 188 117 215 79 252 61 300 61 348 61 385 79 413 117 440 155 454 207 454 273 454 339 440 390 413 428 385 466 348 485 300 485 252 485 215 466 188 428 161 390 148 339 148 273ZM454 82C435 49 411 25 382 10 353-5 319-13 279-13 213-13 159 13 117 65 75 117 55 187 55 273 55 359 75 428 117 481 159 533 213 560 279 560 319 560 353 552 382 536 411 520 435 496 454 464V547H544V-207H454V82Z"/>
<path transform="matrix(.013,0,0,-.013,160.402,206.01488)" d="M85 216V547H175V219C175 167 185 129 205 103 225 77 255 64 296 64 344 64 383 79 411 110 439 141 453 183 453 237V547H543V0H453V84C431 50 405 26 377 10 348-5 315-13 277-13 214-13 166 6 134 45 101 83 85 140 85 216ZM311 560V560Z"/>
<path transform="matrix(.013,0,0,-.013,168.644,206.01488)" d="M487 273C487 339 473 390 446 428 418 466 381 485 334 485 286 485 249 466 222 428 194 390 181 339 181 273 181 207 194 155 222 117 249 79 286 61 334 61 381 61 418 79 446 117 473 155 487 207 487 273ZM181 464C199 496 223 520 252 536 281 552 316 560 356 560 422 560 476 533 518 481 559 428 580 359 580 273 580 187 559 117 518 65 476 13 422-13 356-13 316-13 281-5 252 10 223 25 199 49 181 82V0H91V760H181V464Z"/>
<path transform="matrix(.013,0,0,-.013,176.899,206.01488)" d="M94 547H184V0H94V547ZM94 760H184V646H94V760Z"/>
<path transform="matrix(.013,0,0,-.013,180.513,206.01488)" d="M183 702V547H368V477H183V180C183 135 189 106 201 94 213 81 238 75 276 75H368V0H276C206 0 158 13 132 39 106 65 93 112 93 180V477H27V547H93V702H183Z"/>
<path transform="matrix(.013,0,0,-.013,185.60901,206.01488)" d="M443 531V446C417 458 391 468 364 475 336 481 308 485 279 485 234 485 200 478 178 464 156 450 145 430 145 403 145 382 153 366 169 354 185 342 217 330 265 320L296 313C360 299 405 279 432 255 458 230 472 195 472 151 472 100 452 60 412 31 372 1 316-13 246-13 216-13 186-10 154-5 122 0 89 8 54 20V113C87 95 120 82 152 74 184 65 216 61 248 61 290 61 323 68 346 82 368 96 380 117 380 144 380 168 371 187 355 200 339 213 303 226 247 238L216 245C160 257 119 275 95 299 70 323 58 356 58 399 58 450 76 490 112 518 148 546 200 560 268 560 301 560 332 557 362 552 391 547 418 540 443 531Z"/>
<path transform="matrix(1,0,0,-1,0,288)" stroke-width="4" stroke-linecap="square" stroke-linejoin="round" fill="none" stroke="#ff6600" d="M122.845 67.457H129.345 135.845"/>
<path transform="matrix(.013,0,0,-.013,139.745,225.093)" d="M330 404C286 404 251 388 225 358 199 328 186 286 186 234 186 181 199 139 225 109 251 79 286 64 330 64 374 64 409 79 435 109 461 139 474 181 474 234 474 286 461 328 435 358 409 388 374 404 330 404ZM526 713V623C501 635 476 644 451 650 425 656 400 659 376 659 310 659 260 637 226 593 192 549 172 482 168 394 187 422 211 444 240 459 269 474 301 482 336 482 409 482 467 459 509 415 551 371 573 310 573 234 573 159 550 99 506 54 462 9 403-13 330-13 246-13 181 19 137 83 92 147 70 241 70 364 70 479 97 571 152 639 206 707 280 742 372 742 396 742 421 739 447 735 472 730 498 723 526 713Z"/>
<path transform="matrix(.013,0,0,-.013,148.013,225.093)" d=""/>
<path transform="matrix(.013,0,0,-.013,152.147,225.093)" d="M148 273C148 207 161 155 188 117 215 79 252 61 300 61 348 61 385 79 413 117 440 155 454 207 454 273 454 339 440 390 413 428 385 466 348 485 300 485 252 485 215 466 188 428 161 390 148 339 148 273ZM454 82C435 49 411 25 382 10 353-5 319-13 279-13 213-13 159 13 117 65 75 117 55 187 55 273 55 359 75 428 117 481 159 533 213 560 279 560 319 560 353 552 382 536 411 520 435 496 454 464V547H544V-207H454V82Z"/>
<path transform="matrix(.013,0,0,-.013,160.402,225.093)" d="M85 216V547H175V219C175 167 185 129 205 103 225 77 255 64 296 64 344 64 383 79 411 110 439 141 453 183 453 237V547H543V0H453V84C431 50 405 26 377 10 348-5 315-13 277-13 214-13 166 6 134 45 101 83 85 140 85 216ZM311 560V560Z"/>
<path transform="matrix(.013,0,0,-.013,168.644,225.093)" d="M487 273C487 339 473 390 446 428 418 466 381 485 334 485 286 485 249 466 222 428 194 390 181 339 181 273 181 207 194 155 222 117 249 79 286 61 334 61 381 61 418 79 446 117 473 155 487 207 487 273ZM181 464C199 496 223 520 252 536 281 552 316 560 356 560 422 560 476 533 518 481 559 428 580 359 580 273 580 187 559 117 518 65 476 13 422-13 356-13 316-13 281-5 252 10 223 25 199 49 181 82V0H91V760H181V464Z"/>
<path transform="matrix(.013,0,0,-.013,176.899,225.093)" d="M94 547H184V0H94V547ZM94 760H184V646H94V760Z"/>
<path transform="matrix(.013,0,0,-.013,180.513,225.093)" d="M183 702V547H368V477H183V180C183 135 189 106 201 94 213 81 238 75 276 75H368V0H276C206 0 158 13 132 39 106 65 93 112 93 180V477H27V547H93V702H183Z"/>
<path transform="matrix(.013,0,0,-.013,185.60901,225.093)" d="M443 531V446C417 458 391 468 364 475 336 481 308 485 279 485 234 485 200 478 178 464 156 450 145 430 145 403 145 382 153 366 169 354 185 342 217 330 265 320L296 313C360 299 405 279 432 255 458 230 472 195 472 151 472 100 452 60 412 31 372 1 316-13 246-13 216-13 186-10 154-5 122 0 89 8 54 20V113C87 95 120 82 152 74 184 65 216 61 248 61 290 61 323 68 346 82 368 96 380 117 380 144 380 168 371 187 355 200 339 213 303 226 247 238L216 245C160 257 119 275 95 299 70 323 58 356 58 399 58 450 76 490 112 518 148 546 200 560 268 560 301 560 332 557 362 552 391 547 418 540 443 531Z"/>
<path transform="matrix(1,0,0,-1,0,288)" stroke-width="4" stroke-linecap="square" stroke-linejoin="round" fill="none" stroke="#994dff" d="M122.845 48.378877H129.345 135.845"/>
<path transform="matrix(.013,0,0,-.013,139.745,244.17113)" d="M318 346C271 346 234 333 207 308 180 283 167 249 167 205 167 161 180 126 207 101 234 76 271 64 318 64 364 64 401 76 428 102 455 127 469 161 469 205 469 249 455 283 429 308 402 333 365 346 318 346ZM219 388C177 398 144 418 120 447 96 476 85 511 85 553 85 611 105 657 147 691 188 725 245 742 318 742 390 742 447 725 489 691 530 657 551 611 551 553 551 511 539 476 515 447 491 418 459 398 417 388 464 377 501 355 528 323 554 291 568 251 568 205 568 134 546 80 503 43 459 5 397-13 317-13 237-13 175 5 132 43 89 80 68 134 68 205 68 251 81 291 108 323 134 355 171 377 219 388ZM183 544C183 506 194 476 218 455 242 434 275 424 318 424 360 424 393 434 417 455 441 476 453 506 453 544 453 582 441 611 417 632 393 653 360 664 318 664 275 664 242 653 218 632 194 611 183 582 183 544Z"/>
<path transform="matrix(.013,0,0,-.013,148.013,244.17113)" d=""/>
<path transform="matrix(.013,0,0,-.013,152.147,244.17113)" d="M148 273C148 207 161 155 188 117 215 79 252 61 300 61 348 61 385 79 413 117 440 155 454 207 454 273 454 339 440 390 413 428 385 466 348 485 300 485 252 485 215 466 188 428 161 390 148 339 148 273ZM454 82C435 49 411 25 382 10 353-5 319-13 279-13 213-13 159 13 117 65 75 117 55 187 55 273 55 359 75 428 117 481 159 533 213 560 279 560 319 560 353 552 382 536 411 520 435 496 454 464V547H544V-207H454V82Z"/>
<path transform="matrix(.013,0,0,-.013,160.402,244.17113)" d="M85 216V547H175V219C175 167 185 129 205 103 225 77 255 64 296 64 344 64 383 79 411 110 439 141 453 183 453 237V547H543V0H453V84C431 50 405 26 377 10 348-5 315-13 277-13 214-13 166 6 134 45 101 83 85 140 85 216ZM311 560V560Z"/>
<path transform="matrix(.013,0,0,-.013,168.644,244.17113)" d="M487 273C487 339 473 390 446 428 418 466 381 485 334 485 286 485 249 466 222 428 194 390 181 339 181 273 181 207 194 155 222 117 249 79 286 61 334 61 381 61 418 79 446 117 473 155 487 207 487 273ZM181 464C199 496 223 520 252 536 281 552 316 560 356 560 422 560 476 533 518 481 559 428 580 359 580 273 580 187 559 117 518 65 476 13 422-13 356-13 316-13 281-5 252 10 223 25 199 49 181 82V0H91V760H181V464Z"/>
<path transform="matrix(.013,0,0,-.013,176.899,244.17113)" d="M94 547H184V0H94V547ZM94 760H184V646H94V760Z"/>
<path transform="matrix(.013,0,0,-.013,180.513,244.17113)" d="M183 702V547H368V477H183V180C183 135 189 106 201 94 213 81 238 75 276 75H368V0H276C206 0 158 13 132 39 106 65 93 112 93 180V477H27V547H93V702H183Z"/>
<path transform="matrix(.013,0,0,-.013,185.60901,244.17113)" d="M443 531V446C417 458 391 468 364 475 336 481 308 485 279 485 234 485 200 478 178 464 156 450 145 430 145 403 145 382 153 366 169 354 185 342 217 330 265 320L296 313C360 299 405 279 432 255 458 230 472 195 472 151 472 100 452 60 412 31 372 1 316-13 246-13 216-13 186-10 154-5 122 0 89 8 54 20V113C87 95 120 82 152 74 184 65 216 61 248 61 290 61 323 68 346 82 368 96 380 117 380 144 380 168 371 187 355 200 339 213 303 226 247 238L216 245C160 257 119 275 95 299 70 323 58 356 58 399 58 450 76 490 112 518 148 546 200 560 268 560 301 560 332 557 362 552 391 547 418 540 443 531Z"/>
</svg>
