<svg xmlns="http://www.w3.org/2000/svg" xmlns:xlink="http://www.w3.org/1999/xlink" xmlns:inkscape="http://www.inkscape.org/namespaces/inkscape" version="1.1" width="216" height="288" viewBox="0 0 216 288">
<defs>
<clipPath id="clip_0">
<path transform="matrix(1,0,0,-1,0,288)" d="M27 31.68H194.4V253.44H27Z"/>
</clipPath>
<clipPath id="clip_1">
<path transform="matrix(.01,0,0,-.01,-4.28125,259.878)" d="M-1021-463H1794V1233H-1021Z"/>
</clipPath>
<clipPath id="clip_2">
<path transform="matrix(.01,0,0,-.01,-4.28125,228.52646)" d="M-1021-463H1794V1233H-1021Z"/>
</clipPath>
<clipPath id="clip_3">
<path transform="matrix(.01,0,0,-.01,-4.28125,197.17494)" d="M-1021-463H1794V1233H-1021Z"/>
</clipPath>
<clipPath id="clip_4">
<path transform="matrix(.01,0,0,-.01,-4.28125,165.82343)" d="M-1021-463H1794V1233H-1021Z"/>
</clipPath>
<clipPath id="clip_5">
<path transform="matrix(.01,0,0,-.01,-4.28125,134.4719)" d="M-1021-463H1794V1233H-1021Z"/>
</clipPath>
<clipPath id="clip_6">
<path transform="matrix(.01,0,0,-.01,-4.28125,103.12038)" d="M-1021-463H1794V1233H-1021Z"/>
</clipPath>
<clipPath id="clip_7">
<path transform="matrix(1,0,0,-1,0,288)" d="M27 31.68H194.4V253.44H27Z"/>
</clipPath>
<clipPath id="clip_8">
<path transform="matrix(1,0,0,-1,0,288)" d="M27 31.68H194.4V253.44H27Z"/>
</clipPath>
<clipPath id="clip_9">
<path transform="matrix(1,0,0,-1,0,288)" d="M27 31.68H194.4V253.44H27Z"/>
</clipPath>
<clipPath id="clip_10">
<path transform="matrix(1,0,0,-1,0,288)" d="M27 31.68H194.4V253.44H27Z"/>
</clipPath>
</defs>
<path transform="matrix(1,0,0,-1,0,288)" d="M0 0H216V288H0Z" fill="#ffffff"/>
<path transform="matrix(1,0,0,-1,0,288)" d="M27 31.68H194.4V253.44H27Z" fill="#ffffff"/>
<g clip-path="url(#clip_0)">
<path transform="matrix(1,0,0,-1,0,288)" d="M118.289348 41.76H78.78758L76.07647 43.796365 73.350788 45.832727 70.579 47.86909 67.69413 49.905458 64.60706 51.94182 61.229959 53.978185 57.50674 56.014547 53.444986 58.050909 49.141878 60.087274 44.796365 62.123636 40.70145 64.16 37.214139 66.196369 34.706117 68.23273 33.503499 70.26909 33.828058 72.30546 35.753248 74.34182 39.185499 76.37818 43.875528 78.41454 49.457094 80.45091 55.50413 82.487277 61.593416 84.523639 67.3598 86.56 72.53424 88.59637 76.96002 90.63273 80.588199 92.66909 83.457439 94.70545 85.665508 96.74182 87.33965 98.77818 88.61134 100.814548 89.59831 102.85091 90.3948 104.887279 91.068569 106.92364 91.663028 108.96 92.20197 110.99636 92.69532 113.03273 93.144397 115.06909 93.54628 117.10545 93.897029 119.141819 94.19382 121.178188 94.43635 123.21455 94.62758 125.25091 94.77392 127.28727 94.884899 129.32364 94.972179 131.36 95.048168 133.39636 95.124309 135.43273 95.20942 137.46909 95.30864 139.50545 95.42306 141.54183 95.55035 143.57819 95.68609 145.61455 95.82548 147.65091 95.96475 149.68727 96.10205 151.72364 96.2374 153.76 96.37192 155.79637 96.50679 157.83274 96.64219 159.8691 96.77684 161.90546 96.908267 163.94182 97.03352 165.97818 97.150249 168.01454 97.257389 170.0509 97.35549 172.08728 97.4463 174.12364 97.53187 176.16 97.6135 178.19637 97.69097 180.23273 97.762187 182.26909 97.82354 184.30545 97.87087 186.34181 97.90068 188.37819 97.91129 190.41455 97.90375 192.45092 97.882 194.48728 97.852558 196.52364 97.82342 198.56 97.80275 200.59636 97.79742 202.63272 97.81185 204.6691 97.84729 206.70546 97.90175 208.74182 97.97045 210.77819 98.046749 212.81455 98.12315 214.8509 98.192378 216.88727 98.248088 218.92363 98.285449 220.96 98.30135 222.99637 98.29452 225.03273 98.26553 227.06909 98.21683 229.10546 98.15264 231.14182 98.078929 233.17818 98.00291 235.21454 97.93253 237.25092 97.87555 239.28728 97.838527 241.32364 97.825908 243.36H99.251018L99.2384 241.32364 99.20138 239.28728 99.14439 237.25092 99.07401 235.21454 98.998 233.17818 98.92428 231.14182 98.8601 229.10546 98.811389 227.06909 98.7824 225.03273 98.77557 222.99637 98.79147 220.96 98.828838 218.92363 98.884548 216.88727 98.953769 214.8509 99.030178 212.81455 99.106479 210.77819 99.17518 208.74182 99.22963 206.70546 99.265079 204.6691 99.2795 202.63272 99.27418 200.59636 99.2535 198.56 99.224369 196.52364 99.19492 194.48728 99.17318 192.45092 99.16563 190.41455 99.17625 188.37819 99.20605 186.34181 99.25339 184.30545 99.31474 182.26909 99.38595 180.23273 99.46342 178.19637 99.54506 176.16 99.63062 174.12364 99.721439 172.08728 99.81954 170.0509 99.926677 168.01454 100.043399 165.97818 100.168659 163.94182 100.30008 161.90546 100.43474 159.8691 100.57013 157.83274 100.705 155.79637 100.83953 153.76 100.97487 151.72364 101.11217 149.68727 101.25144 147.65091 101.39083 145.61455 101.52658 143.57819 101.65387 141.54183 101.76829 139.50545 101.8675 137.46909 101.95262 135.43273 102.028759 133.39636 102.10475 131.36 102.19203 129.32364 102.303 127.28727 102.44935 125.25091 102.64057 123.21455 102.8831 121.178188 103.17989 119.141819 103.53065 117.10545 103.932529 115.06909 104.3816 113.03273 104.87495 110.99636 105.4139 108.96 106.008358 106.92364 106.68213 104.887279 107.47861 102.85091 108.46558 100.814548 109.73727 98.77818 111.41142 96.74182 113.61949 94.70545 116.48872 92.66909 120.116909 90.63273 124.54268 88.59637 129.71712 86.56 135.4835 84.523639 141.5728 82.487277 147.61983 80.45091 153.2014 78.41454 157.89142 76.37818 161.32367 74.34182 163.24887 72.30546 163.57343 70.26909 162.3708 68.23273 159.86278 66.196369 156.37548 64.16 152.28057 62.123636 147.93505 60.087274 143.63195 58.050909 139.57019 56.014547 135.84697 53.978185 132.46987 51.94182 129.3828 49.905458 126.497928 47.86909 123.72614 45.832727 121.00045 43.796365 118.289348 41.76Z" fill="#8fbfef"/>
<path transform="matrix(1,0,0,-1,0,288)" stroke-width="1.25" stroke-linecap="butt" stroke-linejoin="round" fill="none" stroke="#737373" d="M118.289348 41.76H78.78758L76.07647 43.796365 73.350788 45.832727 70.579 47.86909 67.69413 49.905458 64.60706 51.94182 61.229959 53.978185 57.50674 56.014547 53.444986 58.050909 49.141878 60.087274 44.796365 62.123636 40.70145 64.16 37.214139 66.196369 34.706117 68.23273 33.503499 70.26909 33.828058 72.30546 35.753248 74.34182 39.185499 76.37818 43.875528 78.41454 49.457094 80.45091 55.50413 82.487277 61.593416 84.523639 67.3598 86.56 72.53424 88.59637 76.96002 90.63273 80.588199 92.66909 83.457439 94.70545 85.665508 96.74182 87.33965 98.77818 88.61134 100.814548 89.59831 102.85091 90.3948 104.887279 91.068569 106.92364 91.663028 108.96 92.20197 110.99636 92.69532 113.03273 93.144397 115.06909 93.54628 117.10545 93.897029 119.141819 94.19382 121.178188 94.43635 123.21455 94.62758 125.25091 94.77392 127.28727 94.884899 129.32364 94.972179 131.36 95.048168 133.39636 95.124309 135.43273 95.20942 137.46909 95.30864 139.50545 95.42306 141.54183 95.55035 143.57819 95.68609 145.61455 95.82548 147.65091 95.96475 149.68727 96.10205 151.72364 96.2374 153.76 96.37192 155.79637 96.50679 157.83274 96.64219 159.8691 96.77684 161.90546 96.908267 163.94182 97.03352 165.97818 97.150249 168.01454 97.257389 170.0509 97.35549 172.08728 97.4463 174.12364 97.53187 176.16 97.6135 178.19637 97.69097 180.23273 97.762187 182.26909 97.82354 184.30545 97.87087 186.34181 97.90068 188.37819 97.91129 190.41455 97.90375 192.45092 97.882 194.48728 97.852558 196.52364 97.82342 198.56 97.80275 200.59636 97.79742 202.63272 97.81185 204.6691 97.84729 206.70546 97.90175 208.74182 97.97045 210.77819 98.046749 212.81455 98.12315 214.8509 98.192378 216.88727 98.248088 218.92363 98.285449 220.96 98.30135 222.99637 98.29452 225.03273 98.26553 227.06909 98.21683 229.10546 98.15264 231.14182 98.078929 233.17818 98.00291 235.21454 97.93253 237.25092 97.87555 239.28728 97.838527 241.32364 97.825908 243.36H99.251018L99.2384 241.32364 99.20138 239.28728 99.14439 237.25092 99.07401 235.21454 98.998 233.17818 98.92428 231.14182 98.8601 229.10546 98.811389 227.06909 98.7824 225.03273 98.77557 222.99637 98.79147 220.96 98.828838 218.92363 98.884548 216.88727 98.953769 214.8509 99.030178 212.81455 99.106479 210.77819 99.17518 208.74182 99.22963 206.70546 99.265079 204.6691 99.2795 202.63272 99.27418 200.59636 99.2535 198.56 99.224369 196.52364 99.19492 194.48728 99.17318 192.45092 99.16563 190.41455 99.17625 188.37819 99.20605 186.34181 99.25339 184.30545 99.31474 182.26909 99.38595 180.23273 99.46342 178.19637 99.54506 176.16 99.63062 174.12364 99.721439 172.08728 99.81954 170.0509 99.926677 168.01454 100.043399 165.97818 100.168659 163.94182 100.30008 161.90546 100.43474 159.8691 100.57013 157.83274 100.705 155.79637 100.83953 153.76 100.97487 151.72364 101.11217 149.68727 101.25144 147.65091 101.39083 145.61455 101.52658 143.57819 101.65387 141.54183 101.76829 139.50545 101.8675 137.46909 101.95262 135.43273 102.028759 133.39636 102.10475 131.36 102.19203 129.32364 102.303 127.28727 102.44935 125.25091 102.64057 123.21455 102.8831 121.178188 103.17989 119.141819 103.53065 117.10545 103.932529 115.06909 104.3816 113.03273 104.87495 110.99636 105.4139 108.96 106.008358 106.92364 106.68213 104.887279 107.47861 102.85091 108.46558 100.814548 109.73727 98.77818 111.41142 96.74182 113.61949 94.70545 116.48872 92.66909 120.116909 90.63273 124.54268 88.59637 129.71712 86.56 135.4835 84.523639 141.5728 82.487277 147.61983 80.45091 153.2014 78.41454 157.89142 76.37818 161.32367 74.34182 163.24887 72.30546 163.57343 70.26909 162.3708 68.23273 159.86278 66.196369 156.37548 64.16 152.28057 62.123636 147.93505 60.087274 143.63195 58.050909 139.57019 56.014547 135.84697 53.978185 132.46987 51.94182 129.3828 49.905458 126.497928 47.86909 123.72614 45.832727 121.00045 43.796365 118.289348 41.76Z"/>
</g>
<path transform="matrix(1,0,0,-1,0,288)" d="M27 31.918892H23.5"/>
<path transform="matrix(1,0,0,-1,0,288)" stroke-width=".8" stroke-linecap="butt" stroke-linejoin="round" fill="none" stroke="#000000" d="M27 31.918892H23.5"/>
<path transform="matrix(.010000001,0,0,-.010000001,4.0976564,259.878)" d="M124 83H285V639L110 604V694L284 729H383V83H544V0H124V83Z"/>
<path transform="matrix(.010000001,0,0,-.010000001,10.457657,259.878)" d="M107 124H210V0H107V124Z"/>
<path transform="matrix(.010000001,0,0,-.010000001,13.637657,259.878)" d="M192 83H536V0H73V83C110 121 161 173 226 239 290 304 331 346 348 365 380 400 402 430 414 455 426 479 433 504 433 528 433 566 419 598 392 622 365 646 330 659 286 659 255 659 222 653 188 643 154 632 117 616 78 594V694C118 710 155 722 189 730 223 738 255 742 284 742 359 742 419 723 464 685 509 647 532 597 532 534 532 504 526 475 515 449 504 422 484 390 454 354 446 344 420 317 376 272 332 227 271 164 192 83Z"/>
<g clip-path="url(#clip_1)">
<path transform="matrix(.01,0,0,-.01,-4.28125,259.878)" d="M106 355H732V272H106V355Z"/>
</g>
<path transform="matrix(1,0,0,-1,0,288)" d="M27 63.270414H23.5"/>
<path transform="matrix(1,0,0,-1,0,288)" stroke-width=".8" stroke-linecap="butt" stroke-linejoin="round" fill="none" stroke="#000000" d="M27 63.270414H23.5"/>
<path transform="matrix(.010000001,0,0,-.010000001,4.0976564,228.52646)" d="M124 83H285V639L110 604V694L284 729H383V83H544V0H124V83Z"/>
<path transform="matrix(.010000001,0,0,-.010000001,10.457657,228.52646)" d="M107 124H210V0H107V124Z"/>
<path transform="matrix(.010000001,0,0,-.010000001,13.637657,228.52646)" d="M318 664C267 664 229 639 203 589 177 539 165 464 165 364 165 264 177 189 203 139 229 89 267 64 318 64 369 64 407 89 433 139 458 189 471 264 471 364 471 464 458 539 433 589 407 639 369 664 318 664ZM318 742C399 742 461 709 505 645 548 580 570 486 570 364 570 241 548 147 505 83 461 19 399-13 317-13 235-13 173 19 130 83 87 147 66 241 66 364 66 486 87 580 130 645 173 709 236 742 318 742Z"/>
<g clip-path="url(#clip_2)">
<path transform="matrix(.01,0,0,-.01,-4.28125,228.52646)" d="M106 355H732V272H106V355Z"/>
</g>
<path transform="matrix(1,0,0,-1,0,288)" d="M27 94.62193H23.5"/>
<path transform="matrix(1,0,0,-1,0,288)" stroke-width=".8" stroke-linecap="butt" stroke-linejoin="round" fill="none" stroke="#000000" d="M27 94.62193H23.5"/>
<path transform="matrix(.010000001,0,0,-.010000001,4.0976564,197.17494)" d="M318 664C267 664 229 639 203 589 177 539 165 464 165 364 165 264 177 189 203 139 229 89 267 64 318 64 369 64 407 89 433 139 458 189 471 264 471 364 471 464 458 539 433 589 407 639 369 664 318 664ZM318 742C399 742 461 709 505 645 548 580 570 486 570 364 570 241 548 147 505 83 461 19 399-13 317-13 235-13 173 19 130 83 87 147 66 241 66 364 66 486 87 580 130 645 173 709 236 742 318 742Z"/>
<path transform="matrix(.010000001,0,0,-.010000001,10.457657,197.17494)" d="M107 124H210V0H107V124Z"/>
<path transform="matrix(.010000001,0,0,-.010000001,13.637657,197.17494)" d="M318 346C271 346 234 333 207 308 180 283 167 249 167 205 167 161 180 126 207 101 234 76 271 64 318 64 364 64 401 76 428 102 455 127 469 161 469 205 469 249 455 283 429 308 402 333 365 346 318 346ZM219 388C177 398 144 418 120 447 96 476 85 511 85 553 85 611 105 657 147 691 188 725 245 742 318 742 390 742 447 725 489 691 530 657 551 611 551 553 551 511 539 476 515 447 491 418 459 398 417 388 464 377 501 355 528 323 554 291 568 251 568 205 568 134 546 80 503 43 459 5 397-13 317-13 237-13 175 5 132 43 89 80 68 134 68 205 68 251 81 291 108 323 134 355 171 377 219 388ZM183 544C183 506 194 476 218 455 242 434 275 424 318 424 360 424 393 434 417 455 441 476 453 506 453 544 453 582 441 611 417 632 393 653 360 664 318 664 275 664 242 653 218 632 194 611 183 582 183 544Z"/>
<g clip-path="url(#clip_3)">
<path transform="matrix(.01,0,0,-.01,-4.28125,197.17494)" d="M106 355H732V272H106V355Z"/>
</g>
<path transform="matrix(1,0,0,-1,0,288)" d="M27 125.97346H23.5"/>
<path transform="matrix(1,0,0,-1,0,288)" stroke-width=".8" stroke-linecap="butt" stroke-linejoin="round" fill="none" stroke="#000000" d="M27 125.97346H23.5"/>
<path transform="matrix(.010000001,0,0,-.010000001,4.0976564,165.82343)" d="M318 664C267 664 229 639 203 589 177 539 165 464 165 364 165 264 177 189 203 139 229 89 267 64 318 64 369 64 407 89 433 139 458 189 471 264 471 364 471 464 458 539 433 589 407 639 369 664 318 664ZM318 742C399 742 461 709 505 645 548 580 570 486 570 364 570 241 548 147 505 83 461 19 399-13 317-13 235-13 173 19 130 83 87 147 66 241 66 364 66 486 87 580 130 645 173 709 236 742 318 742Z"/>
<path transform="matrix(.010000001,0,0,-.010000001,10.457657,165.82343)" d="M107 124H210V0H107V124Z"/>
<path transform="matrix(.010000001,0,0,-.010000001,13.637657,165.82343)" d="M330 404C286 404 251 388 225 358 199 328 186 286 186 234 186 181 199 139 225 109 251 79 286 64 330 64 374 64 409 79 435 109 461 139 474 181 474 234 474 286 461 328 435 358 409 388 374 404 330 404ZM526 713V623C501 635 476 644 451 650 425 656 400 659 376 659 310 659 260 637 226 593 192 549 172 482 168 394 187 422 211 444 240 459 269 474 301 482 336 482 409 482 467 459 509 415 551 371 573 310 573 234 573 159 550 99 506 54 462 9 403-13 330-13 246-13 181 19 137 83 92 147 70 241 70 364 70 479 97 571 152 639 206 707 280 742 372 742 396 742 421 739 447 735 472 730 498 723 526 713Z"/>
<g clip-path="url(#clip_4)">
<path transform="matrix(.01,0,0,-.01,-4.28125,165.82343)" d="M106 355H732V272H106V355Z"/>
</g>
<path transform="matrix(1,0,0,-1,0,288)" d="M27 157.32498H23.5"/>
<path transform="matrix(1,0,0,-1,0,288)" stroke-width=".8" stroke-linecap="butt" stroke-linejoin="round" fill="none" stroke="#000000" d="M27 157.32498H23.5"/>
<path transform="matrix(.010000001,0,0,-.010000001,4.0976564,134.4719)" d="M318 664C267 664 229 639 203 589 177 539 165 464 165 364 165 264 177 189 203 139 229 89 267 64 318 64 369 64 407 89 433 139 458 189 471 264 471 364 471 464 458 539 433 589 407 639 369 664 318 664ZM318 742C399 742 461 709 505 645 548 580 570 486 570 364 570 241 548 147 505 83 461 19 399-13 317-13 235-13 173 19 130 83 87 147 66 241 66 364 66 486 87 580 130 645 173 709 236 742 318 742Z"/>
<path transform="matrix(.010000001,0,0,-.010000001,10.457657,134.4719)" d="M107 124H210V0H107V124Z"/>
<path transform="matrix(.010000001,0,0,-.010000001,13.637657,134.4719)" d="M378 643 129 254H378V643ZM352 729H476V254H580V172H476V0H378V172H49V267L352 729Z"/>
<g clip-path="url(#clip_5)">
<path transform="matrix(.01,0,0,-.01,-4.28125,134.4719)" d="M106 355H732V272H106V355Z"/>
</g>
<path transform="matrix(1,0,0,-1,0,288)" d="M27 188.6765H23.5"/>
<path transform="matrix(1,0,0,-1,0,288)" stroke-width=".8" stroke-linecap="butt" stroke-linejoin="round" fill="none" stroke="#000000" d="M27 188.6765H23.5"/>
<path transform="matrix(.010000001,0,0,-.010000001,4.0976564,103.12038)" d="M318 664C267 664 229 639 203 589 177 539 165 464 165 364 165 264 177 189 203 139 229 89 267 64 318 64 369 64 407 89 433 139 458 189 471 264 471 364 471 464 458 539 433 589 407 639 369 664 318 664ZM318 742C399 742 461 709 505 645 548 580 570 486 570 364 570 241 548 147 505 83 461 19 399-13 317-13 235-13 173 19 130 83 87 147 66 241 66 364 66 486 87 580 130 645 173 709 236 742 318 742Z"/>
<path transform="matrix(.010000001,0,0,-.010000001,10.457657,103.12038)" d="M107 124H210V0H107V124Z"/>
<path transform="matrix(.010000001,0,0,-.010000001,13.637657,103.12038)" d="M192 83H536V0H73V83C110 121 161 173 226 239 290 304 331 346 348 365 380 400 402 430 414 455 426 479 433 504 433 528 433 566 419 598 392 622 365 646 330 659 286 659 255 659 222 653 188 643 154 632 117 616 78 594V694C118 710 155 722 189 730 223 738 255 742 284 742 359 742 419 723 464 685 509 647 532 597 532 534 532 504 526 475 515 449 504 422 484 390 454 354 446 344 420 317 376 272 332 227 271 164 192 83Z"/>
<g clip-path="url(#clip_6)">
<path transform="matrix(.01,0,0,-.01,-4.28125,103.12038)" d="M106 355H732V272H106V355Z"/>
</g>
<path transform="matrix(1,0,0,-1,0,288)" d="M27 220.02802H23.5"/>
<path transform="matrix(1,0,0,-1,0,288)" stroke-width=".8" stroke-linecap="butt" stroke-linejoin="round" fill="none" stroke="#000000" d="M27 220.02802H23.5"/>
<path transform="matrix(.010000001,0,0,-.010000001,4.09375,71.76886)" d="M318 664C267 664 229 639 203 589 177 539 165 464 165 364 165 264 177 189 203 139 229 89 267 64 318 64 369 64 407 89 433 139 458 189 471 264 471 364 471 464 458 539 433 589 407 639 369 664 318 664ZM318 742C399 742 461 709 505 645 548 580 570 486 570 364 570 241 548 147 505 83 461 19 399-13 317-13 235-13 173 19 130 83 87 147 66 241 66 364 66 486 87 580 130 645 173 709 236 742 318 742Z"/>
<path transform="matrix(.010000001,0,0,-.010000001,10.453751,71.76886)" d="M107 124H210V0H107V124Z"/>
<path transform="matrix(.010000001,0,0,-.010000001,13.633751,71.76886)" d="M318 664C267 664 229 639 203 589 177 539 165 464 165 364 165 264 177 189 203 139 229 89 267 64 318 64 369 64 407 89 433 139 458 189 471 264 471 364 471 464 458 539 433 589 407 639 369 664 318 664ZM318 742C399 742 461 709 505 645 548 580 570 486 570 364 570 241 548 147 505 83 461 19 399-13 317-13 235-13 173 19 130 83 87 147 66 241 66 364 66 486 87 580 130 645 173 709 236 742 318 742Z"/>
<path transform="matrix(1,0,0,-1,0,288)" d="M27 251.37955H23.5"/>
<path transform="matrix(1,0,0,-1,0,288)" stroke-width=".8" stroke-linecap="butt" stroke-linejoin="round" fill="none" stroke="#000000" d="M27 251.37955H23.5"/>
<path transform="matrix(.010000001,0,0,-.010000001,4.09375,40.417329)" d="M318 664C267 664 229 639 203 589 177 539 165 464 165 364 165 264 177 189 203 139 229 89 267 64 318 64 369 64 407 89 433 139 458 189 471 264 471 364 471 464 458 539 433 589 407 639 369 664 318 664ZM318 742C399 742 461 709 505 645 548 580 570 486 570 364 570 241 548 147 505 83 461 19 399-13 317-13 235-13 173 19 130 83 87 147 66 241 66 364 66 486 87 580 130 645 173 709 236 742 318 742Z"/>
<path transform="matrix(.010000001,0,0,-.010000001,10.453751,40.417329)" d="M107 124H210V0H107V124Z"/>
<path transform="matrix(.010000001,0,0,-.010000001,13.633751,40.417329)" d="M192 83H536V0H73V83C110 121 161 173 226 239 290 304 331 346 348 365 380 400 402 430 414 455 426 479 433 504 433 528 433 566 419 598 392 622 365 646 330 659 286 659 255 659 222 653 188 643 154 632 117 616 78 594V694C118 710 155 722 189 730 223 738 255 742 284 742 359 742 419 723 464 685 509 647 532 597 532 534 532 504 526 475 515 449 504 422 484 390 454 354 446 344 420 317 376 272 332 227 271 164 192 83Z"/>
<g clip-path="url(#clip_7)">
<path transform="matrix(1,0,0,-1,0,288)" stroke-width="1.875" stroke-linecap="square" stroke-linejoin="round" fill="none" stroke="#737373" d="M98.53846 44.910699V86.7284"/>
</g>
<g clip-path="url(#clip_8)">
<path transform="matrix(1,0,0,-1,0,288)" stroke-width="5.625" stroke-linecap="square" stroke-linejoin="round" fill="none" stroke="#737373" d="M98.53846 62.070528V74.34337"/>
</g>
<g clip-path="url(#clip_9)">
<path transform="matrix(1,0,0,-1,0,288)" stroke-width="1.5" stroke-linecap="square" stroke-linejoin="round" fill="none" stroke="#737373" d="M98.53846 72.09984"/>
<path transform="matrix(1,0,0,-1,0,288)" d="M100.88221 72.09984H96.19471" fill="#ffffff"/>
<path transform="matrix(1,0,0,-1,0,288)" stroke-width="1.125" stroke-linecap="butt" stroke-linejoin="round" fill="none" stroke="#ffffff" d="M100.88221 72.09984H96.19471"/>
</g>
<g clip-path="url(#clip_10)">
<path transform="matrix(1,0,0,-1,0,288)" stroke-width="5.2" stroke-linecap="round" stroke-linejoin="round" fill="none" stroke="#000000" d="M82.27972 72.09984H114.7972"/>
<path transform="matrix(1,0,0,-1,0,288)" stroke-width="4" stroke-linecap="round" stroke-linejoin="round" fill="none" stroke="#ffffff" d="M82.27972 72.09984H114.7972"/>
</g>
<path transform="matrix(1,0,0,-1,0,288)" stroke-width=".8" stroke-linecap="square" stroke-miterlimit="10" stroke-linejoin="miter" fill="none" stroke="#000000" d="M27 31.68V253.44"/>
<path transform="matrix(1,0,0,-1,0,288)" stroke-width=".8" stroke-linecap="square" stroke-miterlimit="10" stroke-linejoin="miter" fill="none" stroke="#000000" d="M194.4 31.68V253.44"/>
<path transform="matrix(1,0,0,-1,0,288)" stroke-width=".8" stroke-linecap="square" stroke-miterlimit="10" stroke-linejoin="miter" fill="none" stroke="#000000" d="M27 31.68H194.4"/>
<path transform="matrix(1,0,0,-1,0,288)" stroke-width=".8" stroke-linecap="square" stroke-miterlimit="10" stroke-linejoin="miter" fill="none" stroke="#000000" d="M27 253.44H194.4"/>
<path transform="matrix(1,0,0,-1,0,288)" stroke-width="5.2" stroke-linecap="square" stroke-linejoin="round" fill="none" stroke="#000000" d="M129.01688 161.26486H135.51688 142.01688"/>
<path transform="matrix(1,0,0,-1,0,288)" stroke-width="4" stroke-linecap="square" stroke-linejoin="round" fill="none" stroke="#ffffff" d="M129.01688 161.26486H135.51688 142.01688"/>
<path transform="matrix(.013,0,0,-.013,145.91687,131.28514)" d="M394 662C322 662 265 635 223 582 181 528 160 456 160 364 160 272 181 199 223 146 265 92 322 66 394 66 465 66 522 92 564 146 606 199 627 272 627 364 627 456 606 528 564 582 522 635 465 662 394 662ZM394 742C496 742 577 707 639 639 700 571 731 479 731 364 731 248 700 157 639 89 577 21 496-13 394-13 291-13 209 21 148 89 86 157 56 248 56 364 56 479 86 571 148 639 209 707 291 742 394 742Z"/>
<path transform="matrix(.013,0,0,-.013,156.14788,131.28514)" d="M30 547H125L296 88 467 547H562L357 0H235L30 547Z"/>
<path transform="matrix(.013,0,0,-.013,163.84387,131.28514)" d="M562 296V252H149C153 190 171 142 205 110 238 78 284 62 344 62 378 62 412 66 444 74 476 82 509 95 541 113V28C509 14 476 3 442-3 408-9 373-13 339-13 251-13 182 12 131 62 80 112 55 181 55 268 55 357 79 428 127 481 175 533 241 560 323 560 397 560 455 536 498 489 540 441 562 377 562 296ZM472 322C471 371 457 410 431 440 404 469 368 484 324 484 274 484 234 469 204 441 174 413 156 373 152 322H472Z"/>
<path transform="matrix(.013,0,0,-.013,171.83887,131.28514)" d="M411 463C401 469 390 473 378 476 366 478 353 480 339 480 288 480 249 463 222 430 194 397 181 350 181 288V0H91V547H181V462C199 495 224 520 254 536 284 552 321 560 365 560 371 560 378 559 386 559 393 558 401 557 411 555V463Z"/>
<path transform="matrix(.013,0,0,-.013,177.18187,131.28514)" d="M343 275C270 275 220 266 192 250 164 233 150 205 150 165 150 133 160 107 181 89 202 70 231 61 267 61 317 61 357 78 387 114 417 149 432 196 432 255V275H343ZM522 312V0H432V83C411 49 385 25 355 10 325-5 287-13 243-13 187-13 142 2 109 33 76 64 60 106 60 159 60 220 80 266 122 298 163 329 224 345 306 345H432V354C432 395 418 427 391 450 364 472 326 484 277 484 245 484 215 480 185 472 155 464 127 453 100 439V522C132 534 164 544 195 550 226 556 256 560 286 560 365 560 424 539 463 498 502 457 522 395 522 312Z"/>
<path transform="matrix(.013,0,0,-.013,185.15088,131.28514)" d="M94 760H184V0H94V760Z"/>
<path transform="matrix(.013,0,0,-.013,188.76486,131.28514)" d="M94 760H184V0H94V760Z"/>
</svg>
