<svg xmlns="http://www.w3.org/2000/svg" xmlns:xlink="http://www.w3.org/1999/xlink" xmlns:inkscape="http://www.inkscape.org/namespaces/inkscape" version="1.1" width="216" height="288" viewBox="0 0 216 288">
<defs>
<clipPath id="clip_0">
<path transform="matrix(1,0,0,-1,0,288)" d="M27 31.68H194.4V253.44H27Z"/>
</clipPath>
<clipPath id="clip_1">
<path transform="matrix(.01,0,0,-.01,-10.640625,247.34145)" d="M-1021-463H1794V1233H-1021Z"/>
</clipPath>
<clipPath id="clip_2">
<path transform="matrix(.01,0,0,-.01,-10.640625,219.68564)" d="M-1021-463H1794V1233H-1021Z"/>
</clipPath>
<clipPath id="clip_3">
<path transform="matrix(.01,0,0,-.01,-10.640625,192.02983)" d="M-1021-463H1794V1233H-1021Z"/>
</clipPath>
<clipPath id="clip_4">
<path transform="matrix(.01,0,0,-.01,-10.640625,164.37403)" d="M-1021-463H1794V1233H-1021Z"/>
</clipPath>
<clipPath id="clip_5">
<path transform="matrix(.01,0,0,-.01,-10.640625,136.71822)" d="M-1021-463H1794V1233H-1021Z"/>
</clipPath>
<clipPath id="clip_6">
<path transform="matrix(.01,0,0,-.01,-10.640625,109.06241)" d="M-1021-463H1794V1233H-1021Z"/>
</clipPath>
<clipPath id="clip_7">
<path transform="matrix(.01,0,0,-.01,-10.640625,81.4066)" d="M-1021-463H1794V1233H-1021Z"/>
</clipPath>
<clipPath id="clip_8">
<path transform="matrix(.01,0,0,-.01,-10.640625,53.750795)" d="M-1021-463H1794V1233H-1021Z"/>
</clipPath>
<clipPath id="clip_9">
<path transform="matrix(1,0,0,-1,0,288)" d="M27 31.68H194.4V253.44H27Z"/>
</clipPath>
<clipPath id="clip_10">
<path transform="matrix(1,0,0,-1,0,288)" d="M27 31.68H194.4V253.44H27Z"/>
</clipPath>
<clipPath id="clip_11">
<path transform="matrix(1,0,0,-1,0,288)" d="M27 31.68H194.4V253.44H27Z"/>
</clipPath>
<clipPath id="clip_12">
<path transform="matrix(1,0,0,-1,0,288)" d="M27 31.68H194.4V253.44H27Z"/>
</clipPath>
</defs>
<path transform="matrix(1,0,0,-1,0,288)" d="M0 0H216V288H0Z" fill="#ffffff"/>
<path transform="matrix(1,0,0,-1,0,288)" d="M27 31.68H194.4V253.44H27Z" fill="#ffffff"/>
<g clip-path="url(#clip_0)">
<path transform="matrix(1,0,0,-1,0,288)" d="M163.57343 41.76H33.503499L36.018709 43.796365 44.313829 45.832727 55.984018 47.86909 68.16222 49.905458 78.62315 51.94182 86.32584 53.978185 91.30117 56.014547 94.17687 58.050909 95.704128 60.087274 96.48332 62.123636 96.89274 64.16 97.13015 66.196369 97.28194 68.23273 97.37584 70.26909 97.40772 72.30546 97.34914 74.34182 97.14821 76.37818 96.73811 78.41454 96.06453 80.45091 95.13102 82.487277 94.04165 84.523639 93.006069 86.56 92.283008 88.59637 92.07718 90.63273 92.444988 92.66909 93.26891 94.70545 94.31753 96.74182 95.35108 98.77818 96.20816 100.814548 96.83342 102.85091 97.251438 104.887279 97.52009 106.92364 97.69429 108.96 97.81119 110.99636 97.89137 113.03273 97.94564 115.06909 97.98054 117.10545 98.00104 119.141819 98.01086 121.178188 98.01167 123.21455 98.001979 125.25091 97.97705 127.28727 97.931529 129.32364 97.86473 131.36 97.785999 133.39636 97.7155 135.43273 97.6779 137.46909 97.691219 139.50545 97.75764 141.54183 97.86238 143.57819 97.981128 145.61455 98.09087 147.65091 98.17764 149.68727 98.23794 151.72364 98.27557 153.76 98.29727 155.79637 98.30953 157.83274 98.31727 159.8691 98.323589 161.90546 98.32995 163.94182 98.33667 165.97818 98.34345 168.01454 98.34988 170.0509 98.35569 172.08728 98.36086 174.12364 98.36552 176.16 98.3698 178.19637 98.37386 180.23273 98.377887 182.26909 98.38199 184.30545 98.38631 186.34181 98.39089 188.37819 98.3956 190.41455 98.40007 192.45092 98.40379 194.48728 98.40643 196.52364 98.40805 198.56 98.409 200.59636 98.4096 202.63272 98.41004 204.6691 98.41041 206.70546 98.41088 208.74182 98.41169 210.77819 98.41306 212.81455 98.415187 214.8509 98.418308 216.88727 98.42259 218.92363 98.42769 220.96 98.432529 222.99637 98.435749 225.03273 98.43671 227.06909 98.43603 229.10546 98.435138 231.14182 98.435108 233.17818 98.43596 235.21454 98.43708 237.25092 98.43838 239.28728 98.441028 241.32364 98.44696 243.36H98.62996L98.635898 241.32364 98.63855 239.28728 98.63985 237.25092 98.64096 235.21454 98.641819 233.17818 98.641788 231.14182 98.64089 229.10546 98.64022 227.06909 98.64118 225.03273 98.6444 222.99637 98.64923 220.96 98.654338 218.92363 98.65862 216.88727 98.661739 214.8509 98.66386 212.81455 98.66523 210.77819 98.666049 208.74182 98.66651 206.70546 98.66688 204.6691 98.66732 202.63272 98.66793 200.59636 98.66887 198.56 98.67049 196.52364 98.673137 194.48728 98.67685 192.45092 98.68132 190.41455 98.686038 188.37819 98.69061 186.34181 98.69493 184.30545 98.699039 182.26909 98.70306 180.23273 98.70713 178.19637 98.71141 176.16 98.71606 174.12364 98.72123 172.08728 98.72704 170.0509 98.73347 168.01454 98.74025 165.97818 98.74697 163.94182 98.75334 161.90546 98.75965 159.8691 98.767398 157.83274 98.77965 155.79637 98.801349 153.76 98.83899 151.72364 98.899288 149.68727 98.986049 147.65091 99.095798 145.61455 99.21454 143.57819 99.31928 141.54183 99.38571 139.50545 99.399028 137.46909 99.36142 135.43273 99.290927 133.39636 99.21219 131.36 99.14539 129.32364 99.09988 127.28727 99.07494 125.25091 99.065258 123.21455 99.06607 121.178188 99.07589 119.141819 99.09638 117.10545 99.13129 115.06909 99.18555 113.03273 99.26573 110.99636 99.38264 108.96 99.55683 106.92364 99.825489 104.887279 100.24351 102.85091 100.86877 100.814548 101.72584 98.77818 102.75939 96.74182 103.808017 94.70545 104.631938 92.66909 104.99975 90.63273 104.793918 88.59637 104.070858 86.56 103.03528 84.523639 101.94591 82.487277 101.01239 80.45091 100.338809 78.41454 99.92872 76.37818 99.72778 74.34182 99.669208 72.30546 99.70108 70.26909 99.79498 68.23273 99.94677 66.196369 100.18418 64.16 100.5936 62.123636 101.372798 60.087274 102.900058 58.050909 105.77576 56.014547 110.751079 53.978185 118.45377 51.94182 128.9147 49.905458 141.09291 47.86909 152.76309 45.832727 161.05821 43.796365 163.57343 41.76Z" fill="#8fbfef"/>
<path transform="matrix(1,0,0,-1,0,288)" stroke-width="1.25" stroke-linecap="butt" stroke-linejoin="round" fill="none" stroke="#737373" d="M163.57343 41.76H33.503499L36.018709 43.796365 44.313829 45.832727 55.984018 47.86909 68.16222 49.905458 78.62315 51.94182 86.32584 53.978185 91.30117 56.014547 94.17687 58.050909 95.704128 60.087274 96.48332 62.123636 96.89274 64.16 97.13015 66.196369 97.28194 68.23273 97.37584 70.26909 97.40772 72.30546 97.34914 74.34182 97.14821 76.37818 96.73811 78.41454 96.06453 80.45091 95.13102 82.487277 94.04165 84.523639 93.006069 86.56 92.283008 88.59637 92.07718 90.63273 92.444988 92.66909 93.26891 94.70545 94.31753 96.74182 95.35108 98.77818 96.20816 100.814548 96.83342 102.85091 97.251438 104.887279 97.52009 106.92364 97.69429 108.96 97.81119 110.99636 97.89137 113.03273 97.94564 115.06909 97.98054 117.10545 98.00104 119.141819 98.01086 121.178188 98.01167 123.21455 98.001979 125.25091 97.97705 127.28727 97.931529 129.32364 97.86473 131.36 97.785999 133.39636 97.7155 135.43273 97.6779 137.46909 97.691219 139.50545 97.75764 141.54183 97.86238 143.57819 97.981128 145.61455 98.09087 147.65091 98.17764 149.68727 98.23794 151.72364 98.27557 153.76 98.29727 155.79637 98.30953 157.83274 98.31727 159.8691 98.323589 161.90546 98.32995 163.94182 98.33667 165.97818 98.34345 168.01454 98.34988 170.0509 98.35569 172.08728 98.36086 174.12364 98.36552 176.16 98.3698 178.19637 98.37386 180.23273 98.377887 182.26909 98.38199 184.30545 98.38631 186.34181 98.39089 188.37819 98.3956 190.41455 98.40007 192.45092 98.40379 194.48728 98.40643 196.52364 98.40805 198.56 98.409 200.59636 98.4096 202.63272 98.41004 204.6691 98.41041 206.70546 98.41088 208.74182 98.41169 210.77819 98.41306 212.81455 98.415187 214.8509 98.418308 216.88727 98.42259 218.92363 98.42769 220.96 98.432529 222.99637 98.435749 225.03273 98.43671 227.06909 98.43603 229.10546 98.435138 231.14182 98.435108 233.17818 98.43596 235.21454 98.43708 237.25092 98.43838 239.28728 98.441028 241.32364 98.44696 243.36H98.62996L98.635898 241.32364 98.63855 239.28728 98.63985 237.25092 98.64096 235.21454 98.641819 233.17818 98.641788 231.14182 98.64089 229.10546 98.64022 227.06909 98.64118 225.03273 98.6444 222.99637 98.64923 220.96 98.654338 218.92363 98.65862 216.88727 98.661739 214.8509 98.66386 212.81455 98.66523 210.77819 98.666049 208.74182 98.66651 206.70546 98.66688 204.6691 98.66732 202.63272 98.66793 200.59636 98.66887 198.56 98.67049 196.52364 98.673137 194.48728 98.67685 192.45092 98.68132 190.41455 98.686038 188.37819 98.69061 186.34181 98.69493 184.30545 98.699039 182.26909 98.70306 180.23273 98.70713 178.19637 98.71141 176.16 98.71606 174.12364 98.72123 172.08728 98.72704 170.0509 98.73347 168.01454 98.74025 165.97818 98.74697 163.94182 98.75334 161.90546 98.75965 159.8691 98.767398 157.83274 98.77965 155.79637 98.801349 153.76 98.83899 151.72364 98.899288 149.68727 98.986049 147.65091 99.095798 145.61455 99.21454 143.57819 99.31928 141.54183 99.38571 139.50545 99.399028 137.46909 99.36142 135.43273 99.290927 133.39636 99.21219 131.36 99.14539 129.32364 99.09988 127.28727 99.07494 125.25091 99.065258 123.21455 99.06607 121.178188 99.07589 119.141819 99.09638 117.10545 99.13129 115.06909 99.18555 113.03273 99.26573 110.99636 99.38264 108.96 99.55683 106.92364 99.825489 104.887279 100.24351 102.85091 100.86877 100.814548 101.72584 98.77818 102.75939 96.74182 103.808017 94.70545 104.631938 92.66909 104.99975 90.63273 104.793918 88.59637 104.070858 86.56 103.03528 84.523639 101.94591 82.487277 101.01239 80.45091 100.338809 78.41454 99.92872 76.37818 99.72778 74.34182 99.669208 72.30546 99.70108 70.26909 99.79498 68.23273 99.94677 66.196369 100.18418 64.16 100.5936 62.123636 101.372798 60.087274 102.900058 58.050909 105.77576 56.014547 110.751079 53.978185 118.45377 51.94182 128.9147 49.905458 141.09291 47.86909 152.76309 45.832727 161.05821 43.796365 163.57343 41.76Z"/>
</g>
<path transform="matrix(1,0,0,-1,0,288)" d="M27 44.455438H23.5"/>
<path transform="matrix(1,0,0,-1,0,288)" stroke-width=".8" stroke-linecap="butt" stroke-linejoin="round" fill="none" stroke="#000000" d="M27 44.455438H23.5"/>
<path transform="matrix(.010000001,0,0,-.010000001,-2.2617188,247.34145)" d="M406 393C453 383 490 362 516 330 542 298 556 258 556 212 556 140 531 84 482 45 432 6 362-13 271-13 240-13 208-10 176-4 144 1 110 10 76 22V117C103 101 133 89 166 81 198 73 232 69 268 69 330 69 377 81 409 105 441 129 458 165 458 212 458 254 443 288 413 312 383 336 341 349 287 349H202V430H291C339 430 376 439 402 459 428 478 441 506 441 543 441 580 427 609 401 629 374 649 336 659 287 659 260 659 231 656 200 650 169 644 135 635 98 623V711C135 721 170 729 203 734 235 739 266 742 296 742 370 742 429 725 473 691 517 657 539 611 539 553 539 513 527 479 504 451 481 423 448 403 406 393Z"/>
<path transform="matrix(.010000001,0,0,-.010000001,4.098282,247.34145)" d="M107 124H210V0H107V124Z"/>
<path transform="matrix(.010000001,0,0,-.010000001,7.278282,247.34145)" d="M192 83H536V0H73V83C110 121 161 173 226 239 290 304 331 346 348 365 380 400 402 430 414 455 426 479 433 504 433 528 433 566 419 598 392 622 365 646 330 659 286 659 255 659 222 653 188 643 154 632 117 616 78 594V694C118 710 155 722 189 730 223 738 255 742 284 742 359 742 419 723 464 685 509 647 532 597 532 534 532 504 526 475 515 449 504 422 484 390 454 354 446 344 420 317 376 272 332 227 271 164 192 83Z"/>
<path transform="matrix(.010000001,0,0,-.010000001,13.638283,247.34145)" d="M108 729H495V646H198V467C212 472 227 476 241 478 255 480 270 482 284 482 365 482 429 459 477 415 525 370 549 310 549 234 549 155 524 94 475 51 426 8 357-13 269-13 238-13 207-10 175-6 143-1 111 6 77 17V116C106 100 136 88 168 80 199 72 232 69 267 69 323 69 368 83 401 113 433 143 450 183 450 234 450 284 433 324 401 354 368 384 323 399 267 399 241 399 214 396 188 390 162 384 135 375 108 363V729Z"/>
<g clip-path="url(#clip_1)">
<path transform="matrix(.01,0,0,-.01,-10.640625,247.34145)" d="M106 355H732V272H106V355Z"/>
</g>
<path transform="matrix(1,0,0,-1,0,288)" d="M27 72.111248H23.5"/>
<path transform="matrix(1,0,0,-1,0,288)" stroke-width=".8" stroke-linecap="butt" stroke-linejoin="round" fill="none" stroke="#000000" d="M27 72.111248H23.5"/>
<path transform="matrix(.010000001,0,0,-.010000001,-2.2617188,219.68564)" d="M406 393C453 383 490 362 516 330 542 298 556 258 556 212 556 140 531 84 482 45 432 6 362-13 271-13 240-13 208-10 176-4 144 1 110 10 76 22V117C103 101 133 89 166 81 198 73 232 69 268 69 330 69 377 81 409 105 441 129 458 165 458 212 458 254 443 288 413 312 383 336 341 349 287 349H202V430H291C339 430 376 439 402 459 428 478 441 506 441 543 441 580 427 609 401 629 374 649 336 659 287 659 260 659 231 656 200 650 169 644 135 635 98 623V711C135 721 170 729 203 734 235 739 266 742 296 742 370 742 429 725 473 691 517 657 539 611 539 553 539 513 527 479 504 451 481 423 448 403 406 393Z"/>
<path transform="matrix(.010000001,0,0,-.010000001,4.098282,219.68564)" d="M107 124H210V0H107V124Z"/>
<path transform="matrix(.010000001,0,0,-.010000001,7.278282,219.68564)" d="M318 664C267 664 229 639 203 589 177 539 165 464 165 364 165 264 177 189 203 139 229 89 267 64 318 64 369 64 407 89 433 139 458 189 471 264 471 364 471 464 458 539 433 589 407 639 369 664 318 664ZM318 742C399 742 461 709 505 645 548 580 570 486 570 364 570 241 548 147 505 83 461 19 399-13 317-13 235-13 173 19 130 83 87 147 66 241 66 364 66 486 87 580 130 645 173 709 236 742 318 742Z"/>
<path transform="matrix(.010000001,0,0,-.010000001,13.638283,219.68564)" d="M318 664C267 664 229 639 203 589 177 539 165 464 165 364 165 264 177 189 203 139 229 89 267 64 318 64 369 64 407 89 433 139 458 189 471 264 471 364 471 464 458 539 433 589 407 639 369 664 318 664ZM318 742C399 742 461 709 505 645 548 580 570 486 570 364 570 241 548 147 505 83 461 19 399-13 317-13 235-13 173 19 130 83 87 147 66 241 66 364 66 486 87 580 130 645 173 709 236 742 318 742Z"/>
<g clip-path="url(#clip_2)">
<path transform="matrix(.01,0,0,-.01,-10.640625,219.68564)" d="M106 355H732V272H106V355Z"/>
</g>
<path transform="matrix(1,0,0,-1,0,288)" d="M27 99.767047H23.5"/>
<path transform="matrix(1,0,0,-1,0,288)" stroke-width=".8" stroke-linecap="butt" stroke-linejoin="round" fill="none" stroke="#000000" d="M27 99.767047H23.5"/>
<path transform="matrix(.010000001,0,0,-.010000001,-2.2617188,192.02983)" d="M192 83H536V0H73V83C110 121 161 173 226 239 290 304 331 346 348 365 380 400 402 430 414 455 426 479 433 504 433 528 433 566 419 598 392 622 365 646 330 659 286 659 255 659 222 653 188 643 154 632 117 616 78 594V694C118 710 155 722 189 730 223 738 255 742 284 742 359 742 419 723 464 685 509 647 532 597 532 534 532 504 526 475 515 449 504 422 484 390 454 354 446 344 420 317 376 272 332 227 271 164 192 83Z"/>
<path transform="matrix(.010000001,0,0,-.010000001,4.098282,192.02983)" d="M107 124H210V0H107V124Z"/>
<path transform="matrix(.010000001,0,0,-.010000001,7.278282,192.02983)" d="M82 729H551V687L286 0H183L432 646H82V729Z"/>
<path transform="matrix(.010000001,0,0,-.010000001,13.638283,192.02983)" d="M108 729H495V646H198V467C212 472 227 476 241 478 255 480 270 482 284 482 365 482 429 459 477 415 525 370 549 310 549 234 549 155 524 94 475 51 426 8 357-13 269-13 238-13 207-10 175-6 143-1 111 6 77 17V116C106 100 136 88 168 80 199 72 232 69 267 69 323 69 368 83 401 113 433 143 450 183 450 234 450 284 433 324 401 354 368 384 323 399 267 399 241 399 214 396 188 390 162 384 135 375 108 363V729Z"/>
<g clip-path="url(#clip_3)">
<path transform="matrix(.01,0,0,-.01,-10.640625,192.02983)" d="M106 355H732V272H106V355Z"/>
</g>
<path transform="matrix(1,0,0,-1,0,288)" d="M27 127.42285H23.5"/>
<path transform="matrix(1,0,0,-1,0,288)" stroke-width=".8" stroke-linecap="butt" stroke-linejoin="round" fill="none" stroke="#000000" d="M27 127.42285H23.5"/>
<path transform="matrix(.010000001,0,0,-.010000001,-2.2617188,164.37403)" d="M192 83H536V0H73V83C110 121 161 173 226 239 290 304 331 346 348 365 380 400 402 430 414 455 426 479 433 504 433 528 433 566 419 598 392 622 365 646 330 659 286 659 255 659 222 653 188 643 154 632 117 616 78 594V694C118 710 155 722 189 730 223 738 255 742 284 742 359 742 419 723 464 685 509 647 532 597 532 534 532 504 526 475 515 449 504 422 484 390 454 354 446 344 420 317 376 272 332 227 271 164 192 83Z"/>
<path transform="matrix(.010000001,0,0,-.010000001,4.098282,164.37403)" d="M107 124H210V0H107V124Z"/>
<path transform="matrix(.010000001,0,0,-.010000001,7.278282,164.37403)" d="M108 729H495V646H198V467C212 472 227 476 241 478 255 480 270 482 284 482 365 482 429 459 477 415 525 370 549 310 549 234 549 155 524 94 475 51 426 8 357-13 269-13 238-13 207-10 175-6 143-1 111 6 77 17V116C106 100 136 88 168 80 199 72 232 69 267 69 323 69 368 83 401 113 433 143 450 183 450 234 450 284 433 324 401 354 368 384 323 399 267 399 241 399 214 396 188 390 162 384 135 375 108 363V729Z"/>
<path transform="matrix(.010000001,0,0,-.010000001,13.638283,164.37403)" d="M318 664C267 664 229 639 203 589 177 539 165 464 165 364 165 264 177 189 203 139 229 89 267 64 318 64 369 64 407 89 433 139 458 189 471 264 471 364 471 464 458 539 433 589 407 639 369 664 318 664ZM318 742C399 742 461 709 505 645 548 580 570 486 570 364 570 241 548 147 505 83 461 19 399-13 317-13 235-13 173 19 130 83 87 147 66 241 66 364 66 486 87 580 130 645 173 709 236 742 318 742Z"/>
<g clip-path="url(#clip_4)">
<path transform="matrix(.01,0,0,-.01,-10.640625,164.37403)" d="M106 355H732V272H106V355Z"/>
</g>
<path transform="matrix(1,0,0,-1,0,288)" d="M27 155.07866H23.5"/>
<path transform="matrix(1,0,0,-1,0,288)" stroke-width=".8" stroke-linecap="butt" stroke-linejoin="round" fill="none" stroke="#000000" d="M27 155.07866H23.5"/>
<path transform="matrix(.010000001,0,0,-.010000001,-2.2617188,136.71822)" d="M192 83H536V0H73V83C110 121 161 173 226 239 290 304 331 346 348 365 380 400 402 430 414 455 426 479 433 504 433 528 433 566 419 598 392 622 365 646 330 659 286 659 255 659 222 653 188 643 154 632 117 616 78 594V694C118 710 155 722 189 730 223 738 255 742 284 742 359 742 419 723 464 685 509 647 532 597 532 534 532 504 526 475 515 449 504 422 484 390 454 354 446 344 420 317 376 272 332 227 271 164 192 83Z"/>
<path transform="matrix(.010000001,0,0,-.010000001,4.098282,136.71822)" d="M107 124H210V0H107V124Z"/>
<path transform="matrix(.010000001,0,0,-.010000001,7.278282,136.71822)" d="M192 83H536V0H73V83C110 121 161 173 226 239 290 304 331 346 348 365 380 400 402 430 414 455 426 479 433 504 433 528 433 566 419 598 392 622 365 646 330 659 286 659 255 659 222 653 188 643 154 632 117 616 78 594V694C118 710 155 722 189 730 223 738 255 742 284 742 359 742 419 723 464 685 509 647 532 597 532 534 532 504 526 475 515 449 504 422 484 390 454 354 446 344 420 317 376 272 332 227 271 164 192 83Z"/>
<path transform="matrix(.010000001,0,0,-.010000001,13.638283,136.71822)" d="M108 729H495V646H198V467C212 472 227 476 241 478 255 480 270 482 284 482 365 482 429 459 477 415 525 370 549 310 549 234 549 155 524 94 475 51 426 8 357-13 269-13 238-13 207-10 175-6 143-1 111 6 77 17V116C106 100 136 88 168 80 199 72 232 69 267 69 323 69 368 83 401 113 433 143 450 183 450 234 450 284 433 324 401 354 368 384 323 399 267 399 241 399 214 396 188 390 162 384 135 375 108 363V729Z"/>
<g clip-path="url(#clip_5)">
<path transform="matrix(.01,0,0,-.01,-10.640625,136.71822)" d="M106 355H732V272H106V355Z"/>
</g>
<path transform="matrix(1,0,0,-1,0,288)" d="M27 182.73447H23.5"/>
<path transform="matrix(1,0,0,-1,0,288)" stroke-width=".8" stroke-linecap="butt" stroke-linejoin="round" fill="none" stroke="#000000" d="M27 182.73447H23.5"/>
<path transform="matrix(.010000001,0,0,-.010000001,-2.2617188,109.06241)" d="M192 83H536V0H73V83C110 121 161 173 226 239 290 304 331 346 348 365 380 400 402 430 414 455 426 479 433 504 433 528 433 566 419 598 392 622 365 646 330 659 286 659 255 659 222 653 188 643 154 632 117 616 78 594V694C118 710 155 722 189 730 223 738 255 742 284 742 359 742 419 723 464 685 509 647 532 597 532 534 532 504 526 475 515 449 504 422 484 390 454 354 446 344 420 317 376 272 332 227 271 164 192 83Z"/>
<path transform="matrix(.010000001,0,0,-.010000001,4.098282,109.06241)" d="M107 124H210V0H107V124Z"/>
<path transform="matrix(.010000001,0,0,-.010000001,7.278282,109.06241)" d="M318 664C267 664 229 639 203 589 177 539 165 464 165 364 165 264 177 189 203 139 229 89 267 64 318 64 369 64 407 89 433 139 458 189 471 264 471 364 471 464 458 539 433 589 407 639 369 664 318 664ZM318 742C399 742 461 709 505 645 548 580 570 486 570 364 570 241 548 147 505 83 461 19 399-13 317-13 235-13 173 19 130 83 87 147 66 241 66 364 66 486 87 580 130 645 173 709 236 742 318 742Z"/>
<path transform="matrix(.010000001,0,0,-.010000001,13.638283,109.06241)" d="M318 664C267 664 229 639 203 589 177 539 165 464 165 364 165 264 177 189 203 139 229 89 267 64 318 64 369 64 407 89 433 139 458 189 471 264 471 364 471 464 458 539 433 589 407 639 369 664 318 664ZM318 742C399 742 461 709 505 645 548 580 570 486 570 364 570 241 548 147 505 83 461 19 399-13 317-13 235-13 173 19 130 83 87 147 66 241 66 364 66 486 87 580 130 645 173 709 236 742 318 742Z"/>
<g clip-path="url(#clip_6)">
<path transform="matrix(.01,0,0,-.01,-10.640625,109.06241)" d="M106 355H732V272H106V355Z"/>
</g>
<path transform="matrix(1,0,0,-1,0,288)" d="M27 210.39028H23.5"/>
<path transform="matrix(1,0,0,-1,0,288)" stroke-width=".8" stroke-linecap="butt" stroke-linejoin="round" fill="none" stroke="#000000" d="M27 210.39028H23.5"/>
<path transform="matrix(.010000001,0,0,-.010000001,-2.2617188,81.4066)" d="M124 83H285V639L110 604V694L284 729H383V83H544V0H124V83Z"/>
<path transform="matrix(.010000001,0,0,-.010000001,4.098282,81.4066)" d="M107 124H210V0H107V124Z"/>
<path transform="matrix(.010000001,0,0,-.010000001,7.278282,81.4066)" d="M82 729H551V687L286 0H183L432 646H82V729Z"/>
<path transform="matrix(.010000001,0,0,-.010000001,13.638283,81.4066)" d="M108 729H495V646H198V467C212 472 227 476 241 478 255 480 270 482 284 482 365 482 429 459 477 415 525 370 549 310 549 234 549 155 524 94 475 51 426 8 357-13 269-13 238-13 207-10 175-6 143-1 111 6 77 17V116C106 100 136 88 168 80 199 72 232 69 267 69 323 69 368 83 401 113 433 143 450 183 450 234 450 284 433 324 401 354 368 384 323 399 267 399 241 399 214 396 188 390 162 384 135 375 108 363V729Z"/>
<g clip-path="url(#clip_7)">
<path transform="matrix(.01,0,0,-.01,-10.640625,81.4066)" d="M106 355H732V272H106V355Z"/>
</g>
<path transform="matrix(1,0,0,-1,0,288)" d="M27 238.04608H23.5"/>
<path transform="matrix(1,0,0,-1,0,288)" stroke-width=".8" stroke-linecap="butt" stroke-linejoin="round" fill="none" stroke="#000000" d="M27 238.04608H23.5"/>
<path transform="matrix(.010000001,0,0,-.010000001,-2.2617188,53.750795)" d="M124 83H285V639L110 604V694L284 729H383V83H544V0H124V83Z"/>
<path transform="matrix(.010000001,0,0,-.010000001,4.098282,53.750795)" d="M107 124H210V0H107V124Z"/>
<path transform="matrix(.010000001,0,0,-.010000001,7.278282,53.750795)" d="M108 729H495V646H198V467C212 472 227 476 241 478 255 480 270 482 284 482 365 482 429 459 477 415 525 370 549 310 549 234 549 155 524 94 475 51 426 8 357-13 269-13 238-13 207-10 175-6 143-1 111 6 77 17V116C106 100 136 88 168 80 199 72 232 69 267 69 323 69 368 83 401 113 433 143 450 183 450 234 450 284 433 324 401 354 368 384 323 399 267 399 241 399 214 396 188 390 162 384 135 375 108 363V729Z"/>
<path transform="matrix(.010000001,0,0,-.010000001,13.638283,53.750795)" d="M318 664C267 664 229 639 203 589 177 539 165 464 165 364 165 264 177 189 203 139 229 89 267 64 318 64 369 64 407 89 433 139 458 189 471 264 471 364 471 464 458 539 433 589 407 639 369 664 318 664ZM318 742C399 742 461 709 505 645 548 580 570 486 570 364 570 241 548 147 505 83 461 19 399-13 317-13 235-13 173 19 130 83 87 147 66 241 66 364 66 486 87 580 130 645 173 709 236 742 318 742Z"/>
<g clip-path="url(#clip_8)">
<path transform="matrix(.01,0,0,-.01,-10.640625,53.750795)" d="M106 355H732V272H106V355Z"/>
</g>
<g clip-path="url(#clip_9)">
<path transform="matrix(1,0,0,-1,0,288)" stroke-width="1.875" stroke-linecap="square" stroke-linejoin="round" fill="none" stroke="#737373" d="M98.53846 41.76V42.395814"/>
</g>
<g clip-path="url(#clip_10)">
<path transform="matrix(1,0,0,-1,0,288)" stroke-width="5.625" stroke-linecap="square" stroke-linejoin="round" fill="none" stroke="#737373" d="M98.53846 41.76V42.021257"/>
</g>
<g clip-path="url(#clip_11)">
<path transform="matrix(1,0,0,-1,0,288)" stroke-width="1.5" stroke-linecap="square" stroke-linejoin="round" fill="none" stroke="#737373" d="M98.53846 41.76"/>
<path transform="matrix(1,0,0,-1,0,288)" d="M100.88221 41.76H96.19471" fill="#ffffff"/>
<path transform="matrix(1,0,0,-1,0,288)" stroke-width="1.125" stroke-linecap="butt" stroke-linejoin="round" fill="none" stroke="#ffffff" d="M100.88221 41.76H96.19471"/>
</g>
<g clip-path="url(#clip_12)">
<path transform="matrix(1,0,0,-1,0,288)" stroke-width="5.2" stroke-linecap="round" stroke-linejoin="round" fill="none" stroke="#000000" d="M82.27972 41.76H114.7972"/>
<path transform="matrix(1,0,0,-1,0,288)" stroke-width="4" stroke-linecap="round" stroke-linejoin="round" fill="none" stroke="#ffffff" d="M82.27972 41.76H114.7972"/>
</g>
<path transform="matrix(1,0,0,-1,0,288)" stroke-width=".8" stroke-linecap="square" stroke-miterlimit="10" stroke-linejoin="miter" fill="none" stroke="#000000" d="M27 31.68V253.44"/>
<path transform="matrix(1,0,0,-1,0,288)" stroke-width=".8" stroke-linecap="square" stroke-miterlimit="10" stroke-linejoin="miter" fill="none" stroke="#000000" d="M194.4 31.68V253.44"/>
<path transform="matrix(1,0,0,-1,0,288)" stroke-width=".8" stroke-linecap="square" stroke-miterlimit="10" stroke-linejoin="miter" fill="none" stroke="#000000" d="M27 31.68H194.4"/>
<path transform="matrix(1,0,0,-1,0,288)" stroke-width=".8" stroke-linecap="square" stroke-miterlimit="10" stroke-linejoin="miter" fill="none" stroke="#000000" d="M27 253.44H194.4"/>
<path transform="matrix(1,0,0,-1,0,288)" stroke-width="5.2" stroke-linecap="square" stroke-linejoin="round" fill="none" stroke="#000000" d="M129.01688 161.26486H135.51688 142.01688"/>
<path transform="matrix(1,0,0,-1,0,288)" stroke-width="4" stroke-linecap="square" stroke-linejoin="round" fill="none" stroke="#ffffff" d="M129.01688 161.26486H135.51688 142.01688"/>
<path transform="matrix(.013,0,0,-.013,145.91687,131.28514)" d="M394 662C322 662 265 635 223 582 181 528 160 456 160 364 160 272 181 199 223 146 265 92 322 66 394 66 465 66 522 92 564 146 606 199 627 272 627 364 627 456 606 528 564 582 522 635 465 662 394 662ZM394 742C496 742 577 707 639 639 700 571 731 479 731 364 731 248 700 157 639 89 577 21 496-13 394-13 291-13 209 21 148 89 86 157 56 248 56 364 56 479 86 571 148 639 209 707 291 742 394 742Z"/>
<path transform="matrix(.013,0,0,-.013,156.14788,131.28514)" d="M30 547H125L296 88 467 547H562L357 0H235L30 547Z"/>
<path transform="matrix(.013,0,0,-.013,163.84387,131.28514)" d="M562 296V252H149C153 190 171 142 205 110 238 78 284 62 344 62 378 62 412 66 444 74 476 82 509 95 541 113V28C509 14 476 3 442-3 408-9 373-13 339-13 251-13 182 12 131 62 80 112 55 181 55 268 55 357 79 428 127 481 175 533 241 560 323 560 397 560 455 536 498 489 540 441 562 377 562 296ZM472 322C471 371 457 410 431 440 404 469 368 484 324 484 274 484 234 469 204 441 174 413 156 373 152 322H472Z"/>
<path transform="matrix(.013,0,0,-.013,171.83887,131.28514)" d="M411 463C401 469 390 473 378 476 366 478 353 480 339 480 288 480 249 463 222 430 194 397 181 350 181 288V0H91V547H181V462C199 495 224 520 254 536 284 552 321 560 365 560 371 560 378 559 386 559 393 558 401 557 411 555V463Z"/>
<path transform="matrix(.013,0,0,-.013,177.18187,131.28514)" d="M343 275C270 275 220 266 192 250 164 233 150 205 150 165 150 133 160 107 181 89 202 70 231 61 267 61 317 61 357 78 387 114 417 149 432 196 432 255V275H343ZM522 312V0H432V83C411 49 385 25 355 10 325-5 287-13 243-13 187-13 142 2 109 33 76 64 60 106 60 159 60 220 80 266 122 298 163 329 224 345 306 345H432V354C432 395 418 427 391 450 364 472 326 484 277 484 245 484 215 480 185 472 155 464 127 453 100 439V522C132 534 164 544 195 550 226 556 256 560 286 560 365 560 424 539 463 498 502 457 522 395 522 312Z"/>
<path transform="matrix(.013,0,0,-.013,185.15088,131.28514)" d="M94 760H184V0H94V760Z"/>
<path transform="matrix(.013,0,0,-.013,188.76486,131.28514)" d="M94 760H184V0H94V760Z"/>
</svg>
