<svg xmlns="http://www.w3.org/2000/svg" xmlns:xlink="http://www.w3.org/1999/xlink" xmlns:inkscape="http://www.inkscape.org/namespaces/inkscape" version="1.1" width="216" height="288" viewBox="0 0 216 288">
<defs>
<clipPath id="clip_0">
<path transform="matrix(1,0,0,-1,0,288)" d="M27 31.68H194.4V253.44H27Z"/>
</clipPath>
<clipPath id="clip_1">
<path transform="matrix(.01,0,0,-.01,-1.09375,231.19576)" d="M-1021-463H1794V1233H-1021Z"/>
</clipPath>
<clipPath id="clip_2">
<path transform="matrix(.01,0,0,-.01,-1.09375,199.79389)" d="M-1021-463H1794V1233H-1021Z"/>
</clipPath>
<clipPath id="clip_3">
<path transform="matrix(.01,0,0,-.01,-1.09375,168.39202)" d="M-1021-463H1794V1233H-1021Z"/>
</clipPath>
<clipPath id="clip_4">
<path transform="matrix(.01,0,0,-.01,-1.09375,136.99015)" d="M-1021-463H1794V1233H-1021Z"/>
</clipPath>
<clipPath id="clip_5">
<path transform="matrix(.01,0,0,-.01,-1.09375,105.58827)" d="M-1021-463H1794V1233H-1021Z"/>
</clipPath>
<clipPath id="clip_6">
<path transform="matrix(.01,0,0,-.01,5.265625,74.1864)" d="M-1021-463H1794V1233H-1021Z"/>
</clipPath>
<clipPath id="clip_7">
<path transform="matrix(1,0,0,-1,0,288)" d="M27 31.68H194.4V253.44H27Z"/>
</clipPath>
<clipPath id="clip_8">
<path transform="matrix(1,0,0,-1,0,288)" d="M27 31.68H194.4V253.44H27Z"/>
</clipPath>
<clipPath id="clip_9">
<path transform="matrix(1,0,0,-1,0,288)" d="M27 31.68H194.4V253.44H27Z"/>
</clipPath>
<clipPath id="clip_10">
<path transform="matrix(1,0,0,-1,0,288)" d="M27 31.68H194.4V253.44H27Z"/>
</clipPath>
<clipPath id="clip_11">
<path transform="matrix(1,0,0,-1,0,288)" d="M27 31.68H194.4V253.44H27Z"/>
</clipPath>
<clipPath id="clip_12">
<path transform="matrix(1,0,0,-1,0,288)" d="M27 31.68H194.4V253.44H27Z"/>
</clipPath>
</defs>
<path transform="matrix(1,0,0,-1,0,288)" d="M0 0H216V288H0Z" fill="#ffffff"/>
<path transform="matrix(1,0,0,-1,0,288)" d="M27 31.68H194.4V253.44H27Z" fill="#ffffff"/>
<g clip-path="url(#clip_0)">
<path transform="matrix(1,0,0,-1,0,288)" d="M113.78603 41.76H83.29089L81.8175 43.796365 80.48548 45.832727 79.31554 47.86909 78.31435 49.905458 77.47584 51.94182 76.78393 53.978185 76.21643 56.014547 75.74911 58.050909 75.35941 60.087274 75.02929 62.123636 74.74676 64.16 74.50626 66.196369 74.30788 68.23273 74.15586 70.26909 74.05675 72.30546 74.017498 74.34182 74.044 76.37818 74.14 78.41454 74.30657 80.45091 74.542118 82.487277 74.84266 84.523639 75.20232 86.56 75.61382 88.59637 76.068958 90.63273 76.55888 92.66909 77.07435 94.70545 77.60586 96.74182 78.14389 98.77818 78.67921 100.814548 79.20325 102.85091 79.7087 104.887279 80.19005 106.92364 80.644039 108.96 81.069957 110.99636 81.4697 113.03273 81.84742 115.06909 82.2089 117.10545 82.56074 119.141819 82.90934 121.178188 83.26005 123.21455 83.616428 125.25091 83.979839 127.28727 84.34949 129.32364 84.72273 131.36 85.095767 133.39636 85.46447 135.43273 85.82531 137.46909 86.17604 139.50545 86.51625 141.54183 86.84746 143.57819 87.17279 145.61455 87.49626 147.65091 87.82158 149.68727 88.15062 151.72364 88.48163 153.76 88.807209 155.79637 89.11229 157.83274 89.37214 159.8691 89.55061 161.90546 89.59893 163.94182 89.45533 165.97818 89.04602 168.01454 88.28792 170.0509 87.093669 172.08728 85.37913 174.12364 83.07316 176.16 80.12903 178.19637 76.53612 180.23273 72.33007 182.26909 67.599437 184.30545 62.486864 186.34181 57.183649 188.37819 51.91746 190.41455 46.934316 192.45092 42.476964 194.48728 38.762807 196.52364 35.96438 198.56 34.195325 200.59636 33.503499 202.63272 33.871744 204.6691 35.2255 206.70546 37.4454 208.74182 40.38251 210.77819 43.873807 212.81455 47.755956 214.8509 51.87615 216.88727 56.099378 218.92363 60.312356 220.96 64.424549 222.99637 68.36711 225.03273 72.09053 227.06909 75.56156 229.10546 78.76006 231.14182 81.67608 233.17818 84.307338 235.21454 86.65724 237.25092 88.7335 239.28728 90.547107 241.32364 92.11181 243.36H104.96512L106.529819 241.32364 108.34343 239.28728 110.41968 237.25092 112.769588 235.21454 115.40084 233.17818 118.316867 231.14182 121.515369 229.10546 124.98639 227.06909 128.70981 225.03273 132.65238 222.99637 136.76457 220.96 140.97754 218.92363 145.20078 216.88727 149.32097 214.8509 153.20313 212.81455 156.69441 210.77819 159.63152 208.74182 161.85143 206.70546 163.20519 204.6691 163.57343 202.63272 162.88159 200.59636 161.11255 198.56 158.31412 196.52364 154.59996 194.48728 150.14261 192.45092 145.15946 190.41455 139.89328 188.37819 134.59006 186.34181 129.4775 184.30545 124.74686 182.26909 120.5408 180.23273 116.94789 178.19637 114.00376 176.16 111.6978 174.12364 109.98326 172.08728 108.78901 170.0509 108.03091 168.01454 107.6216 165.97818 107.478 163.94182 107.52631 161.90546 107.70478 159.8691 107.96463 157.83274 108.269718 155.79637 108.5953 153.76 108.9263 151.72364 109.25534 149.68727 109.58066 147.65091 109.90413 145.61455 110.22947 143.57819 110.56067 141.54183 110.90089 139.50545 111.25162 137.46909 111.61245 135.43273 111.981159 133.39636 112.354198 131.36 112.72743 129.32364 113.097087 127.28727 113.4605 125.25091 113.81687 123.21455 114.16759 121.178188 114.51618 119.141819 114.86802 117.10545 115.22951 115.06909 115.60722 113.03273 116.006969 110.99636 116.43289 108.96 116.88687 106.92364 117.36822 104.887279 117.87368 102.85091 118.39772 100.814548 118.93303 98.77818 119.47106 96.74182 120.00257 94.70545 120.518039 92.66909 121.007968 90.63273 121.463108 88.59637 121.8746 86.56 122.23426 84.523639 122.534809 82.487277 122.770359 80.45091 122.93693 78.41454 123.03292 76.37818 123.059429 74.34182 123.02018 72.30546 122.92106 70.26909 122.76904 68.23273 122.57066 66.196369 122.33016 64.16 122.04763 62.123636 121.71751 60.087274 121.32781 58.050909 120.86049 56.014547 120.29299 53.978185 119.60109 51.94182 118.76257 49.905458 117.76139 47.86909 116.591449 45.832727 115.25942 43.796365 113.78603 41.76Z" fill="#8fbfef"/>
<path transform="matrix(1,0,0,-1,0,288)" stroke-width="1.25" stroke-linecap="butt" stroke-linejoin="round" fill="none" stroke="#737373" d="M113.78603 41.76H83.29089L81.8175 43.796365 80.48548 45.832727 79.31554 47.86909 78.31435 49.905458 77.47584 51.94182 76.78393 53.978185 76.21643 56.014547 75.74911 58.050909 75.35941 60.087274 75.02929 62.123636 74.74676 64.16 74.50626 66.196369 74.30788 68.23273 74.15586 70.26909 74.05675 72.30546 74.017498 74.34182 74.044 76.37818 74.14 78.41454 74.30657 80.45091 74.542118 82.487277 74.84266 84.523639 75.20232 86.56 75.61382 88.59637 76.068958 90.63273 76.55888 92.66909 77.07435 94.70545 77.60586 96.74182 78.14389 98.77818 78.67921 100.814548 79.20325 102.85091 79.7087 104.887279 80.19005 106.92364 80.644039 108.96 81.069957 110.99636 81.4697 113.03273 81.84742 115.06909 82.2089 117.10545 82.56074 119.141819 82.90934 121.178188 83.26005 123.21455 83.616428 125.25091 83.979839 127.28727 84.34949 129.32364 84.72273 131.36 85.095767 133.39636 85.46447 135.43273 85.82531 137.46909 86.17604 139.50545 86.51625 141.54183 86.84746 143.57819 87.17279 145.61455 87.49626 147.65091 87.82158 149.68727 88.15062 151.72364 88.48163 153.76 88.807209 155.79637 89.11229 157.83274 89.37214 159.8691 89.55061 161.90546 89.59893 163.94182 89.45533 165.97818 89.04602 168.01454 88.28792 170.0509 87.093669 172.08728 85.37913 174.12364 83.07316 176.16 80.12903 178.19637 76.53612 180.23273 72.33007 182.26909 67.599437 184.30545 62.486864 186.34181 57.183649 188.37819 51.91746 190.41455 46.934316 192.45092 42.476964 194.48728 38.762807 196.52364 35.96438 198.56 34.195325 200.59636 33.503499 202.63272 33.871744 204.6691 35.2255 206.70546 37.4454 208.74182 40.38251 210.77819 43.873807 212.81455 47.755956 214.8509 51.87615 216.88727 56.099378 218.92363 60.312356 220.96 64.424549 222.99637 68.36711 225.03273 72.09053 227.06909 75.56156 229.10546 78.76006 231.14182 81.67608 233.17818 84.307338 235.21454 86.65724 237.25092 88.7335 239.28728 90.547107 241.32364 92.11181 243.36H104.96512L106.529819 241.32364 108.34343 239.28728 110.41968 237.25092 112.769588 235.21454 115.40084 233.17818 118.316867 231.14182 121.515369 229.10546 124.98639 227.06909 128.70981 225.03273 132.65238 222.99637 136.76457 220.96 140.97754 218.92363 145.20078 216.88727 149.32097 214.8509 153.20313 212.81455 156.69441 210.77819 159.63152 208.74182 161.85143 206.70546 163.20519 204.6691 163.57343 202.63272 162.88159 200.59636 161.11255 198.56 158.31412 196.52364 154.59996 194.48728 150.14261 192.45092 145.15946 190.41455 139.89328 188.37819 134.59006 186.34181 129.4775 184.30545 124.74686 182.26909 120.5408 180.23273 116.94789 178.19637 114.00376 176.16 111.6978 174.12364 109.98326 172.08728 108.78901 170.0509 108.03091 168.01454 107.6216 165.97818 107.478 163.94182 107.52631 161.90546 107.70478 159.8691 107.96463 157.83274 108.269718 155.79637 108.5953 153.76 108.9263 151.72364 109.25534 149.68727 109.58066 147.65091 109.90413 145.61455 110.22947 143.57819 110.56067 141.54183 110.90089 139.50545 111.25162 137.46909 111.61245 135.43273 111.981159 133.39636 112.354198 131.36 112.72743 129.32364 113.097087 127.28727 113.4605 125.25091 113.81687 123.21455 114.16759 121.178188 114.51618 119.141819 114.86802 117.10545 115.22951 115.06909 115.60722 113.03273 116.006969 110.99636 116.43289 108.96 116.88687 106.92364 117.36822 104.887279 117.87368 102.85091 118.39772 100.814548 118.93303 98.77818 119.47106 96.74182 120.00257 94.70545 120.518039 92.66909 121.007968 90.63273 121.463108 88.59637 121.8746 86.56 122.23426 84.523639 122.534809 82.487277 122.770359 80.45091 122.93693 78.41454 123.03292 76.37818 123.059429 74.34182 123.02018 72.30546 122.92106 70.26909 122.76904 68.23273 122.57066 66.196369 122.33016 64.16 122.04763 62.123636 121.71751 60.087274 121.32781 58.050909 120.86049 56.014547 120.29299 53.978185 119.60109 51.94182 118.76257 49.905458 117.76139 47.86909 116.591449 45.832727 115.25942 43.796365 113.78603 41.76Z"/>
</g>
<path transform="matrix(1,0,0,-1,0,288)" d="M27 60.60112H23.5"/>
<path transform="matrix(1,0,0,-1,0,288)" stroke-width=".8" stroke-linecap="butt" stroke-linejoin="round" fill="none" stroke="#000000" d="M27 60.60112H23.5"/>
<path transform="matrix(.010000001,0,0,-.010000001,7.2851564,231.19576)" d="M406 393C453 383 490 362 516 330 542 298 556 258 556 212 556 140 531 84 482 45 432 6 362-13 271-13 240-13 208-10 176-4 144 1 110 10 76 22V117C103 101 133 89 166 81 198 73 232 69 268 69 330 69 377 81 409 105 441 129 458 165 458 212 458 254 443 288 413 312 383 336 341 349 287 349H202V430H291C339 430 376 439 402 459 428 478 441 506 441 543 441 580 427 609 401 629 374 649 336 659 287 659 260 659 231 656 200 650 169 644 135 635 98 623V711C135 721 170 729 203 734 235 739 266 742 296 742 370 742 429 725 473 691 517 657 539 611 539 553 539 513 527 479 504 451 481 423 448 403 406 393Z"/>
<path transform="matrix(.010000001,0,0,-.010000001,13.645157,231.19576)" d="M318 664C267 664 229 639 203 589 177 539 165 464 165 364 165 264 177 189 203 139 229 89 267 64 318 64 369 64 407 89 433 139 458 189 471 264 471 364 471 464 458 539 433 589 407 639 369 664 318 664ZM318 742C399 742 461 709 505 645 548 580 570 486 570 364 570 241 548 147 505 83 461 19 399-13 317-13 235-13 173 19 130 83 87 147 66 241 66 364 66 486 87 580 130 645 173 709 236 742 318 742Z"/>
<g clip-path="url(#clip_1)">
<path transform="matrix(.01,0,0,-.01,-1.09375,231.19576)" d="M106 355H732V272H106V355Z"/>
</g>
<path transform="matrix(1,0,0,-1,0,288)" d="M27 92.00299H23.5"/>
<path transform="matrix(1,0,0,-1,0,288)" stroke-width=".8" stroke-linecap="butt" stroke-linejoin="round" fill="none" stroke="#000000" d="M27 92.00299H23.5"/>
<path transform="matrix(.010000001,0,0,-.010000001,7.2851564,199.79389)" d="M192 83H536V0H73V83C110 121 161 173 226 239 290 304 331 346 348 365 380 400 402 430 414 455 426 479 433 504 433 528 433 566 419 598 392 622 365 646 330 659 286 659 255 659 222 653 188 643 154 632 117 616 78 594V694C118 710 155 722 189 730 223 738 255 742 284 742 359 742 419 723 464 685 509 647 532 597 532 534 532 504 526 475 515 449 504 422 484 390 454 354 446 344 420 317 376 272 332 227 271 164 192 83Z"/>
<path transform="matrix(.010000001,0,0,-.010000001,13.645157,199.79389)" d="M108 729H495V646H198V467C212 472 227 476 241 478 255 480 270 482 284 482 365 482 429 459 477 415 525 370 549 310 549 234 549 155 524 94 475 51 426 8 357-13 269-13 238-13 207-10 175-6 143-1 111 6 77 17V116C106 100 136 88 168 80 199 72 232 69 267 69 323 69 368 83 401 113 433 143 450 183 450 234 450 284 433 324 401 354 368 384 323 399 267 399 241 399 214 396 188 390 162 384 135 375 108 363V729Z"/>
<g clip-path="url(#clip_2)">
<path transform="matrix(.01,0,0,-.01,-1.09375,199.79389)" d="M106 355H732V272H106V355Z"/>
</g>
<path transform="matrix(1,0,0,-1,0,288)" d="M27 123.40486H23.5"/>
<path transform="matrix(1,0,0,-1,0,288)" stroke-width=".8" stroke-linecap="butt" stroke-linejoin="round" fill="none" stroke="#000000" d="M27 123.40486H23.5"/>
<path transform="matrix(.010000001,0,0,-.010000001,7.2851564,168.39202)" d="M192 83H536V0H73V83C110 121 161 173 226 239 290 304 331 346 348 365 380 400 402 430 414 455 426 479 433 504 433 528 433 566 419 598 392 622 365 646 330 659 286 659 255 659 222 653 188 643 154 632 117 616 78 594V694C118 710 155 722 189 730 223 738 255 742 284 742 359 742 419 723 464 685 509 647 532 597 532 534 532 504 526 475 515 449 504 422 484 390 454 354 446 344 420 317 376 272 332 227 271 164 192 83Z"/>
<path transform="matrix(.010000001,0,0,-.010000001,13.645157,168.39202)" d="M318 664C267 664 229 639 203 589 177 539 165 464 165 364 165 264 177 189 203 139 229 89 267 64 318 64 369 64 407 89 433 139 458 189 471 264 471 364 471 464 458 539 433 589 407 639 369 664 318 664ZM318 742C399 742 461 709 505 645 548 580 570 486 570 364 570 241 548 147 505 83 461 19 399-13 317-13 235-13 173 19 130 83 87 147 66 241 66 364 66 486 87 580 130 645 173 709 236 742 318 742Z"/>
<g clip-path="url(#clip_3)">
<path transform="matrix(.01,0,0,-.01,-1.09375,168.39202)" d="M106 355H732V272H106V355Z"/>
</g>
<path transform="matrix(1,0,0,-1,0,288)" d="M27 154.80673H23.5"/>
<path transform="matrix(1,0,0,-1,0,288)" stroke-width=".8" stroke-linecap="butt" stroke-linejoin="round" fill="none" stroke="#000000" d="M27 154.80673H23.5"/>
<path transform="matrix(.010000001,0,0,-.010000001,7.2851564,136.99015)" d="M124 83H285V639L110 604V694L284 729H383V83H544V0H124V83Z"/>
<path transform="matrix(.010000001,0,0,-.010000001,13.645157,136.99015)" d="M108 729H495V646H198V467C212 472 227 476 241 478 255 480 270 482 284 482 365 482 429 459 477 415 525 370 549 310 549 234 549 155 524 94 475 51 426 8 357-13 269-13 238-13 207-10 175-6 143-1 111 6 77 17V116C106 100 136 88 168 80 199 72 232 69 267 69 323 69 368 83 401 113 433 143 450 183 450 234 450 284 433 324 401 354 368 384 323 399 267 399 241 399 214 396 188 390 162 384 135 375 108 363V729Z"/>
<g clip-path="url(#clip_4)">
<path transform="matrix(.01,0,0,-.01,-1.09375,136.99015)" d="M106 355H732V272H106V355Z"/>
</g>
<path transform="matrix(1,0,0,-1,0,288)" d="M27 186.2086H23.5"/>
<path transform="matrix(1,0,0,-1,0,288)" stroke-width=".8" stroke-linecap="butt" stroke-linejoin="round" fill="none" stroke="#000000" d="M27 186.2086H23.5"/>
<path transform="matrix(.010000001,0,0,-.010000001,7.2851564,105.58827)" d="M124 83H285V639L110 604V694L284 729H383V83H544V0H124V83Z"/>
<path transform="matrix(.010000001,0,0,-.010000001,13.645157,105.58827)" d="M318 664C267 664 229 639 203 589 177 539 165 464 165 364 165 264 177 189 203 139 229 89 267 64 318 64 369 64 407 89 433 139 458 189 471 264 471 364 471 464 458 539 433 589 407 639 369 664 318 664ZM318 742C399 742 461 709 505 645 548 580 570 486 570 364 570 241 548 147 505 83 461 19 399-13 317-13 235-13 173 19 130 83 87 147 66 241 66 364 66 486 87 580 130 645 173 709 236 742 318 742Z"/>
<g clip-path="url(#clip_5)">
<path transform="matrix(.01,0,0,-.01,-1.09375,105.58827)" d="M106 355H732V272H106V355Z"/>
</g>
<path transform="matrix(1,0,0,-1,0,288)" d="M27 217.61048H23.5"/>
<path transform="matrix(1,0,0,-1,0,288)" stroke-width=".8" stroke-linecap="butt" stroke-linejoin="round" fill="none" stroke="#000000" d="M27 217.61048H23.5"/>
<path transform="matrix(.010000001,0,0,-.010000001,13.644531,74.1864)" d="M108 729H495V646H198V467C212 472 227 476 241 478 255 480 270 482 284 482 365 482 429 459 477 415 525 370 549 310 549 234 549 155 524 94 475 51 426 8 357-13 269-13 238-13 207-10 175-6 143-1 111 6 77 17V116C106 100 136 88 168 80 199 72 232 69 267 69 323 69 368 83 401 113 433 143 450 183 450 234 450 284 433 324 401 354 368 384 323 399 267 399 241 399 214 396 188 390 162 384 135 375 108 363V729Z"/>
<g clip-path="url(#clip_6)">
<path transform="matrix(.01,0,0,-.01,5.265625,74.1864)" d="M106 355H732V272H106V355Z"/>
</g>
<path transform="matrix(1,0,0,-1,0,288)" d="M27 249.01233H23.5"/>
<path transform="matrix(1,0,0,-1,0,288)" stroke-width=".8" stroke-linecap="butt" stroke-linejoin="round" fill="none" stroke="#000000" d="M27 249.01233H23.5"/>
<path transform="matrix(.010000001,0,0,-.010000001,13.640625,42.784547)" d="M318 664C267 664 229 639 203 589 177 539 165 464 165 364 165 264 177 189 203 139 229 89 267 64 318 64 369 64 407 89 433 139 458 189 471 264 471 364 471 464 458 539 433 589 407 639 369 664 318 664ZM318 742C399 742 461 709 505 645 548 580 570 486 570 364 570 241 548 147 505 83 461 19 399-13 317-13 235-13 173 19 130 83 87 147 66 241 66 364 66 486 87 580 130 645 173 709 236 742 318 742Z"/>
<g clip-path="url(#clip_7)">
<path transform="matrix(1,0,0,-1,0,288)" stroke-width="1.875" stroke-linecap="square" stroke-linejoin="round" fill="none" stroke="#737373" d="M98.53846 41.76V243.36"/>
</g>
<g clip-path="url(#clip_8)">
<path transform="matrix(1,0,0,-1,0,288)" stroke-width="5.625" stroke-linecap="square" stroke-linejoin="round" fill="none" stroke="#737373" d="M98.53846 90.11888V203.79364"/>
</g>
<g clip-path="url(#clip_9)">
<path transform="matrix(1,0,0,-1,0,288)" stroke-width="1.5" stroke-linecap="square" stroke-linejoin="round" fill="none" stroke="#737373" d="M98.53846 192.48897"/>
<path transform="matrix(1,0,0,-1,0,288)" d="M100.88221 192.48897H96.19471" fill="#ffffff"/>
<path transform="matrix(1,0,0,-1,0,288)" stroke-width="1.125" stroke-linecap="butt" stroke-linejoin="round" fill="none" stroke="#ffffff" d="M100.88221 192.48897H96.19471"/>
</g>
<g clip-path="url(#clip_10)">
<path transform="matrix(1,0,0,-1,0,288)" stroke-width="4" stroke-linecap="round" stroke-linejoin="round" fill="none" stroke="#191919" d="M82.27972 203.79364H114.7972"/>
</g>
<g clip-path="url(#clip_11)">
<path transform="matrix(1,0,0,-1,0,288)" stroke-width="4" stroke-linecap="round" stroke-linejoin="round" fill="none" stroke="#ff6600" d="M82.27972 90.11888H114.7972"/>
</g>
<g clip-path="url(#clip_12)">
<path transform="matrix(1,0,0,-1,0,288)" stroke-width="5.2" stroke-linecap="round" stroke-linejoin="round" fill="none" stroke="#000000" d="M82.27972 192.48897H114.7972"/>
<path transform="matrix(1,0,0,-1,0,288)" stroke-width="4" stroke-linecap="round" stroke-linejoin="round" fill="none" stroke="#ffffff" d="M82.27972 192.48897H114.7972"/>
</g>
<path transform="matrix(1,0,0,-1,0,288)" stroke-width=".8" stroke-linecap="square" stroke-miterlimit="10" stroke-linejoin="miter" fill="none" stroke="#000000" d="M27 31.68V253.44"/>
<path transform="matrix(1,0,0,-1,0,288)" stroke-width=".8" stroke-linecap="square" stroke-miterlimit="10" stroke-linejoin="miter" fill="none" stroke="#000000" d="M194.4 31.68V253.44"/>
<path transform="matrix(1,0,0,-1,0,288)" stroke-width=".8" stroke-linecap="square" stroke-miterlimit="10" stroke-linejoin="miter" fill="none" stroke="#000000" d="M27 31.68H194.4"/>
<path transform="matrix(1,0,0,-1,0,288)" stroke-width=".8" stroke-linecap="square" stroke-miterlimit="10" stroke-linejoin="miter" fill="none" stroke="#000000" d="M27 253.44H194.4"/>
<path transform="matrix(1,0,0,-1,0,288)" stroke-width="5.2" stroke-linecap="square" stroke-linejoin="round" fill="none" stroke="#000000" d="M114.57938 171.4726H121.07938 127.57938"/>
<path transform="matrix(1,0,0,-1,0,288)" stroke-width="4" stroke-linecap="square" stroke-linejoin="round" fill="none" stroke="#ffffff" d="M114.57938 171.4726H121.07938 127.57938"/>
<path transform="matrix(.013,0,0,-.013,131.47937,121.07741)" d="M394 662C322 662 265 635 223 582 181 528 160 456 160 364 160 272 181 199 223 146 265 92 322 66 394 66 465 66 522 92 564 146 606 199 627 272 627 364 627 456 606 528 564 582 522 635 465 662 394 662ZM394 742C496 742 577 707 639 639 700 571 731 479 731 364 731 248 700 157 639 89 577 21 496-13 394-13 291-13 209 21 148 89 86 157 56 248 56 364 56 479 86 571 148 639 209 707 291 742 394 742Z"/>
<path transform="matrix(.013,0,0,-.013,141.71038,121.07741)" d="M30 547H125L296 88 467 547H562L357 0H235L30 547Z"/>
<path transform="matrix(.013,0,0,-.013,149.40637,121.07741)" d="M562 296V252H149C153 190 171 142 205 110 238 78 284 62 344 62 378 62 412 66 444 74 476 82 509 95 541 113V28C509 14 476 3 442-3 408-9 373-13 339-13 251-13 182 12 131 62 80 112 55 181 55 268 55 357 79 428 127 481 175 533 241 560 323 560 397 560 455 536 498 489 540 441 562 377 562 296ZM472 322C471 371 457 410 431 440 404 469 368 484 324 484 274 484 234 469 204 441 174 413 156 373 152 322H472Z"/>
<path transform="matrix(.013,0,0,-.013,157.40137,121.07741)" d="M411 463C401 469 390 473 378 476 366 478 353 480 339 480 288 480 249 463 222 430 194 397 181 350 181 288V0H91V547H181V462C199 495 224 520 254 536 284 552 321 560 365 560 371 560 378 559 386 559 393 558 401 557 411 555V463Z"/>
<path transform="matrix(.013,0,0,-.013,162.74437,121.07741)" d="M343 275C270 275 220 266 192 250 164 233 150 205 150 165 150 133 160 107 181 89 202 70 231 61 267 61 317 61 357 78 387 114 417 149 432 196 432 255V275H343ZM522 312V0H432V83C411 49 385 25 355 10 325-5 287-13 243-13 187-13 142 2 109 33 76 64 60 106 60 159 60 220 80 266 122 298 163 329 224 345 306 345H432V354C432 395 418 427 391 450 364 472 326 484 277 484 245 484 215 480 185 472 155 464 127 453 100 439V522C132 534 164 544 195 550 226 556 256 560 286 560 365 560 424 539 463 498 502 457 522 395 522 312Z"/>
<path transform="matrix(.013,0,0,-.013,170.71338,121.07741)" d="M94 760H184V0H94V760Z"/>
<path transform="matrix(.013,0,0,-.013,174.32736,121.07741)" d="M94 760H184V0H94V760Z"/>
<path transform="matrix(1,0,0,-1,0,288)" stroke-width="4" stroke-linecap="square" stroke-linejoin="round" fill="none" stroke="#191919" d="M114.57938 152.39447H121.07938 127.57938"/>
<path transform="matrix(.013,0,0,-.013,131.47937,140.15554)" d="M378 643 129 254H378V643ZM352 729H476V254H580V172H476V0H378V172H49V267L352 729Z"/>
<path transform="matrix(.013,0,0,-.013,139.74738,140.15554)" d=""/>
<path transform="matrix(.013,0,0,-.013,143.88138,140.15554)" d="M148 273C148 207 161 155 188 117 215 79 252 61 300 61 348 61 385 79 413 117 440 155 454 207 454 273 454 339 440 390 413 428 385 466 348 485 300 485 252 485 215 466 188 428 161 390 148 339 148 273ZM454 82C435 49 411 25 382 10 353-5 319-13 279-13 213-13 159 13 117 65 75 117 55 187 55 273 55 359 75 428 117 481 159 533 213 560 279 560 319 560 353 552 382 536 411 520 435 496 454 464V547H544V-207H454V82Z"/>
<path transform="matrix(.013,0,0,-.013,152.13637,140.15554)" d="M85 216V547H175V219C175 167 185 129 205 103 225 77 255 64 296 64 344 64 383 79 411 110 439 141 453 183 453 237V547H543V0H453V84C431 50 405 26 377 10 348-5 315-13 277-13 214-13 166 6 134 45 101 83 85 140 85 216ZM311 560V560Z"/>
<path transform="matrix(.013,0,0,-.013,160.37837,140.15554)" d="M487 273C487 339 473 390 446 428 418 466 381 485 334 485 286 485 249 466 222 428 194 390 181 339 181 273 181 207 194 155 222 117 249 79 286 61 334 61 381 61 418 79 446 117 473 155 487 207 487 273ZM181 464C199 496 223 520 252 536 281 552 316 560 356 560 422 560 476 533 518 481 559 428 580 359 580 273 580 187 559 117 518 65 476 13 422-13 356-13 316-13 281-5 252 10 223 25 199 49 181 82V0H91V760H181V464Z"/>
<path transform="matrix(.013,0,0,-.013,168.63338,140.15554)" d="M94 547H184V0H94V547ZM94 760H184V646H94V760Z"/>
<path transform="matrix(.013,0,0,-.013,172.24738,140.15554)" d="M183 702V547H368V477H183V180C183 135 189 106 201 94 213 81 238 75 276 75H368V0H276C206 0 158 13 132 39 106 65 93 112 93 180V477H27V547H93V702H183Z"/>
<path transform="matrix(.013,0,0,-.013,177.34339,140.15554)" d="M443 531V446C417 458 391 468 364 475 336 481 308 485 279 485 234 485 200 478 178 464 156 450 145 430 145 403 145 382 153 366 169 354 185 342 217 330 265 320L296 313C360 299 405 279 432 255 458 230 472 195 472 151 472 100 452 60 412 31 372 1 316-13 246-13 216-13 186-10 154-5 122 0 89 8 54 20V113C87 95 120 82 152 74 184 65 216 61 248 61 290 61 323 68 346 82 368 96 380 117 380 144 380 168 371 187 355 200 339 213 303 226 247 238L216 245C160 257 119 275 95 299 70 323 58 356 58 399 58 450 76 490 112 518 148 546 200 560 268 560 301 560 332 557 362 552 391 547 418 540 443 531Z"/>
<path transform="matrix(1,0,0,-1,0,288)" stroke-width="4" stroke-linecap="square" stroke-linejoin="round" fill="none" stroke="#ff6600" d="M114.57938 133.31635H121.07938 127.57938"/>
<path transform="matrix(.013,0,0,-.013,131.47937,159.23366)" d="M124 83H285V639L110 604V694L284 729H383V83H544V0H124V83Z"/>
<path transform="matrix(.013,0,0,-.013,139.74738,159.23366)" d="M192 83H536V0H73V83C110 121 161 173 226 239 290 304 331 346 348 365 380 400 402 430 414 455 426 479 433 504 433 528 433 566 419 598 392 622 365 646 330 659 286 659 255 659 222 653 188 643 154 632 117 616 78 594V694C118 710 155 722 189 730 223 738 255 742 284 742 359 742 419 723 464 685 509 647 532 597 532 534 532 504 526 475 515 449 504 422 484 390 454 354 446 344 420 317 376 272 332 227 271 164 192 83Z"/>
<path transform="matrix(.013,0,0,-.013,148.01537,159.23366)" d=""/>
<path transform="matrix(.013,0,0,-.013,152.14937,159.23366)" d="M148 273C148 207 161 155 188 117 215 79 252 61 300 61 348 61 385 79 413 117 440 155 454 207 454 273 454 339 440 390 413 428 385 466 348 485 300 485 252 485 215 466 188 428 161 390 148 339 148 273ZM454 82C435 49 411 25 382 10 353-5 319-13 279-13 213-13 159 13 117 65 75 117 55 187 55 273 55 359 75 428 117 481 159 533 213 560 279 560 319 560 353 552 382 536 411 520 435 496 454 464V547H544V-207H454V82Z"/>
<path transform="matrix(.013,0,0,-.013,160.40438,159.23366)" d="M85 216V547H175V219C175 167 185 129 205 103 225 77 255 64 296 64 344 64 383 79 411 110 439 141 453 183 453 237V547H543V0H453V84C431 50 405 26 377 10 348-5 315-13 277-13 214-13 166 6 134 45 101 83 85 140 85 216ZM311 560V560Z"/>
<path transform="matrix(.013,0,0,-.013,168.64638,159.23366)" d="M487 273C487 339 473 390 446 428 418 466 381 485 334 485 286 485 249 466 222 428 194 390 181 339 181 273 181 207 194 155 222 117 249 79 286 61 334 61 381 61 418 79 446 117 473 155 487 207 487 273ZM181 464C199 496 223 520 252 536 281 552 316 560 356 560 422 560 476 533 518 481 559 428 580 359 580 273 580 187 559 117 518 65 476 13 422-13 356-13 316-13 281-5 252 10 223 25 199 49 181 82V0H91V760H181V464Z"/>
<path transform="matrix(.013,0,0,-.013,176.90137,159.23366)" d="M94 547H184V0H94V547ZM94 760H184V646H94V760Z"/>
<path transform="matrix(.013,0,0,-.013,180.51538,159.23366)" d="M183 702V547H368V477H183V180C183 135 189 106 201 94 213 81 238 75 276 75H368V0H276C206 0 158 13 132 39 106 65 93 112 93 180V477H27V547H93V702H183Z"/>
<path transform="matrix(.013,0,0,-.013,185.61138,159.23366)" d="M443 531V446C417 458 391 468 364 475 336 481 308 485 279 485 234 485 200 478 178 464 156 450 145 430 145 403 145 382 153 366 169 354 185 342 217 330 265 320L296 313C360 299 405 279 432 255 458 230 472 195 472 151 472 100 452 60 412 31 372 1 316-13 246-13 216-13 186-10 154-5 122 0 89 8 54 20V113C87 95 120 82 152 74 184 65 216 61 248 61 290 61 323 68 346 82 368 96 380 117 380 144 380 168 371 187 355 200 339 213 303 226 247 238L216 245C160 257 119 275 95 299 70 323 58 356 58 399 58 450 76 490 112 518 148 546 200 560 268 560 301 560 332 557 362 552 391 547 418 540 443 531Z"/>
</svg>
