<svg xmlns="http://www.w3.org/2000/svg" xmlns:xlink="http://www.w3.org/1999/xlink" xmlns:inkscape="http://www.inkscape.org/namespaces/inkscape" version="1.1" width="216" height="288" viewBox="0 0 216 288">
<defs>
<clipPath id="clip_0">
<path transform="matrix(1,0,0,-1,0,288)" d="M27 31.68H194.4V253.44H27Z"/>
</clipPath>
<clipPath id="clip_1">
<path transform="matrix(.01,0,0,-.01,-1.09375,242.49869)" d="M-1021-463H1794V1233H-1021Z"/>
</clipPath>
<clipPath id="clip_2">
<path transform="matrix(.01,0,0,-.01,-1.09375,196.0669)" d="M-1021-463H1794V1233H-1021Z"/>
</clipPath>
<clipPath id="clip_3">
<path transform="matrix(.01,0,0,-.01,-1.09375,149.63509)" d="M-1021-463H1794V1233H-1021Z"/>
</clipPath>
<clipPath id="clip_4">
<path transform="matrix(.01,0,0,-.01,-1.09375,103.20328)" d="M-1021-463H1794V1233H-1021Z"/>
</clipPath>
<clipPath id="clip_5">
<path transform="matrix(.01,0,0,-.01,-1.09375,56.771486)" d="M-1021-463H1794V1233H-1021Z"/>
</clipPath>
<clipPath id="clip_6">
<path transform="matrix(1,0,0,-1,0,288)" d="M27 31.68H194.4V253.44H27Z"/>
</clipPath>
<clipPath id="clip_7">
<path transform="matrix(1,0,0,-1,0,288)" d="M27 31.68H194.4V253.44H27Z"/>
</clipPath>
<clipPath id="clip_8">
<path transform="matrix(1,0,0,-1,0,288)" d="M27 31.68H194.4V253.44H27Z"/>
</clipPath>
<clipPath id="clip_9">
<path transform="matrix(1,0,0,-1,0,288)" d="M27 31.68H194.4V253.44H27Z"/>
</clipPath>
</defs>
<path transform="matrix(1,0,0,-1,0,288)" d="M0 0H216V288H0Z" fill="#ffffff"/>
<path transform="matrix(1,0,0,-1,0,288)" d="M27 31.68H194.4V253.44H27Z" fill="#ffffff"/>
<g clip-path="url(#clip_0)">
<path transform="matrix(1,0,0,-1,0,288)" d="M100.97043 41.76H96.10649L95.47341 43.796365 94.65737 45.832727 93.61746 47.86909 92.311138 49.905458 90.69678 51.94182 88.73701 53.978185 86.4023 56.014547 83.67488 58.050909 80.552448 60.087274 77.05125 62.123636 73.20827 64.16 69.082 66.196369 64.75165 68.23273 60.31457 70.26909 55.882043 72.30546 51.57363 74.34182 47.510587 76.37818 43.808778 78.41454 40.57188 80.45091 37.885347 82.487277 35.81175 84.523639 34.38787 86.56 33.62373 88.59637 33.503499 90.63273 33.988149 92.66909 35.019475 94.70545 36.524953 96.74182 38.423055 98.77818 40.62844 100.814548 43.056726 102.85091 45.62844 104.887279 48.27206 106.92364 50.926008 108.96 53.539705 110.99636 56.073743 113.03273 58.49934 115.06909 60.797304 117.10545 62.95664 119.141819 64.97301 121.178188 66.84716 123.21455 68.58346 125.25091 70.18857 127.28727 71.67037 129.32364 73.03714 131.36 74.29694 133.39636 75.457248 135.43273 76.52478 137.46909 77.50555 139.50545 78.40489 141.54183 79.22777 143.57819 79.97893 145.61455 80.66315 147.65091 81.28548 149.68727 81.85129 151.72364 82.3664 153.76 82.83701 155.79637 83.26959 157.83274 83.670719 159.8691 84.046848 161.90546 84.40405 163.94182 84.74783 165.97818 85.08284 168.01454 85.412738 170.0509 85.740077 172.08728 86.06629 174.12364 86.3917 176.16 86.715648 178.19637 87.036647 180.23273 87.35263 182.26909 87.66116 184.30545 87.95971 186.34181 88.24587 188.37819 88.51759 190.41455 88.77333 192.45092 89.01219 194.48728 89.23396 196.52364 89.43916 198.56 89.62901 200.59636 89.80534 202.63272 89.97054 204.6691 90.12744 206.70546 90.27922 208.74182 90.42926 210.77819 90.581119 212.81455 90.73835 214.8509 90.904499 216.88727 91.08293 218.92363 91.27682 220.96 91.48897 222.99637 91.72173 225.03273 91.97689 227.06909 92.255489 229.10546 92.55771 231.14182 92.882808 233.17818 93.22899 235.21454 93.59343 237.25092 93.97228 239.28728 94.36087 241.32364 94.753818 243.36H102.32311L102.71605 241.32364 103.10464 239.28728 103.4835 237.25092 103.84793 235.21454 104.194118 233.17818 104.51922 231.14182 104.82144 229.10546 105.10003 227.06909 105.35519 225.03273 105.58795 222.99637 105.8001 220.96 105.99399 218.92363 106.17243 216.88727 106.33857 214.8509 106.49581 212.81455 106.64766 210.77819 106.79771 208.74182 106.94948 206.70546 107.106388 204.6691 107.27158 202.63272 107.447917 200.59636 107.63776 198.56 107.842967 196.52364 108.064739 194.48728 108.30359 192.45092 108.55933 190.41455 108.831058 188.37819 109.11721 186.34181 109.41576 184.30545 109.72429 182.26909 110.040279 180.23273 110.36128 178.19637 110.68523 176.16 111.010639 174.12364 111.336849 172.08728 111.664188 170.0509 111.99408 168.01454 112.32909 165.97818 112.67287 163.94182 113.03008 161.90546 113.406208 159.8691 113.80733 157.83274 114.239917 155.79637 114.710529 153.76 115.22564 151.72364 115.79145 149.68727 116.41377 147.65091 117.098 145.61455 117.84915 143.57819 118.67203 141.54183 119.57138 139.50545 120.55214 137.46909 121.61968 135.43273 122.77998 133.39636 124.03978 131.36 125.406558 129.32364 126.88836 127.28727 128.49347 125.25091 130.22977 123.21455 132.10391 121.178188 134.12029 119.141819 136.27962 117.10545 138.57759 115.06909 141.00318 113.03273 143.53722 110.99636 146.15091 108.96 148.80487 106.92364 151.44849 104.887279 154.0202 102.85091 156.44849 100.814548 158.65387 98.77818 160.55197 96.74182 162.05745 94.70545 163.08878 92.66909 163.57343 90.63273 163.45319 88.59637 162.68906 86.56 161.26519 84.523639 159.19158 82.487277 156.50504 80.45091 153.26815 78.41454 149.56635 76.37818 145.5033 74.34182 141.19489 72.30546 136.76235 70.26909 132.32527 68.23273 127.99493 66.196369 123.86866 64.16 120.02567 62.123636 116.524478 60.087274 113.40204 58.050909 110.67463 56.014547 108.33992 53.978185 106.38014 51.94182 104.76579 49.905458 103.45946 47.86909 102.419559 45.832727 101.603519 43.796365 100.97043 41.76Z" fill="#8fbfef"/>
<path transform="matrix(1,0,0,-1,0,288)" stroke-width="1.25" stroke-linecap="butt" stroke-linejoin="round" fill="none" stroke="#737373" d="M100.97043 41.76H96.10649L95.47341 43.796365 94.65737 45.832727 93.61746 47.86909 92.311138 49.905458 90.69678 51.94182 88.73701 53.978185 86.4023 56.014547 83.67488 58.050909 80.552448 60.087274 77.05125 62.123636 73.20827 64.16 69.082 66.196369 64.75165 68.23273 60.31457 70.26909 55.882043 72.30546 51.57363 74.34182 47.510587 76.37818 43.808778 78.41454 40.57188 80.45091 37.885347 82.487277 35.81175 84.523639 34.38787 86.56 33.62373 88.59637 33.503499 90.63273 33.988149 92.66909 35.019475 94.70545 36.524953 96.74182 38.423055 98.77818 40.62844 100.814548 43.056726 102.85091 45.62844 104.887279 48.27206 106.92364 50.926008 108.96 53.539705 110.99636 56.073743 113.03273 58.49934 115.06909 60.797304 117.10545 62.95664 119.141819 64.97301 121.178188 66.84716 123.21455 68.58346 125.25091 70.18857 127.28727 71.67037 129.32364 73.03714 131.36 74.29694 133.39636 75.457248 135.43273 76.52478 137.46909 77.50555 139.50545 78.40489 141.54183 79.22777 143.57819 79.97893 145.61455 80.66315 147.65091 81.28548 149.68727 81.85129 151.72364 82.3664 153.76 82.83701 155.79637 83.26959 157.83274 83.670719 159.8691 84.046848 161.90546 84.40405 163.94182 84.74783 165.97818 85.08284 168.01454 85.412738 170.0509 85.740077 172.08728 86.06629 174.12364 86.3917 176.16 86.715648 178.19637 87.036647 180.23273 87.35263 182.26909 87.66116 184.30545 87.95971 186.34181 88.24587 188.37819 88.51759 190.41455 88.77333 192.45092 89.01219 194.48728 89.23396 196.52364 89.43916 198.56 89.62901 200.59636 89.80534 202.63272 89.97054 204.6691 90.12744 206.70546 90.27922 208.74182 90.42926 210.77819 90.581119 212.81455 90.73835 214.8509 90.904499 216.88727 91.08293 218.92363 91.27682 220.96 91.48897 222.99637 91.72173 225.03273 91.97689 227.06909 92.255489 229.10546 92.55771 231.14182 92.882808 233.17818 93.22899 235.21454 93.59343 237.25092 93.97228 239.28728 94.36087 241.32364 94.753818 243.36H102.32311L102.71605 241.32364 103.10464 239.28728 103.4835 237.25092 103.84793 235.21454 104.194118 233.17818 104.51922 231.14182 104.82144 229.10546 105.10003 227.06909 105.35519 225.03273 105.58795 222.99637 105.8001 220.96 105.99399 218.92363 106.17243 216.88727 106.33857 214.8509 106.49581 212.81455 106.64766 210.77819 106.79771 208.74182 106.94948 206.70546 107.106388 204.6691 107.27158 202.63272 107.447917 200.59636 107.63776 198.56 107.842967 196.52364 108.064739 194.48728 108.30359 192.45092 108.55933 190.41455 108.831058 188.37819 109.11721 186.34181 109.41576 184.30545 109.72429 182.26909 110.040279 180.23273 110.36128 178.19637 110.68523 176.16 111.010639 174.12364 111.336849 172.08728 111.664188 170.0509 111.99408 168.01454 112.32909 165.97818 112.67287 163.94182 113.03008 161.90546 113.406208 159.8691 113.80733 157.83274 114.239917 155.79637 114.710529 153.76 115.22564 151.72364 115.79145 149.68727 116.41377 147.65091 117.098 145.61455 117.84915 143.57819 118.67203 141.54183 119.57138 139.50545 120.55214 137.46909 121.61968 135.43273 122.77998 133.39636 124.03978 131.36 125.406558 129.32364 126.88836 127.28727 128.49347 125.25091 130.22977 123.21455 132.10391 121.178188 134.12029 119.141819 136.27962 117.10545 138.57759 115.06909 141.00318 113.03273 143.53722 110.99636 146.15091 108.96 148.80487 106.92364 151.44849 104.887279 154.0202 102.85091 156.44849 100.814548 158.65387 98.77818 160.55197 96.74182 162.05745 94.70545 163.08878 92.66909 163.57343 90.63273 163.45319 88.59637 162.68906 86.56 161.26519 84.523639 159.19158 82.487277 156.50504 80.45091 153.26815 78.41454 149.56635 76.37818 145.5033 74.34182 141.19489 72.30546 136.76235 70.26909 132.32527 68.23273 127.99493 66.196369 123.86866 64.16 120.02567 62.123636 116.524478 60.087274 113.40204 58.050909 110.67463 56.014547 108.33992 53.978185 106.38014 51.94182 104.76579 49.905458 103.45946 47.86909 102.419559 45.832727 101.603519 43.796365 100.97043 41.76Z"/>
</g>
<path transform="matrix(1,0,0,-1,0,288)" d="M27 49.298189H23.5"/>
<path transform="matrix(1,0,0,-1,0,288)" stroke-width=".8" stroke-linecap="butt" stroke-linejoin="round" fill="none" stroke="#000000" d="M27 49.298189H23.5"/>
<path transform="matrix(.010000001,0,0,-.010000001,7.2851564,242.49869)" d="M378 643 129 254H378V643ZM352 729H476V254H580V172H476V0H378V172H49V267L352 729Z"/>
<path transform="matrix(.010000001,0,0,-.010000001,13.645157,242.49869)" d="M318 664C267 664 229 639 203 589 177 539 165 464 165 364 165 264 177 189 203 139 229 89 267 64 318 64 369 64 407 89 433 139 458 189 471 264 471 364 471 464 458 539 433 589 407 639 369 664 318 664ZM318 742C399 742 461 709 505 645 548 580 570 486 570 364 570 241 548 147 505 83 461 19 399-13 317-13 235-13 173 19 130 83 87 147 66 241 66 364 66 486 87 580 130 645 173 709 236 742 318 742Z"/>
<g clip-path="url(#clip_1)">
<path transform="matrix(.01,0,0,-.01,-1.09375,242.49869)" d="M106 355H732V272H106V355Z"/>
</g>
<path transform="matrix(1,0,0,-1,0,288)" d="M27 95.72999H23.5"/>
<path transform="matrix(1,0,0,-1,0,288)" stroke-width=".8" stroke-linecap="butt" stroke-linejoin="round" fill="none" stroke="#000000" d="M27 95.72999H23.5"/>
<path transform="matrix(.010000001,0,0,-.010000001,7.2851564,196.0669)" d="M406 393C453 383 490 362 516 330 542 298 556 258 556 212 556 140 531 84 482 45 432 6 362-13 271-13 240-13 208-10 176-4 144 1 110 10 76 22V117C103 101 133 89 166 81 198 73 232 69 268 69 330 69 377 81 409 105 441 129 458 165 458 212 458 254 443 288 413 312 383 336 341 349 287 349H202V430H291C339 430 376 439 402 459 428 478 441 506 441 543 441 580 427 609 401 629 374 649 336 659 287 659 260 659 231 656 200 650 169 644 135 635 98 623V711C135 721 170 729 203 734 235 739 266 742 296 742 370 742 429 725 473 691 517 657 539 611 539 553 539 513 527 479 504 451 481 423 448 403 406 393Z"/>
<path transform="matrix(.010000001,0,0,-.010000001,13.645157,196.0669)" d="M108 729H495V646H198V467C212 472 227 476 241 478 255 480 270 482 284 482 365 482 429 459 477 415 525 370 549 310 549 234 549 155 524 94 475 51 426 8 357-13 269-13 238-13 207-10 175-6 143-1 111 6 77 17V116C106 100 136 88 168 80 199 72 232 69 267 69 323 69 368 83 401 113 433 143 450 183 450 234 450 284 433 324 401 354 368 384 323 399 267 399 241 399 214 396 188 390 162 384 135 375 108 363V729Z"/>
<g clip-path="url(#clip_2)">
<path transform="matrix(.01,0,0,-.01,-1.09375,196.0669)" d="M106 355H732V272H106V355Z"/>
</g>
<path transform="matrix(1,0,0,-1,0,288)" d="M27 142.16179H23.5"/>
<path transform="matrix(1,0,0,-1,0,288)" stroke-width=".8" stroke-linecap="butt" stroke-linejoin="round" fill="none" stroke="#000000" d="M27 142.16179H23.5"/>
<path transform="matrix(.010000001,0,0,-.010000001,7.2851564,149.63509)" d="M406 393C453 383 490 362 516 330 542 298 556 258 556 212 556 140 531 84 482 45 432 6 362-13 271-13 240-13 208-10 176-4 144 1 110 10 76 22V117C103 101 133 89 166 81 198 73 232 69 268 69 330 69 377 81 409 105 441 129 458 165 458 212 458 254 443 288 413 312 383 336 341 349 287 349H202V430H291C339 430 376 439 402 459 428 478 441 506 441 543 441 580 427 609 401 629 374 649 336 659 287 659 260 659 231 656 200 650 169 644 135 635 98 623V711C135 721 170 729 203 734 235 739 266 742 296 742 370 742 429 725 473 691 517 657 539 611 539 553 539 513 527 479 504 451 481 423 448 403 406 393Z"/>
<path transform="matrix(.010000001,0,0,-.010000001,13.645157,149.63509)" d="M318 664C267 664 229 639 203 589 177 539 165 464 165 364 165 264 177 189 203 139 229 89 267 64 318 64 369 64 407 89 433 139 458 189 471 264 471 364 471 464 458 539 433 589 407 639 369 664 318 664ZM318 742C399 742 461 709 505 645 548 580 570 486 570 364 570 241 548 147 505 83 461 19 399-13 317-13 235-13 173 19 130 83 87 147 66 241 66 364 66 486 87 580 130 645 173 709 236 742 318 742Z"/>
<g clip-path="url(#clip_3)">
<path transform="matrix(.01,0,0,-.01,-1.09375,149.63509)" d="M106 355H732V272H106V355Z"/>
</g>
<path transform="matrix(1,0,0,-1,0,288)" d="M27 188.5936H23.5"/>
<path transform="matrix(1,0,0,-1,0,288)" stroke-width=".8" stroke-linecap="butt" stroke-linejoin="round" fill="none" stroke="#000000" d="M27 188.5936H23.5"/>
<path transform="matrix(.010000001,0,0,-.010000001,7.2851564,103.20328)" d="M192 83H536V0H73V83C110 121 161 173 226 239 290 304 331 346 348 365 380 400 402 430 414 455 426 479 433 504 433 528 433 566 419 598 392 622 365 646 330 659 286 659 255 659 222 653 188 643 154 632 117 616 78 594V694C118 710 155 722 189 730 223 738 255 742 284 742 359 742 419 723 464 685 509 647 532 597 532 534 532 504 526 475 515 449 504 422 484 390 454 354 446 344 420 317 376 272 332 227 271 164 192 83Z"/>
<path transform="matrix(.010000001,0,0,-.010000001,13.645157,103.20328)" d="M108 729H495V646H198V467C212 472 227 476 241 478 255 480 270 482 284 482 365 482 429 459 477 415 525 370 549 310 549 234 549 155 524 94 475 51 426 8 357-13 269-13 238-13 207-10 175-6 143-1 111 6 77 17V116C106 100 136 88 168 80 199 72 232 69 267 69 323 69 368 83 401 113 433 143 450 183 450 234 450 284 433 324 401 354 368 384 323 399 267 399 241 399 214 396 188 390 162 384 135 375 108 363V729Z"/>
<g clip-path="url(#clip_4)">
<path transform="matrix(.01,0,0,-.01,-1.09375,103.20328)" d="M106 355H732V272H106V355Z"/>
</g>
<path transform="matrix(1,0,0,-1,0,288)" d="M27 235.02539H23.5"/>
<path transform="matrix(1,0,0,-1,0,288)" stroke-width=".8" stroke-linecap="butt" stroke-linejoin="round" fill="none" stroke="#000000" d="M27 235.02539H23.5"/>
<path transform="matrix(.010000001,0,0,-.010000001,7.2851564,56.771486)" d="M192 83H536V0H73V83C110 121 161 173 226 239 290 304 331 346 348 365 380 400 402 430 414 455 426 479 433 504 433 528 433 566 419 598 392 622 365 646 330 659 286 659 255 659 222 653 188 643 154 632 117 616 78 594V694C118 710 155 722 189 730 223 738 255 742 284 742 359 742 419 723 464 685 509 647 532 597 532 534 532 504 526 475 515 449 504 422 484 390 454 354 446 344 420 317 376 272 332 227 271 164 192 83Z"/>
<path transform="matrix(.010000001,0,0,-.010000001,13.645157,56.771486)" d="M318 664C267 664 229 639 203 589 177 539 165 464 165 364 165 264 177 189 203 139 229 89 267 64 318 64 369 64 407 89 433 139 458 189 471 264 471 364 471 464 458 539 433 589 407 639 369 664 318 664ZM318 742C399 742 461 709 505 645 548 580 570 486 570 364 570 241 548 147 505 83 461 19 399-13 317-13 235-13 173 19 130 83 87 147 66 241 66 364 66 486 87 580 130 645 173 709 236 742 318 742Z"/>
<g clip-path="url(#clip_5)">
<path transform="matrix(.01,0,0,-.01,-1.09375,56.771486)" d="M106 355H732V272H106V355Z"/>
</g>
<g clip-path="url(#clip_6)">
<path transform="matrix(1,0,0,-1,0,288)" stroke-width="1.875" stroke-linecap="square" stroke-linejoin="round" fill="none" stroke="#737373" d="M98.53846 41.76V210.08301"/>
</g>
<g clip-path="url(#clip_7)">
<path transform="matrix(1,0,0,-1,0,288)" stroke-width="5.625" stroke-linecap="square" stroke-linejoin="round" fill="none" stroke="#737373" d="M98.53846 84.74718V135.4623"/>
</g>
<g clip-path="url(#clip_8)">
<path transform="matrix(1,0,0,-1,0,288)" stroke-width="1.5" stroke-linecap="square" stroke-linejoin="round" fill="none" stroke="#737373" d="M98.53846 100.20092"/>
<path transform="matrix(1,0,0,-1,0,288)" d="M100.88221 100.20092H96.19471" fill="#ffffff"/>
<path transform="matrix(1,0,0,-1,0,288)" stroke-width="1.125" stroke-linecap="butt" stroke-linejoin="round" fill="none" stroke="#ffffff" d="M100.88221 100.20092H96.19471"/>
</g>
<g clip-path="url(#clip_9)">
<path transform="matrix(1,0,0,-1,0,288)" stroke-width="5.2" stroke-linecap="round" stroke-linejoin="round" fill="none" stroke="#000000" d="M82.27972 100.20092H114.7972"/>
<path transform="matrix(1,0,0,-1,0,288)" stroke-width="4" stroke-linecap="round" stroke-linejoin="round" fill="none" stroke="#ffffff" d="M82.27972 100.20092H114.7972"/>
</g>
<path transform="matrix(1,0,0,-1,0,288)" stroke-width=".8" stroke-linecap="square" stroke-miterlimit="10" stroke-linejoin="miter" fill="none" stroke="#000000" d="M27 31.68V253.44"/>
<path transform="matrix(1,0,0,-1,0,288)" stroke-width=".8" stroke-linecap="square" stroke-miterlimit="10" stroke-linejoin="miter" fill="none" stroke="#000000" d="M194.4 31.68V253.44"/>
<path transform="matrix(1,0,0,-1,0,288)" stroke-width=".8" stroke-linecap="square" stroke-miterlimit="10" stroke-linejoin="miter" fill="none" stroke="#000000" d="M27 31.68H194.4"/>
<path transform="matrix(1,0,0,-1,0,288)" stroke-width=".8" stroke-linecap="square" stroke-miterlimit="10" stroke-linejoin="miter" fill="none" stroke="#000000" d="M27 253.44H194.4"/>
<path transform="matrix(1,0,0,-1,0,288)" stroke-width="5.2" stroke-linecap="square" stroke-linejoin="round" fill="none" stroke="#000000" d="M129.01688 161.26486H135.51688 142.01688"/>
<path transform="matrix(1,0,0,-1,0,288)" stroke-width="4" stroke-linecap="square" stroke-linejoin="round" fill="none" stroke="#ffffff" d="M129.01688 161.26486H135.51688 142.01688"/>
<path transform="matrix(.013,0,0,-.013,145.91687,131.28514)" d="M394 662C322 662 265 635 223 582 181 528 160 456 160 364 160 272 181 199 223 146 265 92 322 66 394 66 465 66 522 92 564 146 606 199 627 272 627 364 627 456 606 528 564 582 522 635 465 662 394 662ZM394 742C496 742 577 707 639 639 700 571 731 479 731 364 731 248 700 157 639 89 577 21 496-13 394-13 291-13 209 21 148 89 86 157 56 248 56 364 56 479 86 571 148 639 209 707 291 742 394 742Z"/>
<path transform="matrix(.013,0,0,-.013,156.14788,131.28514)" d="M30 547H125L296 88 467 547H562L357 0H235L30 547Z"/>
<path transform="matrix(.013,0,0,-.013,163.84387,131.28514)" d="M562 296V252H149C153 190 171 142 205 110 238 78 284 62 344 62 378 62 412 66 444 74 476 82 509 95 541 113V28C509 14 476 3 442-3 408-9 373-13 339-13 251-13 182 12 131 62 80 112 55 181 55 268 55 357 79 428 127 481 175 533 241 560 323 560 397 560 455 536 498 489 540 441 562 377 562 296ZM472 322C471 371 457 410 431 440 404 469 368 484 324 484 274 484 234 469 204 441 174 413 156 373 152 322H472Z"/>
<path transform="matrix(.013,0,0,-.013,171.83887,131.28514)" d="M411 463C401 469 390 473 378 476 366 478 353 480 339 480 288 480 249 463 222 430 194 397 181 350 181 288V0H91V547H181V462C199 495 224 520 254 536 284 552 321 560 365 560 371 560 378 559 386 559 393 558 401 557 411 555V463Z"/>
<path transform="matrix(.013,0,0,-.013,177.18187,131.28514)" d="M343 275C270 275 220 266 192 250 164 233 150 205 150 165 150 133 160 107 181 89 202 70 231 61 267 61 317 61 357 78 387 114 417 149 432 196 432 255V275H343ZM522 312V0H432V83C411 49 385 25 355 10 325-5 287-13 243-13 187-13 142 2 109 33 76 64 60 106 60 159 60 220 80 266 122 298 163 329 224 345 306 345H432V354C432 395 418 427 391 450 364 472 326 484 277 484 245 484 215 480 185 472 155 464 127 453 100 439V522C132 534 164 544 195 550 226 556 256 560 286 560 365 560 424 539 463 498 502 457 522 395 522 312Z"/>
<path transform="matrix(.013,0,0,-.013,185.15088,131.28514)" d="M94 760H184V0H94V760Z"/>
<path transform="matrix(.013,0,0,-.013,188.76486,131.28514)" d="M94 760H184V0H94V760Z"/>
</svg>
