<svg xmlns="http://www.w3.org/2000/svg" xmlns:xlink="http://www.w3.org/1999/xlink" xmlns:inkscape="http://www.inkscape.org/namespaces/inkscape" version="1.1" width="216" height="288" viewBox="0 0 216 288">
<defs>
<clipPath id="clip_0">
<path transform="matrix(1,0,0,-1,0,288)" d="M27 31.68H194.4V253.44H27Z"/>
</clipPath>
<clipPath id="clip_1">
<path transform="matrix(.01,0,0,-.01,5.265625,229.87694)" d="M-1021-463H1794V1233H-1021Z"/>
</clipPath>
<clipPath id="clip_2">
<path transform="matrix(.01,0,0,-.01,5.265625,189.55692)" d="M-1021-463H1794V1233H-1021Z"/>
</clipPath>
<clipPath id="clip_3">
<path transform="matrix(1,0,0,-1,0,288)" d="M27 31.68H194.4V253.44H27Z"/>
</clipPath>
<clipPath id="clip_4">
<path transform="matrix(1,0,0,-1,0,288)" d="M27 31.68H194.4V253.44H27Z"/>
</clipPath>
<clipPath id="clip_5">
<path transform="matrix(1,0,0,-1,0,288)" d="M27 31.68H194.4V253.44H27Z"/>
</clipPath>
<clipPath id="clip_6">
<path transform="matrix(1,0,0,-1,0,288)" d="M27 31.68H194.4V253.44H27Z"/>
</clipPath>
</defs>
<path transform="matrix(1,0,0,-1,0,288)" d="M0 0H216V288H0Z" fill="#ffffff"/>
<path transform="matrix(1,0,0,-1,0,288)" d="M27 31.68H194.4V253.44H27Z" fill="#ffffff"/>
<g clip-path="url(#clip_0)">
<path transform="matrix(1,0,0,-1,0,288)" d="M153.8782 41.76H43.198717L43.686628 43.796365 46.860757 45.832727 50.980909 47.86909 54.011205 49.905458 54.357515 51.94182 51.47109 53.978185 46.078866 56.014547 39.93687 58.050909 35.17989 60.087274 33.503499 62.123636 35.49918 64.16 40.41731 66.196369 46.45916 68.23273 51.475816 70.26909 53.787336 72.30546 52.80176 74.34182 49.206377 76.37818 44.67027 78.41454 41.175718 80.45091 40.23374 82.487277 42.28914 84.523639 46.55157 86.56 51.31864 88.59637 54.65636 90.63273 55.16411 92.66909 52.52854 94.70545 47.65864 96.74182 42.349668 98.77818 38.59634 100.814548 37.81456 102.85091 40.279729 104.887279 45.01317 106.92364 50.16557 108.96 53.740114 110.99636 54.36534 113.03273 51.81957 115.06909 47.11211 117.10545 42.09197 119.141819 38.72797 121.178188 38.333929 123.21455 41.045438 125.25091 45.76266 127.28727 50.584238 129.32364 53.555906 131.36 53.43743 133.39636 50.195569 135.43273 45.04281 137.46909 40.011449 139.50545 37.22608 141.54183 38.158006 143.57819 43.155759 145.61455 51.424287 147.65091 61.419427 149.68727 71.44266 151.72364 80.16458 153.76 86.89124 155.79637 91.545368 157.83274 94.46215 159.8691 96.14043 161.90546 97.05236 163.94182 97.54865 165.97818 97.84397 168.01454 98.04665 170.0509 98.20029 172.08728 98.31808 174.12364 98.40376 176.16 98.46075 178.19637 98.49377 180.23273 98.50738 182.26909 98.50407 184.30545 98.483249 186.34181 98.441638 188.37819 98.375118 190.41455 98.28175 192.45092 98.165248 194.48728 98.0372 196.52364 97.91664 198.56 97.825908 200.59636 97.783847 202.63272 97.79915 204.6691 97.8669 206.70546 97.97019 208.74182 98.08605 210.77819 98.19297 212.81455 98.27677 214.8509 98.33287 216.88727 98.36478 218.92363 98.3803 220.96 98.38716 222.99637 98.38972 225.03273 98.38755 227.06909 98.37624 229.10546 98.3499 231.14182 98.30458 233.17818 98.2415 235.21454 98.16862 237.25092 98.09962 239.28728 98.0503 241.32364 98.03349 243.36H99.043437L99.02662 241.32364 98.97731 239.28728 98.90831 237.25092 98.83542 235.21454 98.77234 233.17818 98.72702 231.14182 98.700679 229.10546 98.68938 227.06909 98.68721 225.03273 98.68976 222.99637 98.696628 220.96 98.71214 218.92363 98.74406 216.88727 98.80015 214.8509 98.88395 212.81455 98.99087 210.77819 99.10673 208.74182 99.21002 206.70546 99.27778 204.6691 99.29308 202.63272 99.251018 200.59636 99.16028 198.56 99.03973 196.52364 98.911678 194.48728 98.795169 192.45092 98.701808 190.41455 98.635288 188.37819 98.59368 186.34181 98.57285 184.30545 98.56954 182.26909 98.58315 180.23273 98.61617 178.19637 98.67316 176.16 98.75885 174.12364 98.87663 172.08728 99.03027 170.0509 99.232959 168.01454 99.52827 165.97818 100.02456 163.94182 100.9365 161.90546 102.61478 159.8691 105.53156 157.83274 110.18568 155.79637 116.912349 153.76 125.63426 151.72364 135.6575 149.68727 145.65264 147.65091 153.92118 145.61455 158.91892 143.57819 159.85085 141.54183 157.06548 139.50545 152.03412 137.46909 146.88135 135.43273 143.6395 133.39636 143.52103 131.36 146.49269 129.32364 151.31426 127.28727 156.0315 125.25091 158.743 123.21455 158.34896 121.178188 154.98496 119.141819 149.96482 117.10545 145.25736 115.06909 142.71158 113.03273 143.3368 110.99636 146.91135 108.96 152.06375 106.92364 156.7972 104.887279 159.26236 102.85091 158.48058 100.814548 154.72725 98.77818 149.41828 96.74182 144.54839 94.70545 141.91281 92.66909 142.42057 90.63273 145.75829 88.59637 150.52535 86.56 154.78778 84.523639 156.84319 82.487277 155.90122 80.45091 152.40665 78.41454 147.87055 76.37818 144.27516 74.34182 143.2896 72.30546 145.6011 70.26909 150.61777 68.23273 156.65962 66.196369 161.57775 64.16 163.57343 62.123636 161.89704 60.087274 157.14005 58.050909 150.99806 56.014547 145.60584 53.978185 142.7194 51.94182 143.06572 49.905458 146.09601 47.86909 150.21617 45.832727 153.3903 43.796365 153.8782 41.76Z" fill="#8fbfef"/>
<path transform="matrix(1,0,0,-1,0,288)" stroke-width="1.25" stroke-linecap="butt" stroke-linejoin="round" fill="none" stroke="#737373" d="M153.8782 41.76H43.198717L43.686628 43.796365 46.860757 45.832727 50.980909 47.86909 54.011205 49.905458 54.357515 51.94182 51.47109 53.978185 46.078866 56.014547 39.93687 58.050909 35.17989 60.087274 33.503499 62.123636 35.49918 64.16 40.41731 66.196369 46.45916 68.23273 51.475816 70.26909 53.787336 72.30546 52.80176 74.34182 49.206377 76.37818 44.67027 78.41454 41.175718 80.45091 40.23374 82.487277 42.28914 84.523639 46.55157 86.56 51.31864 88.59637 54.65636 90.63273 55.16411 92.66909 52.52854 94.70545 47.65864 96.74182 42.349668 98.77818 38.59634 100.814548 37.81456 102.85091 40.279729 104.887279 45.01317 106.92364 50.16557 108.96 53.740114 110.99636 54.36534 113.03273 51.81957 115.06909 47.11211 117.10545 42.09197 119.141819 38.72797 121.178188 38.333929 123.21455 41.045438 125.25091 45.76266 127.28727 50.584238 129.32364 53.555906 131.36 53.43743 133.39636 50.195569 135.43273 45.04281 137.46909 40.011449 139.50545 37.22608 141.54183 38.158006 143.57819 43.155759 145.61455 51.424287 147.65091 61.419427 149.68727 71.44266 151.72364 80.16458 153.76 86.89124 155.79637 91.545368 157.83274 94.46215 159.8691 96.14043 161.90546 97.05236 163.94182 97.54865 165.97818 97.84397 168.01454 98.04665 170.0509 98.20029 172.08728 98.31808 174.12364 98.40376 176.16 98.46075 178.19637 98.49377 180.23273 98.50738 182.26909 98.50407 184.30545 98.483249 186.34181 98.441638 188.37819 98.375118 190.41455 98.28175 192.45092 98.165248 194.48728 98.0372 196.52364 97.91664 198.56 97.825908 200.59636 97.783847 202.63272 97.79915 204.6691 97.8669 206.70546 97.97019 208.74182 98.08605 210.77819 98.19297 212.81455 98.27677 214.8509 98.33287 216.88727 98.36478 218.92363 98.3803 220.96 98.38716 222.99637 98.38972 225.03273 98.38755 227.06909 98.37624 229.10546 98.3499 231.14182 98.30458 233.17818 98.2415 235.21454 98.16862 237.25092 98.09962 239.28728 98.0503 241.32364 98.03349 243.36H99.043437L99.02662 241.32364 98.97731 239.28728 98.90831 237.25092 98.83542 235.21454 98.77234 233.17818 98.72702 231.14182 98.700679 229.10546 98.68938 227.06909 98.68721 225.03273 98.68976 222.99637 98.696628 220.96 98.71214 218.92363 98.74406 216.88727 98.80015 214.8509 98.88395 212.81455 98.99087 210.77819 99.10673 208.74182 99.21002 206.70546 99.27778 204.6691 99.29308 202.63272 99.251018 200.59636 99.16028 198.56 99.03973 196.52364 98.911678 194.48728 98.795169 192.45092 98.701808 190.41455 98.635288 188.37819 98.59368 186.34181 98.57285 184.30545 98.56954 182.26909 98.58315 180.23273 98.61617 178.19637 98.67316 176.16 98.75885 174.12364 98.87663 172.08728 99.03027 170.0509 99.232959 168.01454 99.52827 165.97818 100.02456 163.94182 100.9365 161.90546 102.61478 159.8691 105.53156 157.83274 110.18568 155.79637 116.912349 153.76 125.63426 151.72364 135.6575 149.68727 145.65264 147.65091 153.92118 145.61455 158.91892 143.57819 159.85085 141.54183 157.06548 139.50545 152.03412 137.46909 146.88135 135.43273 143.6395 133.39636 143.52103 131.36 146.49269 129.32364 151.31426 127.28727 156.0315 125.25091 158.743 123.21455 158.34896 121.178188 154.98496 119.141819 149.96482 117.10545 145.25736 115.06909 142.71158 113.03273 143.3368 110.99636 146.91135 108.96 152.06375 106.92364 156.7972 104.887279 159.26236 102.85091 158.48058 100.814548 154.72725 98.77818 149.41828 96.74182 144.54839 94.70545 141.91281 92.66909 142.42057 90.63273 145.75829 88.59637 150.52535 86.56 154.78778 84.523639 156.84319 82.487277 155.90122 80.45091 152.40665 78.41454 147.87055 76.37818 144.27516 74.34182 143.2896 72.30546 145.6011 70.26909 150.61777 68.23273 156.65962 66.196369 161.57775 64.16 163.57343 62.123636 161.89704 60.087274 157.14005 58.050909 150.99806 56.014547 145.60584 53.978185 142.7194 51.94182 143.06572 49.905458 146.09601 47.86909 150.21617 45.832727 153.3903 43.796365 153.8782 41.76Z"/>
</g>
<path transform="matrix(1,0,0,-1,0,288)" d="M27 61.91994H23.5"/>
<path transform="matrix(1,0,0,-1,0,288)" stroke-width=".8" stroke-linecap="butt" stroke-linejoin="round" fill="none" stroke="#000000" d="M27 61.91994H23.5"/>
<path transform="matrix(.010000001,0,0,-.010000001,13.644531,229.87694)" d="M192 83H536V0H73V83C110 121 161 173 226 239 290 304 331 346 348 365 380 400 402 430 414 455 426 479 433 504 433 528 433 566 419 598 392 622 365 646 330 659 286 659 255 659 222 653 188 643 154 632 117 616 78 594V694C118 710 155 722 189 730 223 738 255 742 284 742 359 742 419 723 464 685 509 647 532 597 532 534 532 504 526 475 515 449 504 422 484 390 454 354 446 344 420 317 376 272 332 227 271 164 192 83Z"/>
<g clip-path="url(#clip_1)">
<path transform="matrix(.01,0,0,-.01,5.265625,229.87694)" d="M106 355H732V272H106V355Z"/>
</g>
<path transform="matrix(1,0,0,-1,0,288)" d="M27 102.23996H23.5"/>
<path transform="matrix(1,0,0,-1,0,288)" stroke-width=".8" stroke-linecap="butt" stroke-linejoin="round" fill="none" stroke="#000000" d="M27 102.23996H23.5"/>
<path transform="matrix(.010000001,0,0,-.010000001,13.644531,189.55692)" d="M124 83H285V639L110 604V694L284 729H383V83H544V0H124V83Z"/>
<g clip-path="url(#clip_2)">
<path transform="matrix(.01,0,0,-.01,5.265625,189.55692)" d="M106 355H732V272H106V355Z"/>
</g>
<path transform="matrix(1,0,0,-1,0,288)" d="M27 142.55997H23.5"/>
<path transform="matrix(1,0,0,-1,0,288)" stroke-width=".8" stroke-linecap="butt" stroke-linejoin="round" fill="none" stroke="#000000" d="M27 142.55997H23.5"/>
<path transform="matrix(.010000001,0,0,-.010000001,13.640625,149.23691)" d="M318 664C267 664 229 639 203 589 177 539 165 464 165 364 165 264 177 189 203 139 229 89 267 64 318 64 369 64 407 89 433 139 458 189 471 264 471 364 471 464 458 539 433 589 407 639 369 664 318 664ZM318 742C399 742 461 709 505 645 548 580 570 486 570 364 570 241 548 147 505 83 461 19 399-13 317-13 235-13 173 19 130 83 87 147 66 241 66 364 66 486 87 580 130 645 173 709 236 742 318 742Z"/>
<path transform="matrix(1,0,0,-1,0,288)" d="M27 182.87999H23.5"/>
<path transform="matrix(1,0,0,-1,0,288)" stroke-width=".8" stroke-linecap="butt" stroke-linejoin="round" fill="none" stroke="#000000" d="M27 182.87999H23.5"/>
<path transform="matrix(.010000001,0,0,-.010000001,13.640625,108.916889)" d="M124 83H285V639L110 604V694L284 729H383V83H544V0H124V83Z"/>
<path transform="matrix(1,0,0,-1,0,288)" d="M27 223.2H23.5"/>
<path transform="matrix(1,0,0,-1,0,288)" stroke-width=".8" stroke-linecap="butt" stroke-linejoin="round" fill="none" stroke="#000000" d="M27 223.2H23.5"/>
<path transform="matrix(.010000001,0,0,-.010000001,13.640625,68.59688)" d="M192 83H536V0H73V83C110 121 161 173 226 239 290 304 331 346 348 365 380 400 402 430 414 455 426 479 433 504 433 528 433 566 419 598 392 622 365 646 330 659 286 659 255 659 222 653 188 643 154 632 117 616 78 594V694C118 710 155 722 189 730 223 738 255 742 284 742 359 742 419 723 464 685 509 647 532 597 532 534 532 504 526 475 515 449 504 422 484 390 454 354 446 344 420 317 376 272 332 227 271 164 192 83Z"/>
<g clip-path="url(#clip_3)">
<path transform="matrix(1,0,0,-1,0,288)" stroke-width="1.875" stroke-linecap="square" stroke-linejoin="round" fill="none" stroke="#737373" d="M98.53846 41.76V203.04001"/>
</g>
<g clip-path="url(#clip_4)">
<path transform="matrix(1,0,0,-1,0,288)" stroke-width="5.625" stroke-linecap="square" stroke-linejoin="round" fill="none" stroke="#737373" d="M98.53846 62.000368V122.42005"/>
</g>
<g clip-path="url(#clip_5)">
<path transform="matrix(1,0,0,-1,0,288)" stroke-width="1.5" stroke-linecap="square" stroke-linejoin="round" fill="none" stroke="#737373" d="M98.53846 102.24364"/>
<path transform="matrix(1,0,0,-1,0,288)" d="M100.88221 102.24364H96.19471" fill="#ffffff"/>
<path transform="matrix(1,0,0,-1,0,288)" stroke-width="1.125" stroke-linecap="butt" stroke-linejoin="round" fill="none" stroke="#ffffff" d="M100.88221 102.24364H96.19471"/>
</g>
<g clip-path="url(#clip_6)">
<path transform="matrix(1,0,0,-1,0,288)" stroke-width="5.2" stroke-linecap="round" stroke-linejoin="round" fill="none" stroke="#000000" d="M82.27972 102.24364H114.7972"/>
<path transform="matrix(1,0,0,-1,0,288)" stroke-width="4" stroke-linecap="round" stroke-linejoin="round" fill="none" stroke="#ffffff" d="M82.27972 102.24364H114.7972"/>
</g>
<path transform="matrix(1,0,0,-1,0,288)" stroke-width=".8" stroke-linecap="square" stroke-miterlimit="10" stroke-linejoin="miter" fill="none" stroke="#000000" d="M27 31.68V253.44"/>
<path transform="matrix(1,0,0,-1,0,288)" stroke-width=".8" stroke-linecap="square" stroke-miterlimit="10" stroke-linejoin="miter" fill="none" stroke="#000000" d="M194.4 31.68V253.44"/>
<path transform="matrix(1,0,0,-1,0,288)" stroke-width=".8" stroke-linecap="square" stroke-miterlimit="10" stroke-linejoin="miter" fill="none" stroke="#000000" d="M27 31.68H194.4"/>
<path transform="matrix(1,0,0,-1,0,288)" stroke-width=".8" stroke-linecap="square" stroke-miterlimit="10" stroke-linejoin="miter" fill="none" stroke="#000000" d="M27 253.44H194.4"/>
<path transform="matrix(1,0,0,-1,0,288)" stroke-width="5.2" stroke-linecap="square" stroke-linejoin="round" fill="none" stroke="#000000" d="M129.01688 161.26486H135.51688 142.01688"/>
<path transform="matrix(1,0,0,-1,0,288)" stroke-width="4" stroke-linecap="square" stroke-linejoin="round" fill="none" stroke="#ffffff" d="M129.01688 161.26486H135.51688 142.01688"/>
<path transform="matrix(.013,0,0,-.013,145.91687,131.28514)" d="M394 662C322 662 265 635 223 582 181 528 160 456 160 364 160 272 181 199 223 146 265 92 322 66 394 66 465 66 522 92 564 146 606 199 627 272 627 364 627 456 606 528 564 582 522 635 465 662 394 662ZM394 742C496 742 577 707 639 639 700 571 731 479 731 364 731 248 700 157 639 89 577 21 496-13 394-13 291-13 209 21 148 89 86 157 56 248 56 364 56 479 86 571 148 639 209 707 291 742 394 742Z"/>
<path transform="matrix(.013,0,0,-.013,156.14788,131.28514)" d="M30 547H125L296 88 467 547H562L357 0H235L30 547Z"/>
<path transform="matrix(.013,0,0,-.013,163.84387,131.28514)" d="M562 296V252H149C153 190 171 142 205 110 238 78 284 62 344 62 378 62 412 66 444 74 476 82 509 95 541 113V28C509 14 476 3 442-3 408-9 373-13 339-13 251-13 182 12 131 62 80 112 55 181 55 268 55 357 79 428 127 481 175 533 241 560 323 560 397 560 455 536 498 489 540 441 562 377 562 296ZM472 322C471 371 457 410 431 440 404 469 368 484 324 484 274 484 234 469 204 441 174 413 156 373 152 322H472Z"/>
<path transform="matrix(.013,0,0,-.013,171.83887,131.28514)" d="M411 463C401 469 390 473 378 476 366 478 353 480 339 480 288 480 249 463 222 430 194 397 181 350 181 288V0H91V547H181V462C199 495 224 520 254 536 284 552 321 560 365 560 371 560 378 559 386 559 393 558 401 557 411 555V463Z"/>
<path transform="matrix(.013,0,0,-.013,177.18187,131.28514)" d="M343 275C270 275 220 266 192 250 164 233 150 205 150 165 150 133 160 107 181 89 202 70 231 61 267 61 317 61 357 78 387 114 417 149 432 196 432 255V275H343ZM522 312V0H432V83C411 49 385 25 355 10 325-5 287-13 243-13 187-13 142 2 109 33 76 64 60 106 60 159 60 220 80 266 122 298 163 329 224 345 306 345H432V354C432 395 418 427 391 450 364 472 326 484 277 484 245 484 215 480 185 472 155 464 127 453 100 439V522C132 534 164 544 195 550 226 556 256 560 286 560 365 560 424 539 463 498 502 457 522 395 522 312Z"/>
<path transform="matrix(.013,0,0,-.013,185.15088,131.28514)" d="M94 760H184V0H94V760Z"/>
<path transform="matrix(.013,0,0,-.013,188.76486,131.28514)" d="M94 760H184V0H94V760Z"/>
</svg>
