<svg xmlns="http://www.w3.org/2000/svg" xmlns:xlink="http://www.w3.org/1999/xlink" xmlns:inkscape="http://www.inkscape.org/namespaces/inkscape" version="1.1" width="216" height="288" viewBox="0 0 216 288">
<defs>
<clipPath id="clip_0">
<path transform="matrix(1,0,0,-1,0,288)" d="M27 31.68H194.4V253.44H27Z"/>
</clipPath>
<clipPath id="clip_1">
<path transform="matrix(.01,0,0,-.01,-1.09375,225.2223)" d="M-1021-463H1794V1233H-1021Z"/>
</clipPath>
<clipPath id="clip_2">
<path transform="matrix(.01,0,0,-.01,-1.09375,189.86522)" d="M-1021-463H1794V1233H-1021Z"/>
</clipPath>
<clipPath id="clip_3">
<path transform="matrix(.01,0,0,-.01,-1.09375,154.50814)" d="M-1021-463H1794V1233H-1021Z"/>
</clipPath>
<clipPath id="clip_4">
<path transform="matrix(.01,0,0,-.01,-1.09375,119.15105)" d="M-1021-463H1794V1233H-1021Z"/>
</clipPath>
<clipPath id="clip_5">
<path transform="matrix(.01,0,0,-.01,-1.09375,83.79396)" d="M-1021-463H1794V1233H-1021Z"/>
</clipPath>
<clipPath id="clip_6">
<path transform="matrix(1,0,0,-1,0,288)" d="M27 31.68H194.4V253.44H27Z"/>
</clipPath>
<clipPath id="clip_7">
<path transform="matrix(1,0,0,-1,0,288)" d="M27 31.68H194.4V253.44H27Z"/>
</clipPath>
<clipPath id="clip_8">
<path transform="matrix(1,0,0,-1,0,288)" d="M27 31.68H194.4V253.44H27Z"/>
</clipPath>
<clipPath id="clip_9">
<path transform="matrix(1,0,0,-1,0,288)" d="M27 31.68H194.4V253.44H27Z"/>
</clipPath>
</defs>
<path transform="matrix(1,0,0,-1,0,288)" d="M0 0H216V288H0Z" fill="#ffffff"/>
<path transform="matrix(1,0,0,-1,0,288)" d="M27 31.68H194.4V253.44H27Z" fill="#ffffff"/>
<g clip-path="url(#clip_0)">
<path transform="matrix(1,0,0,-1,0,288)" d="M107.124088 41.76H89.95284L88.168819 43.796365 86.22303 45.832727 84.14087 47.86909 81.95258 49.905458 79.691799 51.94182 77.39399 53.978185 75.09494 56.014547 72.828998 58.050909 70.627147 60.087274 68.51472 62.123636 66.50899 64.16 64.61689 66.196369 62.83348 68.23273 61.141664 70.26909 59.51361 72.30546 57.91403 74.34182 56.304994 76.37818 54.6516 78.41454 52.927564 80.45091 51.11972 82.487277 49.23073 84.523639 47.27951 86.56 45.299558 88.59637 43.335454 90.63273 41.438325 92.66909 39.660844 94.70545 38.05246 96.74182 36.65527 98.77818 35.500905 100.814548 34.608533 102.85091 33.984224 104.887279 33.621568 106.92364 33.503499 108.96 33.605054 110.99636 33.89662 113.03273 34.347208 115.06909 34.927175 117.10545 35.610185 119.141819 36.374124 121.178188 37.201208 123.21455 38.077535 125.25091 38.9924 127.28727 39.93772 129.32364 40.907506 131.36 41.89745 133.39636 42.90436 135.43273 43.925329 137.46909 44.956659 139.50545 45.992715 141.54183 47.025 143.57819 48.04177 145.61455 49.028299 147.65091 49.967885 149.68727 50.843305 151.72364 51.638475 153.76 52.339948 155.79637 52.93816 157.83274 53.428304 159.8691 53.810945 161.90546 54.092569 163.94182 54.286085 165.97818 54.411325 168.01454 54.495309 170.0509 54.571985 172.08728 54.681066 174.12364 54.865728 176.16 55.169115 178.19637 55.62998 180.23273 56.278047 182.26909 57.13003 184.30545 58.187135 186.34181 59.43479 188.37819 60.84488 190.41455 62.38009 192.45092 63.99964 194.48728 65.66521 196.52364 67.345767 198.56 69.02055 200.59636 70.67961 202.63272 72.322109 204.6691 73.9531 206.70546 75.579639 208.74182 77.207149 210.77819 78.83686 212.81455 80.46449 214.8509 82.08028 216.88727 83.67003 218.92363 85.2168 220.96 86.70277 222.99637 88.11104 225.03273 89.42714 227.06909 90.64013 229.10546 91.74326 231.14182 92.734188 233.17818 93.61465 235.21454 94.38983 237.25092 95.0674 239.28728 95.65634 241.32364 96.16599 243.36H100.91093L101.42058 241.32364 102.00953 239.28728 102.68709 237.25092 103.46228 235.21454 104.342739 233.17818 105.33366 231.14182 106.43679 229.10546 107.64978 227.06909 108.96588 225.03273 110.37416 222.99637 111.86013 220.96 113.4069 218.92363 114.99664 216.88727 116.61243 214.8509 118.24006 212.81455 119.869777 210.77819 121.49729 208.74182 123.123828 206.70546 124.754817 204.6691 126.397319 202.63272 128.05637 200.59636 129.73116 198.56 131.41172 196.52364 133.07729 194.48728 134.69684 192.45092 136.23204 190.41455 137.64214 188.37819 138.88979 186.34181 139.9469 184.30545 140.79888 182.26909 141.44695 180.23273 141.9078 178.19637 142.2112 176.16 142.39586 174.12364 142.50495 172.08728 142.58162 170.0509 142.6656 168.01454 142.79084 165.97818 142.98436 163.94182 143.26598 161.90546 143.64862 159.8691 144.13877 157.83274 144.73699 155.79637 145.43845 153.76 146.23361 151.72364 147.10904 149.68727 148.04863 147.65091 149.03516 145.61455 150.05193 143.57819 151.08422 141.54183 152.12027 139.50545 153.1516 137.46909 154.17256 135.43273 155.17948 133.39636 156.16942 131.36 157.1392 129.32364 158.08452 127.28727 158.99939 125.25091 159.87572 123.21455 160.7028 121.178188 161.46674 119.141819 162.14975 117.10545 162.72972 115.06909 163.1803 113.03273 163.47188 110.99636 163.57343 108.96 163.45536 106.92364 163.0927 104.887279 162.4684 102.85091 161.57602 100.814548 160.42165 98.77818 159.02446 96.74182 157.41608 94.70545 155.6386 92.66909 153.74147 90.63273 151.77738 88.59637 149.79741 86.56 147.84619 84.523639 145.9572 82.487277 144.14937 80.45091 142.42533 78.41454 140.77193 76.37818 139.16289 74.34182 137.56331 72.30546 135.93526 70.26909 134.24344 68.23273 132.46004 66.196369 130.56793 64.16 128.56221 62.123636 126.44978 60.087274 124.247928 58.050909 121.98199 56.014547 119.68294 53.978185 117.38513 51.94182 115.124347 49.905458 112.93606 47.86909 110.8539 45.832727 108.90811 43.796365 107.124088 41.76Z" fill="#8fbfef"/>
<path transform="matrix(1,0,0,-1,0,288)" stroke-width="1.25" stroke-linecap="butt" stroke-linejoin="round" fill="none" stroke="#737373" d="M107.124088 41.76H89.95284L88.168819 43.796365 86.22303 45.832727 84.14087 47.86909 81.95258 49.905458 79.691799 51.94182 77.39399 53.978185 75.09494 56.014547 72.828998 58.050909 70.627147 60.087274 68.51472 62.123636 66.50899 64.16 64.61689 66.196369 62.83348 68.23273 61.141664 70.26909 59.51361 72.30546 57.91403 74.34182 56.304994 76.37818 54.6516 78.41454 52.927564 80.45091 51.11972 82.487277 49.23073 84.523639 47.27951 86.56 45.299558 88.59637 43.335454 90.63273 41.438325 92.66909 39.660844 94.70545 38.05246 96.74182 36.65527 98.77818 35.500905 100.814548 34.608533 102.85091 33.984224 104.887279 33.621568 106.92364 33.503499 108.96 33.605054 110.99636 33.89662 113.03273 34.347208 115.06909 34.927175 117.10545 35.610185 119.141819 36.374124 121.178188 37.201208 123.21455 38.077535 125.25091 38.9924 127.28727 39.93772 129.32364 40.907506 131.36 41.89745 133.39636 42.90436 135.43273 43.925329 137.46909 44.956659 139.50545 45.992715 141.54183 47.025 143.57819 48.04177 145.61455 49.028299 147.65091 49.967885 149.68727 50.843305 151.72364 51.638475 153.76 52.339948 155.79637 52.93816 157.83274 53.428304 159.8691 53.810945 161.90546 54.092569 163.94182 54.286085 165.97818 54.411325 168.01454 54.495309 170.0509 54.571985 172.08728 54.681066 174.12364 54.865728 176.16 55.169115 178.19637 55.62998 180.23273 56.278047 182.26909 57.13003 184.30545 58.187135 186.34181 59.43479 188.37819 60.84488 190.41455 62.38009 192.45092 63.99964 194.48728 65.66521 196.52364 67.345767 198.56 69.02055 200.59636 70.67961 202.63272 72.322109 204.6691 73.9531 206.70546 75.579639 208.74182 77.207149 210.77819 78.83686 212.81455 80.46449 214.8509 82.08028 216.88727 83.67003 218.92363 85.2168 220.96 86.70277 222.99637 88.11104 225.03273 89.42714 227.06909 90.64013 229.10546 91.74326 231.14182 92.734188 233.17818 93.61465 235.21454 94.38983 237.25092 95.0674 239.28728 95.65634 241.32364 96.16599 243.36H100.91093L101.42058 241.32364 102.00953 239.28728 102.68709 237.25092 103.46228 235.21454 104.342739 233.17818 105.33366 231.14182 106.43679 229.10546 107.64978 227.06909 108.96588 225.03273 110.37416 222.99637 111.86013 220.96 113.4069 218.92363 114.99664 216.88727 116.61243 214.8509 118.24006 212.81455 119.869777 210.77819 121.49729 208.74182 123.123828 206.70546 124.754817 204.6691 126.397319 202.63272 128.05637 200.59636 129.73116 198.56 131.41172 196.52364 133.07729 194.48728 134.69684 192.45092 136.23204 190.41455 137.64214 188.37819 138.88979 186.34181 139.9469 184.30545 140.79888 182.26909 141.44695 180.23273 141.9078 178.19637 142.2112 176.16 142.39586 174.12364 142.50495 172.08728 142.58162 170.0509 142.6656 168.01454 142.79084 165.97818 142.98436 163.94182 143.26598 161.90546 143.64862 159.8691 144.13877 157.83274 144.73699 155.79637 145.43845 153.76 146.23361 151.72364 147.10904 149.68727 148.04863 147.65091 149.03516 145.61455 150.05193 143.57819 151.08422 141.54183 152.12027 139.50545 153.1516 137.46909 154.17256 135.43273 155.17948 133.39636 156.16942 131.36 157.1392 129.32364 158.08452 127.28727 158.99939 125.25091 159.87572 123.21455 160.7028 121.178188 161.46674 119.141819 162.14975 117.10545 162.72972 115.06909 163.1803 113.03273 163.47188 110.99636 163.57343 108.96 163.45536 106.92364 163.0927 104.887279 162.4684 102.85091 161.57602 100.814548 160.42165 98.77818 159.02446 96.74182 157.41608 94.70545 155.6386 92.66909 153.74147 90.63273 151.77738 88.59637 149.79741 86.56 147.84619 84.523639 145.9572 82.487277 144.14937 80.45091 142.42533 78.41454 140.77193 76.37818 139.16289 74.34182 137.56331 72.30546 135.93526 70.26909 134.24344 68.23273 132.46004 66.196369 130.56793 64.16 128.56221 62.123636 126.44978 60.087274 124.247928 58.050909 121.98199 56.014547 119.68294 53.978185 117.38513 51.94182 115.124347 49.905458 112.93606 47.86909 110.8539 45.832727 108.90811 43.796365 107.124088 41.76Z"/>
</g>
<path transform="matrix(1,0,0,-1,0,288)" d="M27 66.57457H23.5"/>
<path transform="matrix(1,0,0,-1,0,288)" stroke-width=".8" stroke-linecap="butt" stroke-linejoin="round" fill="none" stroke="#000000" d="M27 66.57457H23.5"/>
<path transform="matrix(.010000001,0,0,-.010000001,7.2851564,225.2223)" d="M108 729H495V646H198V467C212 472 227 476 241 478 255 480 270 482 284 482 365 482 429 459 477 415 525 370 549 310 549 234 549 155 524 94 475 51 426 8 357-13 269-13 238-13 207-10 175-6 143-1 111 6 77 17V116C106 100 136 88 168 80 199 72 232 69 267 69 323 69 368 83 401 113 433 143 450 183 450 234 450 284 433 324 401 354 368 384 323 399 267 399 241 399 214 396 188 390 162 384 135 375 108 363V729Z"/>
<path transform="matrix(.010000001,0,0,-.010000001,13.645157,225.2223)" d="M318 664C267 664 229 639 203 589 177 539 165 464 165 364 165 264 177 189 203 139 229 89 267 64 318 64 369 64 407 89 433 139 458 189 471 264 471 364 471 464 458 539 433 589 407 639 369 664 318 664ZM318 742C399 742 461 709 505 645 548 580 570 486 570 364 570 241 548 147 505 83 461 19 399-13 317-13 235-13 173 19 130 83 87 147 66 241 66 364 66 486 87 580 130 645 173 709 236 742 318 742Z"/>
<g clip-path="url(#clip_1)">
<path transform="matrix(.01,0,0,-.01,-1.09375,225.2223)" d="M106 355H732V272H106V355Z"/>
</g>
<path transform="matrix(1,0,0,-1,0,288)" d="M27 101.931659H23.5"/>
<path transform="matrix(1,0,0,-1,0,288)" stroke-width=".8" stroke-linecap="butt" stroke-linejoin="round" fill="none" stroke="#000000" d="M27 101.931659H23.5"/>
<path transform="matrix(.010000001,0,0,-.010000001,7.2851564,189.86522)" d="M378 643 129 254H378V643ZM352 729H476V254H580V172H476V0H378V172H49V267L352 729Z"/>
<path transform="matrix(.010000001,0,0,-.010000001,13.645157,189.86522)" d="M318 664C267 664 229 639 203 589 177 539 165 464 165 364 165 264 177 189 203 139 229 89 267 64 318 64 369 64 407 89 433 139 458 189 471 264 471 364 471 464 458 539 433 589 407 639 369 664 318 664ZM318 742C399 742 461 709 505 645 548 580 570 486 570 364 570 241 548 147 505 83 461 19 399-13 317-13 235-13 173 19 130 83 87 147 66 241 66 364 66 486 87 580 130 645 173 709 236 742 318 742Z"/>
<g clip-path="url(#clip_2)">
<path transform="matrix(.01,0,0,-.01,-1.09375,189.86522)" d="M106 355H732V272H106V355Z"/>
</g>
<path transform="matrix(1,0,0,-1,0,288)" d="M27 137.28874H23.5"/>
<path transform="matrix(1,0,0,-1,0,288)" stroke-width=".8" stroke-linecap="butt" stroke-linejoin="round" fill="none" stroke="#000000" d="M27 137.28874H23.5"/>
<path transform="matrix(.010000001,0,0,-.010000001,7.2851564,154.50814)" d="M406 393C453 383 490 362 516 330 542 298 556 258 556 212 556 140 531 84 482 45 432 6 362-13 271-13 240-13 208-10 176-4 144 1 110 10 76 22V117C103 101 133 89 166 81 198 73 232 69 268 69 330 69 377 81 409 105 441 129 458 165 458 212 458 254 443 288 413 312 383 336 341 349 287 349H202V430H291C339 430 376 439 402 459 428 478 441 506 441 543 441 580 427 609 401 629 374 649 336 659 287 659 260 659 231 656 200 650 169 644 135 635 98 623V711C135 721 170 729 203 734 235 739 266 742 296 742 370 742 429 725 473 691 517 657 539 611 539 553 539 513 527 479 504 451 481 423 448 403 406 393Z"/>
<path transform="matrix(.010000001,0,0,-.010000001,13.645157,154.50814)" d="M318 664C267 664 229 639 203 589 177 539 165 464 165 364 165 264 177 189 203 139 229 89 267 64 318 64 369 64 407 89 433 139 458 189 471 264 471 364 471 464 458 539 433 589 407 639 369 664 318 664ZM318 742C399 742 461 709 505 645 548 580 570 486 570 364 570 241 548 147 505 83 461 19 399-13 317-13 235-13 173 19 130 83 87 147 66 241 66 364 66 486 87 580 130 645 173 709 236 742 318 742Z"/>
<g clip-path="url(#clip_3)">
<path transform="matrix(.01,0,0,-.01,-1.09375,154.50814)" d="M106 355H732V272H106V355Z"/>
</g>
<path transform="matrix(1,0,0,-1,0,288)" d="M27 172.64583H23.5"/>
<path transform="matrix(1,0,0,-1,0,288)" stroke-width=".8" stroke-linecap="butt" stroke-linejoin="round" fill="none" stroke="#000000" d="M27 172.64583H23.5"/>
<path transform="matrix(.010000001,0,0,-.010000001,7.2851564,119.15105)" d="M192 83H536V0H73V83C110 121 161 173 226 239 290 304 331 346 348 365 380 400 402 430 414 455 426 479 433 504 433 528 433 566 419 598 392 622 365 646 330 659 286 659 255 659 222 653 188 643 154 632 117 616 78 594V694C118 710 155 722 189 730 223 738 255 742 284 742 359 742 419 723 464 685 509 647 532 597 532 534 532 504 526 475 515 449 504 422 484 390 454 354 446 344 420 317 376 272 332 227 271 164 192 83Z"/>
<path transform="matrix(.010000001,0,0,-.010000001,13.645157,119.15105)" d="M318 664C267 664 229 639 203 589 177 539 165 464 165 364 165 264 177 189 203 139 229 89 267 64 318 64 369 64 407 89 433 139 458 189 471 264 471 364 471 464 458 539 433 589 407 639 369 664 318 664ZM318 742C399 742 461 709 505 645 548 580 570 486 570 364 570 241 548 147 505 83 461 19 399-13 317-13 235-13 173 19 130 83 87 147 66 241 66 364 66 486 87 580 130 645 173 709 236 742 318 742Z"/>
<g clip-path="url(#clip_4)">
<path transform="matrix(.01,0,0,-.01,-1.09375,119.15105)" d="M106 355H732V272H106V355Z"/>
</g>
<path transform="matrix(1,0,0,-1,0,288)" d="M27 208.00292H23.5"/>
<path transform="matrix(1,0,0,-1,0,288)" stroke-width=".8" stroke-linecap="butt" stroke-linejoin="round" fill="none" stroke="#000000" d="M27 208.00292H23.5"/>
<path transform="matrix(.010000001,0,0,-.010000001,7.2851564,83.79396)" d="M124 83H285V639L110 604V694L284 729H383V83H544V0H124V83Z"/>
<path transform="matrix(.010000001,0,0,-.010000001,13.645157,83.79396)" d="M318 664C267 664 229 639 203 589 177 539 165 464 165 364 165 264 177 189 203 139 229 89 267 64 318 64 369 64 407 89 433 139 458 189 471 264 471 364 471 464 458 539 433 589 407 639 369 664 318 664ZM318 742C399 742 461 709 505 645 548 580 570 486 570 364 570 241 548 147 505 83 461 19 399-13 317-13 235-13 173 19 130 83 87 147 66 241 66 364 66 486 87 580 130 645 173 709 236 742 318 742Z"/>
<g clip-path="url(#clip_5)">
<path transform="matrix(.01,0,0,-.01,-1.09375,83.79396)" d="M106 355H732V272H106V355Z"/>
</g>
<path transform="matrix(1,0,0,-1,0,288)" d="M27 243.36H23.5"/>
<path transform="matrix(1,0,0,-1,0,288)" stroke-width=".8" stroke-linecap="butt" stroke-linejoin="round" fill="none" stroke="#000000" d="M27 243.36H23.5"/>
<path transform="matrix(.010000001,0,0,-.010000001,13.640625,48.436876)" d="M318 664C267 664 229 639 203 589 177 539 165 464 165 364 165 264 177 189 203 139 229 89 267 64 318 64 369 64 407 89 433 139 458 189 471 264 471 364 471 464 458 539 433 589 407 639 369 664 318 664ZM318 742C399 742 461 709 505 645 548 580 570 486 570 364 570 241 548 147 505 83 461 19 399-13 317-13 235-13 173 19 130 83 87 147 66 241 66 364 66 486 87 580 130 645 173 709 236 742 318 742Z"/>
<g clip-path="url(#clip_6)">
<path transform="matrix(1,0,0,-1,0,288)" stroke-width="1.875" stroke-linecap="square" stroke-linejoin="round" fill="none" stroke="#737373" d="M98.53846 41.76V243.36"/>
</g>
<g clip-path="url(#clip_7)">
<path transform="matrix(1,0,0,-1,0,288)" stroke-width="5.625" stroke-linecap="square" stroke-linejoin="round" fill="none" stroke="#737373" d="M98.53846 97.22934V166.44068"/>
</g>
<g clip-path="url(#clip_8)">
<path transform="matrix(1,0,0,-1,0,288)" stroke-width="1.5" stroke-linecap="square" stroke-linejoin="round" fill="none" stroke="#737373" d="M98.53846 127.10935"/>
<path transform="matrix(1,0,0,-1,0,288)" d="M100.88221 127.10935H96.19471" fill="#ffffff"/>
<path transform="matrix(1,0,0,-1,0,288)" stroke-width="1.125" stroke-linecap="butt" stroke-linejoin="round" fill="none" stroke="#ffffff" d="M100.88221 127.10935H96.19471"/>
</g>
<g clip-path="url(#clip_9)">
<path transform="matrix(1,0,0,-1,0,288)" stroke-width="5.2" stroke-linecap="round" stroke-linejoin="round" fill="none" stroke="#000000" d="M82.27972 127.10935H114.7972"/>
<path transform="matrix(1,0,0,-1,0,288)" stroke-width="4" stroke-linecap="round" stroke-linejoin="round" fill="none" stroke="#ffffff" d="M82.27972 127.10935H114.7972"/>
</g>
<path transform="matrix(1,0,0,-1,0,288)" stroke-width=".8" stroke-linecap="square" stroke-miterlimit="10" stroke-linejoin="miter" fill="none" stroke="#000000" d="M27 31.68V253.44"/>
<path transform="matrix(1,0,0,-1,0,288)" stroke-width=".8" stroke-linecap="square" stroke-miterlimit="10" stroke-linejoin="miter" fill="none" stroke="#000000" d="M194.4 31.68V253.44"/>
<path transform="matrix(1,0,0,-1,0,288)" stroke-width=".8" stroke-linecap="square" stroke-miterlimit="10" stroke-linejoin="miter" fill="none" stroke="#000000" d="M27 31.68H194.4"/>
<path transform="matrix(1,0,0,-1,0,288)" stroke-width=".8" stroke-linecap="square" stroke-miterlimit="10" stroke-linejoin="miter" fill="none" stroke="#000000" d="M27 253.44H194.4"/>
<path transform="matrix(1,0,0,-1,0,288)" stroke-width="5.2" stroke-linecap="square" stroke-linejoin="round" fill="none" stroke="#000000" d="M129.01688 232.22806H135.51688 142.01688"/>
<path transform="matrix(1,0,0,-1,0,288)" stroke-width="4" stroke-linecap="square" stroke-linejoin="round" fill="none" stroke="#ffffff" d="M129.01688 232.22806H135.51688 142.01688"/>
<path transform="matrix(.013,0,0,-.013,145.91687,60.321947)" d="M394 662C322 662 265 635 223 582 181 528 160 456 160 364 160 272 181 199 223 146 265 92 322 66 394 66 465 66 522 92 564 146 606 199 627 272 627 364 627 456 606 528 564 582 522 635 465 662 394 662ZM394 742C496 742 577 707 639 639 700 571 731 479 731 364 731 248 700 157 639 89 577 21 496-13 394-13 291-13 209 21 148 89 86 157 56 248 56 364 56 479 86 571 148 639 209 707 291 742 394 742Z"/>
<path transform="matrix(.013,0,0,-.013,156.14788,60.321947)" d="M30 547H125L296 88 467 547H562L357 0H235L30 547Z"/>
<path transform="matrix(.013,0,0,-.013,163.84387,60.321947)" d="M562 296V252H149C153 190 171 142 205 110 238 78 284 62 344 62 378 62 412 66 444 74 476 82 509 95 541 113V28C509 14 476 3 442-3 408-9 373-13 339-13 251-13 182 12 131 62 80 112 55 181 55 268 55 357 79 428 127 481 175 533 241 560 323 560 397 560 455 536 498 489 540 441 562 377 562 296ZM472 322C471 371 457 410 431 440 404 469 368 484 324 484 274 484 234 469 204 441 174 413 156 373 152 322H472Z"/>
<path transform="matrix(.013,0,0,-.013,171.83887,60.321947)" d="M411 463C401 469 390 473 378 476 366 478 353 480 339 480 288 480 249 463 222 430 194 397 181 350 181 288V0H91V547H181V462C199 495 224 520 254 536 284 552 321 560 365 560 371 560 378 559 386 559 393 558 401 557 411 555V463Z"/>
<path transform="matrix(.013,0,0,-.013,177.18187,60.321947)" d="M343 275C270 275 220 266 192 250 164 233 150 205 150 165 150 133 160 107 181 89 202 70 231 61 267 61 317 61 357 78 387 114 417 149 432 196 432 255V275H343ZM522 312V0H432V83C411 49 385 25 355 10 325-5 287-13 243-13 187-13 142 2 109 33 76 64 60 106 60 159 60 220 80 266 122 298 163 329 224 345 306 345H432V354C432 395 418 427 391 450 364 472 326 484 277 484 245 484 215 480 185 472 155 464 127 453 100 439V522C132 534 164 544 195 550 226 556 256 560 286 560 365 560 424 539 463 498 502 457 522 395 522 312Z"/>
<path transform="matrix(.013,0,0,-.013,185.15088,60.321947)" d="M94 760H184V0H94V760Z"/>
<path transform="matrix(.013,0,0,-.013,188.76486,60.321947)" d="M94 760H184V0H94V760Z"/>
</svg>
